<?xml version="1.0" encoding="utf-8"?>
<!-- Generator: Adobe Illustrator 19.0.0, SVG Export Plug-In . SVG Version: 6.00 Build 0)  -->
<svg version="1.1" id="Layer_1" xmlns="http://www.w3.org/2000/svg" xmlns:xlink="http://www.w3.org/1999/xlink" x="0px" y="0px"
	 viewBox="0 0 841.9 595.3" style="enable-background:new 0 0 841.9 595.3;" xml:space="preserve">
<style type="text/css">
	.st0{fill:#3C3C3C;}
	.st1{fill:#D7D7D7;}
	.st2{fill:#CBCBCB;}
</style>
<path id="XMLID_2379_" class="st0" d="M247.9,376.3c0.5-1.1,0-2.5,1.1-3.3c1.5,0,1.1,2.8,3.2,2.1c0-2.1-1.1-3.3-3.2-3.6
	c-1.9-0.7-4.4-0.2-6-2.8c14.4,1.1,20.5-8.4,26.2-19c5.6-10.4,10.8-21,20.5-28.9c11.2-9,23.6-12.9,37.5-13.5
	c4.9-0.2,9.9-0.3,14.8,0.9c5.7-1.1,9.5,3.6,14.5,4.7c0.2,0,0.3,0.2,0.4,0.3c14.2,5.2,18.8,18.1,24.3,30.2
	c3.4,7.6,5.6,15.7,10.7,22.4c3.2,4.3,6.4,6.9,12.7,5.7c18.3-3.4,36.3-8.3,54.4-12.3c10.2-2.2,20.4-3.7,30.6-5.6
	c16.8-3.2,33.5-7.4,50.2-11c21.7-4.7,43.5-9,65.2-13.9c7.7-1.7,15.2-4.8,22.2-8.6c7.1-3.8,10.1-11.1,13.2-17.6
	c6.4-13.6,16.9-21.2,30.7-25.5c8.1-2.5,16.4-4.3,24.8-5.5c7.8-1.1,11.2,2,11.2,9.8c0,4.7,0.4,9.3,0.6,13.9c0.1,4.2,3.5,5.2,6.4,5.9
	c3.2,0.7,7,0.5,8.8-3c1.2-2.3,2.7-4.4,4.8-5.6c4.9-2.8,4.7-6.7,4.1-11.6c-0.6-5.6,0-11.3,0.5-16.9c1.1-12.4-1.3-24.6-1.4-36.9
	c0-2-1-2.6-2.4-1.4c-4.1,3.5-9.2,4.7-14.1,5.7c-13.7,2.7-26.9,7.3-40.9,8.7c-5.7,0.5-11.4,1-17.2,0.7c18.1-3.2,36.3-5.7,53.9-11.2
	c-0.1-0.6-0.6-1.2-1.6-0.9c-16,5-33,4.4-49,9.2c-1.1,0.3-2.6,0.7-2.9-0.8c-0.3-1.5,1.3-1.3,2.3-1.6c10.5-3.4,21.5-3.6,32.2-5.6
	c13-2.4,26.1-4.5,37.3-12.6c0.9-0.7,1-2,2.3-2.2c1.7,1.2,1.7,3.2,2,4.9c0.6,3.1,1.3,5.6,4.9,6.5c2.3,0.6,3.6,3.3,3.3,5.2
	c-1.5,9.8,1.8,20.2-3.6,29.5c-2.7,4.6-3.4,9.7-2.8,15c0.2,1.5,0,3.3,1.7,3.8c4.1,1.4,4.5,5.5,6.7,8.3c0.9,1.1,0.8,2.5,0.6,3.8
	c-1.2,8.9-10.1,17.4-18.8,17.9c-2,0.1-4.5,0.4-4.7-2.9c-0.2-2.6-2.3-2.4-4.1-2.6c-7.7-0.5-10.6-3.6-10.9-11.2
	c-0.1-2.4,1.3-6-1.9-6.8c-3.4-0.9-4.2,3-5.8,5.1c-1.6,2,0.5,3.6,0.5,5.5c-0.1,5.7-2.1,11.4-1.6,16.8c0.5,5.8-2,10.5-3.2,15.7
	c-1.2,5.5-3.6,10.7-5.8,15.9c-6.3,14.6-16.9,23.8-33.1,25.1c-16,1.3-31.5-9.8-33.1-25.8c-0.5-4.6-1.5-9.2-1.9-13.9
	c-0.2-3.1-1.4-3.7-4.1-2.8c-19.9,6.1-40.5,9.4-60.8,13.9c-16.7,3.7-33.5,6.9-50.2,10.8c-21.3,5-43.2,7.3-64.2,13.3
	c-7.2,2.1-14.6,4.3-21.9,5.5c-7.8,1.2-16,5.6-24.1,0.2c-1.8-1.2-3.5,0.9-5.6,0.7c-6.3-0.6-12.2-2.7-18.6-2.8
	c-3.5-0.1-3.7,0.7-3.2,3.3c0.1,0.5,0.3,1,0.2,1.5c-0.3,3.4,0.4,6,5.4,5.2c-5.7,1.2-4.6,5.1-4.6,8.6c0,11.3-2.1,22.4-6.1,32.6
	c-2.2,5.7-4.8,12.6-12.4,16.7c2.4-4.5,6.2-6.7,6.4-11.5c-3.2,1.6-6.3,3-9.3,4.5c4-5.6,13.3-5.3,14.2-14.3c-8,3.4-16.5,5.6-20.3,14.6
	c-0.3,0.4-1,0.8-0.2,1.3c0.6,0.4,1-0.2,1.4-0.6c1.4-0.1,2.3-2.1,5.3-0.2c-8.4,1-12.9,7.5-19.8,9.1c-7.6,1.9-14.3,5.7-21.7,7.9
	c-0.2-0.3-0.5-0.6-0.7-0.8c3.2-2.1,7.3-2.7,10.5-5.5c-4-2.3-7-5.6-10.6-7.1c-4-1.7-7.7,2.6-11.9,3.4c-0.2,0-0.3,0-0.5-0.1
	c0.3-2.8,3.1-1.9,4.5-3.1c1.8-1.5,6-0.4,5.7-4c-0.4-4.4-4.5-0.1-6.1-2.1c0.4-2.1,6.1-1.7,3.4-4.2c-2.7-2.5,0.6-4.2-0.8-6
	c-0.8-1-1.7-0.9-2.6-0.5c-5.3,2-10.6,4-15.9,6.1c3.2,5.1,7.1,2.1,10.5,1.4c0.7,1.9-2.5,1.6-1.4,3.2c0.9,1.3,2.4,1.5,4,0.8
	c0.9-0.4,1.9-0.5,2.8-0.8c0.1,2.5-2.2,2.1-3.5,2.8c-3.4,2-7.6,2.5-10.1,6.3c2.7,0.4,5.1,0.7,7.6,1.1c-0.6,1.6-3.1,1-3.5,3.2
	c4-1.3,6.6,3.2,11,1.6c-4.5,4.6-8.8,7.7-14.7,7.3c0.3-1.4,1.8-1.3,2.6-2c1.4-1.3,5.2-1.1,4.1-3.7c-0.9-2.1-3.8-0.8-5.9-0.3
	c-0.6,0.2-1.3,0.4-1.9,0.6c-1.5,0.6-3.7,0.9-3.4,2.9c0.3,2.4,2.4,2.8,4.6,2.4c-0.1,1.9,0.5,2.6,2.7,2.8c3.7,0.4,6.8-1.7,10.4-1.8
	l-0.1-0.1c1.4,3.7,3.7,2,5.9,1c12.4-5.7,25.3-10.1,38-15.1c0.2-0.1,0.6,0.2,0.9,0.3c-0.1,1.5-1.3,1.6-2.4,2
	c-12.9,4.9-25.9,9.5-38.2,15.6c-1.9,1-3.5,0.1-5.3-0.5c-1.9-0.6-4.1-0.1-6.9-0.1c8.5,5.9,24.7,6,32.1,2.8c5.2-2.3,11.5-1.5,15.7-6.2
	c0.7-0.8,2-1.2,2-3.3c-9,1.7-16.7,6.7-25.3,8.7c10.1-6.4,22-8.9,32.8-13.8c0.6,1.7-1.3,2.9-2.5,4.4c-1.3,1.5-2.6,3-3.9,4.6
	c-2.7,1.7-5.4,3.5-8.1,5.2c-6.5,0.6-12.3,4.2-18.8,4.8c-1,0-2,0-2.9,0c-1.3-0.4-2.7-0.6-4.1-0.1c-11.8-0.9-22.6-3.9-29.9-14.2
	c-1.5-2.1-3.6-3.9,0.1-5.9c0.3-0.2,0.8-0.9,0.7-1c-3.4-4.5,1.2-4.8,3.4-6c1.1-0.6,2.4-0.8,1.7-2.3c-0.6-1.3-1.7,0-2.5,0.1
	c-4.3,0.8-5.9,4.6-8.2,7.9c-5.5-4.9-6.7-11.7-8.4-18.3c-0.8-3.2-1.3-6.5-1.7-9.8c-0.2-1.4-1.9-3.6,1.5-4c1.4-0.2,0.2-1.1-0.1-1.7
	c-0.4-0.9-0.9-1.8-1.2-2.7c-1.5-4.7-0.7-5.7,4.3-6.2c1.9-2.6-0.3-2.1-1.7-2.3c-0.8-5.6,5.5-4.5,6.2-4.2c6.3,2.4,10.9-1.8,16-3.5
	c4.4-1.4,8.6-3.5,12.9-5c2.7-0.9,4.1-2.6,4.9-5.8c-8.3,1.9-15.7,5.1-23.2,7.8c-5.9,2.1-11.7,4.4-18,4.6c-2.5,0.1-2.6,2-2.7,3.4
	c-0.2,4.2-3,6.2-6.4,6.1c-4.4,0-8.7,3.8-13.1,0.5c3.8-0.9,7.6-1.8,11.4-2.7c4.3-1,7.9-6.6,6.7-10.7c-0.6-2-2.4-5.5-2.9-5.4
	C250.1,382.6,250.8,377,247.9,376.3z M331.9,323.2c0.9,0.2,1.1-0.3,1-1c0.2-0.1,0.5-0.1,0.7-0.2c-0.1-0.2-0.2-0.3-0.3-0.5
	c-0.1,0.3-0.2,0.5-0.3,0.8C332.4,322.3,332,322.6,331.9,323.2c-0.1,0.2-0.4,0.4-0.6,0.6c0.2,0.1,0.4,0.2,0.6,0.2
	C331.9,323.8,331.9,323.5,331.9,323.2z M329.1,318.4c0.6-0.3,1-0.6,0.4-1.3c-0.3,0.3-0.5,0.6-0.8,0.9c-0.4,0.2-0.9,0.6-0.5,1
	C328.7,319.4,328.9,318.8,329.1,318.4z M309,315.2c0.6,0,0.9-0.4,0.8-1c0-0.1-0.4-0.2-0.4-0.1c-0.3,0.3-0.8,0.7-0.3,1.2
	c-0.9-0.3-0.9,0.4-1.1,0.9c-0.5,0.5-1.1,0.9-1.6,1.4c-0.4-0.2-0.8-0.4-1.3-0.6c0.3-0.7,1.2-1.7,0.9-2.1c-0.5-1.1-1.7-0.4-2,0.2
	c-1.1,1.8-3.1,5-2.6,5.4c4,3.7,0.3,7.9,1.4,12.1c0.8-2.4,5.1-1.6,4.5-5.2c-0.7-3.8,0.3-7.4,0.6-11.1
	C308.6,316.3,308.9,315.9,309,315.2z M332.1,314.5c-1.2-0.2-1.6,0.6-2,1.5c0,0.1,0.2,0.4,0.2,0.4c1.1-0.2,1.4-1,1.7-1.9
	c0.4-0.3,0.8-0.6,1.2-0.9c0.7-1,1.2-2.6,2.5-2.4c1,0.1,0.2,1.2,0,1.9c-1.4,2-3.4,3.6-3.3,6.5c1.4-1.8,2.8-3.6,4.1-5.4
	c0.5-0.6,0.9-1.2,1.4-1.8c0.7-0.5,1.2-1.1,0.8-2c-0.3-0.8-1.1-0.5-1.7-0.5c-3.9-1.4-3.7,1.3-3.8,3.7
	C332.4,313.3,332.2,313.8,332.1,314.5z M277.3,342.6c1.1-2.6,4.3-4.1,3.6-8.2c-2.5,2.3-3.5,4.9-4.6,7.4c-0.2,0.5-0.7,1.2-0.1,1.6
	C277,343.9,277,343,277.3,342.6z M311.7,372.1c1.6-0.5,3.7-0.2,3.8-2.8c0-0.7,0.2-1.5-0.6-1.6c-2.2-0.3-3.1,1.3-4.1,2.8
	c-0.1,0.1-0.1,0.3-0.2,0.5c-0.9,0.5-1.9,0.9-2.8,1.4c0.1-3-1.7-2.2-3.4-1.6c-6.3,2.1-12.5,4.2-19,6.4c0.9-4.9,4.7-3,7.1-4
	c7.1-2.8,14.6-4.5,21.5-7.8c4.5,2.8,6.5-1.8,9.6-3.3c0.4,0.3,0.8,0.7,1.2,1c-3.8,3.1-6.6,6.9-8.1,11.6c-0.9,2.7-2.8,4.7-5.6,6
	c-3.8,1.8-7.8,12.9-5.6,16.2c1.5,2.2,1.4,4.2,1.2,6.5c-0.5,5.7-3.7,11.3-1,17.3c0.5,1.1,1.2,2.7,0,3.7c-1.2,1-1.8-2.1-3.5-0.7
	c0.9,5.7,4.3,10.2,8.8,13.3c7.4,5.1,17.9,2.6,24.5-4.9c7-7.9,10.8-17.5,13.8-27.3c3.2-10.4,4.7-21.1,1.9-31.9
	c-0.5-1.9-0.9-3.6-3.3-3.6l0.1,0.1c1.5-1.9,0.1-2.9-1.1-4.1c-3.9-3.6-8.5-6.3-13.3-8.6c-3.2-1.5-5.9-1-8.9,0.5
	c-4.2,2-7.2,5.4-10.8,8.2c-1.2-3.5,3.5-4,3.6-7.1c-0.9,0.2-1.7,0.3-2.5,0.4c-10,2.2-18.9,7.4-29,9.3c-3.4,0.6-6.7,2-10,2.9
	c-1.3,0.4-2.4,0.4-2-1.5c1.7-0.4,3.4-0.8,4.5-2.3c0.6-0.5,1.3-1.4,2-1.4c10.8-1.1,21.1-4.2,31.1-8c5.9-0.9,11.5-3,17.2-4.8
	c1.4-0.4,3-1.4,4.2,0c2.5,3.2,5.3,5,9.4,3.4c3.6-1.4,7.2-2.6,10.7-4.1c1.1-0.5-0.4-1-0.3-1.3c2-5.8-3.1-8.1-5.7-11.7
	c-3.3-4.6-6.9-3.2-10.7-1c-0.7,0.4-1,1.1-2,1.1c-6.7,0-12.8,2.5-18.9,4.9c-1.9-0.2-2.3,3.2-4.7,1.9c-3.6-0.5-6.6,1.2-9.7,2.7
	c-0.5,0.5-1,0.9-1.6,1.4c-1.9-0.7-3.8-0.4-5.6,0.4c-2.5,1.1-5.2,2.1-8.1,1.9c-3.2,0-4.5,2.1-5.2,5.2c1.7-0.8,3.4-1.6,5.1-2.4
	c5-0.8,9.8-2.4,14.5-4.3c0.7-0.2,1.4-0.4,2-0.6c3.8,0.7,7.6,1.2,11.4-0.1c0.2,0.3,0.5,0.6,0.7,0.9c-2.4,1.7-5.1-0.4-7.6,0.6
	c-0.4,0.8-2.5-1.2-1.9,1.2c0.3,1.2,0.2,2.6-1.5,2.3c-5-0.7-8.6,2.3-12.6,4.4c-0.6-0.9-1.2-1.6-1.9-0.1c-1.5,0.3-2.1,2.5-4,1.9
	c-1.2-0.6-0.2-4-3.1-2.4c-1.3,0.4-2.7,0.8-4,1.2c-0.8-1.9-0.6-3.8,1.1-5.7c-3.6,0.3-6,1.4-7,4.4c-0.7,0.6-1.4,1.1-0.2,1.9l-0.1,0
	c2.8,5.2,6.9,1.5,10.5,1.6c0,0.4,0,0.7,0,1.1c-1.6,0.6-3.5,0.8-4.3,2.7c-1.8,0.6-5.4-1.2-4.4,3.3c-1.2,2.5-2.1,1.2-3.3,0
	c-1.2-1.3-2.4-0.7-3.2,0.7c-0.7,1.4,0.2,1.9,1.2,2.1c3.2,0.5,3.7,1.5,1.4,4c-0.9,1,0.3,2.6,1,3.6c0.7,1,2.1,0.7,2.6-0.1
	c2.2-3.6,5-1.5,7.8-0.9c-3.3,2.3-7.2,2.5-10.8,3.7c-1.1,0.4-2.8,1.4-3.6,0c-0.7-1.2-0.8-2.8,0.4-4.2c1.3-1.5,1.2-2.9-0.6-4.1
	c-1.7,1.9-2.1,4.2-2.5,6.4c-0.7,4.2,1.9,6.9,5.9,5.7c7.2-2.2,14.4-4.3,21.5-6.6c5.8-1.9,12.5-2,16.9-7.2c0.2,0.9,0.4,1.8,1.6,1.9
	C311.2,374.3,311.2,373,311.7,372.1z M329,331.5c-2.1-0.1-4.8-0.8-5.6,1.7c-0.5,1.4,0.6,3.6,2.2,4.6c4.2,2.8,4.6-1.7,6.5-3.4
	c2.7,0.9,5.4,3,8.1-0.1c-2.1-2.4-4.9-3.2-7.8-3.6c-0.8,0.2-1.6,0.4-2.4,0.6C329.7,331.4,329.3,331.4,329,331.5z M290.8,414.5
	c-3-0.9-5.6-0.4-7.8,1.9c-3.3,0.5-6.2,1.9-9.3,3c-2,0.7-4.6,1.7-3.9-2.4c0.2-1.1,0.3-2.9-1.3-2.6c-2,0.3-4.7,0.6-5.1,3.1
	c-0.3,1.5,1.4,2,2.9,1.7c0.8-0.1,1.8-0.5,1.9,0.8c0.1,0.9,0,2-1.3,2.3c-1,0.2-2.5-0.5-2.7,1.6c2.8,1.6,4.9-0.7,7.3-1.2
	c0.3,0.4,0.6,0.7,0.8,1.1c-0.5,1.3-1.9,3.2,1.4,2.2c4-1.2,6.9-4.6,11.2-5.5c0.2,0,0.1-1.4,0.1-2.2c3.9,2.1,7.2-0.4,10.6-1.6
	c1.2-0.4,2.7-0.7,2.2-2.6c-0.4-1.6,0.2-3.9-2.7-3.7c1.8-2.4,2.7-4.9,1.4-8.2c-4.6,1.8-9.1,3.5-13.5,5.2c3.1,5.7,7.9,3.1,12.2,3
	c-0.3,2-4.2,0.5-3.3,3.6C291.5,414,291.2,414.2,290.8,414.5z M689,294.3c-1.2-1,0.1-1.2,0.6-1.7c0.9-0.9,3.4-0.6,2.5-2.8
	c-0.9-2-2.8-2.1-4.7-1.4c-1.2,0.4-2.5,1-3.7,1.3c-2,0.6-1.6,1.9-0.7,2.9c0.7,0.9,0.4,3.5,2.9,2C686.8,294.2,687.7,292.8,689,294.3
	c-6.3,3.4-1.5,8-1.8,12.6c2.3-1.2,4.1-2.1,5.9-3c1.5-0.8,2.5-2.1,1.5-3.6c-0.9-1.5-2,0.3-3,0.5c-1.2,0.2-2,1.8-3.5,1
	c-0.1-1.8,1.5-2.1,2.5-2.7c1.2-0.7,1.3-1.5,1.3-2.9C691.7,294,690.1,294.6,689,294.3z M681.9,348.1c-5.3,1-9.2,5.2-14.3,6.7
	c-6.6,2-13,4.6-19.7,7.1c1.9,2.4,3.4,2.7,5.8,1.6c7.4-3.2,15-6.3,22.6-9.1c3-1.1,5.2-2.7,6.5-5.7c0.3-0.4,0.5-0.9-0.1-1.2
	C682.4,347.5,682.1,347.9,681.9,348.1z M355,404.2c-1.4,2.8-6.4,4-5.3,7.1c1.5,4.3-2.5,5.1-3.1,7.8c-0.1,0.2,0.1,0.5,0.2,0.8
	c4.8-1,8.6-4.9,13.6-5.4c1.3-0.1,1.2-1.4,1.4-2.3c0.5-2.8,0.8-5.6,1.6-8.3c0.9-2.8-1.5-2-2.5-2.7c0.1-1.2,1.2-1.4,1.9-2
	c3-2.3,2.2-3.9-0.9-5.1c1.8-1.6,4.2-3,2.8-5.8c-1.6-0.9-2.8,1.9-4.5-0.1c1.6-1.4,4.6-1.8,4.5-4.8c-2.6-0.5-3.9,2.5-6.2,1.5
	c1.1-2.9,5.4-2.2,6.3-6c-2.3,0.6-4,1-5.7,1.5c-0.3-0.3-0.6-0.6-0.9-0.9c2.2-2,8.1-1.1,5.3-7.1c-2,0.6-4.1,1.2-6.1,1.9
	c-1.3,0.5-3.1,0.7-2.8,2.9c0.9,6.9,0,13.8-0.8,20.6c1.7,0.7,2.5-2.1,4.1-0.6c-0.9,2.3-3.8,2.5-4.8,4.5c-0.4,0.8-1.6,1.6-0.5,2.5
	C353.2,404.6,354.3,404.3,355,404.2z M305,338.2c6.2-0.1,11.8-3,17.8-3.8c0.8-0.1,1.8-0.4,1.3-1.4c-0.4-0.8-1.4-1.9-2.4-1.3
	c-5.2,3-11.4,3-16.7,5.5c-2.2,0.6-4.3,1.2-6.5,1.7c-0.3-0.4-0.6-0.7-0.9-1.1c1.4-1.2,1.7-1.3-0.5-1c-4.1,0.5-6.1,4.1-9.2,5.6
	c-4.2,2.1-7.1,4.9-9.7,8.7c0.5,0.1,0.8,0.2,1.2,0.2c8.3-0.7,15.5-5.3,23.7-6.5c5.5-0.8,11-2.4,16.4-3.9c1.2-0.3,3.6-0.2,3.1-2.2
	c-0.4-1.8-2.2-2.3-4-1.7c-3.9,1.2-8.1,2.1-11.8,3.8c-1.8,0.8-2.9,0.5-4.7,0.1C303.3,339.8,304.1,339,305,338.2z M684.4,308.5
	c-0.3-2.1-0.3-4.7-1-7c-1.5-5.3-3-10.7-9-12.9c-5.6-2.2-9.3,0.7-13.7,4.1c-9.3,7.2-11.7,17.5-13.5,27.9c-1.2,6.9-3.2,14.7,3.7,20.5
	c0.1,0.1,0,0.7-0.2,0.9c-3,2.7-2,3.7,1.5,3.9c1.1,0.1,1.9,0.7,1.2,1.9c-1.3,2.1,0.7,2.2,1.6,2.7c7.4,3.7,17.8,0.7,20.9-6.9
	C680.4,332.5,683.4,320.9,684.4,308.5z M300.2,384.7c-12.3,3.7-22.7,9.5-33.7,14c-0.6,0.3-2.3,0.2-1,1.8c0.9,1.1,0.2,1.9-1,1.9
	c-4.9-0.2-2.8,1.9-1,3.4c2.6,2.4,5.4,3.8,8.9,1.5c1.3-0.9,3.2-2,4.5-1.7c6.8,1.5,11.8-3.4,17.9-4.5c2.1-0.4,2.9-2,3.1-4
	C298.1,393.2,298.8,389.3,300.2,384.7z M740.8,290.8c-0.1-1.1-0.6-1.7-2.2-0.8c-2,1.1-4.2,2.1-6.3,3c-4.9,2.1-7,6.3-8.6,11
	c-0.5,1.5-0.6,2.6,1.6,2.6C731.5,306.6,741,297.2,740.8,290.8z M735.2,257.4c1.8-4.6,5.3-9,1.4-14.2c-1.1-1.4,0.5-2.7,1-4.1
	c1.2-3.2,1.9-6.4-0.4-9.4c-0.7-0.9-1.6-1.3-2.6-1.1c-1.4,0.3-1,1.5-1,2.4C734.1,239.8,734.6,248.6,735.2,257.4z M305.7,382.5
	c-6.7,4.8-8.6,31.8-2.6,39.2c-0.5-7.1-1.1-13.3-1-19.5C302.2,395.6,303.8,389.5,305.7,382.5z M342,358.1c2.3,2.2,4.2,4.5,6.2,4.1
	c3.5-0.6,6.8-2.4,10.1-3.8c1.3-0.6,1.1-2,0.7-3.1c-0.5-1.2-1.2-2.5-2.9-2C351.6,354.8,347.1,356.4,342,358.1z M675.6,357.7
	c-8.6,1.6-15.9,6.1-23.9,9.2C661.3,367.9,668.9,363.9,675.6,357.7z M651.2,352.3c-2.7-5.1-6.1-2.1-8.1-0.6
	c-3.5,2.7-7.1,3.1-11.1,3.1c-1.2,0-2.8-1-4.4,1.2C636.2,358.2,643.5,355.1,651.2,352.3z M668.8,284.5c5.8,3,10.5,0.1,15.4-1.6
	c1.1-0.4,2.9-0.5,1.8-2.6c-0.8-1.6-1.8-2.1-3.6-1.3C678,280.9,673.6,282.6,668.8,284.5z M623.8,342.3c0,0.6,0,1.2,0,1.7
	c6.3,1.2,12.5-0.6,18.7-1.5c1.3-0.2,3.7-0.2,3.2-2.7c-0.2-1.1-0.5-2.6-1.9-2.6c-1.7,0.1-4.1,0.2-4.6,2.1c-0.9,3.1-3.2,2.9-5.5,3
	C630.4,342.4,627.1,342.3,623.8,342.3z M276.9,416.2c2.8-1.2,7.6-1.2,8.2-3.9c0.7-3.1-4.7-0.3-6.1-2.9c-0.1-0.1-0.3-0.1-0.5-0.1
	c-3-0.6-6.8,2.3-6.7,5.7c0.2,4.6,2.9-1.7,3.8,0.7C275.9,415.8,276.4,415.9,276.9,416.2z M641.5,358.1c7.2,3.4,11.9-0.7,17-3
	C652.5,352.8,647.7,356.2,641.5,358.1z M282.5,428.8c-5.4-4.2-8.4,0.8-12.2,1.6c-1.1,0.2-3.3,0.7-2.2,2.9c0.8,1.6,2.4,1.7,3.9,1
	C275.4,432.6,278.7,430.8,282.5,428.8z M360.2,366.6c-1.8,1.6-6.2-1.1-7.1,3.3c-0.2,0.9-0.1,4.1,2,3.5c2.9-0.9,6.7-1,8.2-4.3
	C363.9,367.8,362.7,366.3,360.2,366.6z M631.7,325.8c4.2-1.5,7.2-2.7,10.3-3.7c1.8-0.6,2.8-1.6,2.8-3.6c0-0.7-0.1-1.6-0.8-1.5
	c-1.6,0.3-4.3,0.7-4.5,1.5C638.6,322.4,634.5,322.2,631.7,325.8z M692.4,313.9c-3,3-8.5,2.7-7,8.9
	C688.7,320.8,693.6,320.8,692.4,313.9z M361.5,362.7c-0.8-1.3-1.5-2.8-3.7-1.9c-2,0.8-4,1.5-6,2.3c-1,0.4-2.6,0.3-1.8,2.1
	c0.5,1.2,1.5,1.6,2.8,1.2c2.4-0.7,4.7-1.3,7.1-2C360.7,364.1,361.5,363.9,361.5,362.7z M677.8,347.1c4-1.8,9.1-1.7,8.2-8.3
	C682.1,340.3,678.6,341.9,677.8,347.1z M661.7,288c-4.7,1.7-10,2.3-13.9,7.4C653.9,294.5,658.6,292.7,661.7,288z M687,315.3
	c3-2.7,7.6-3.5,6.6-9C689.6,307.9,685.5,309.1,687,315.3z M681,339c3.6-2.9,9.2-2.5,8.3-9C686,332.3,681,332.4,681,339z
	 M691.8,322.2c-8,3.3-8,3.3-7.9,8C690.4,327.5,690.6,327.3,691.8,322.2z M637.2,313.3c2.8,1.5,5,2.5,7.4,0.9c1.5-0.9,2.9-2.3,2-4
	c-0.8-1.5-2.4-0.1-3.6,0.3C641.3,311.2,639.6,312.1,637.2,313.3z M715.2,226.9c6.6,0.5,10.3-1.2,12.5-5.2
	C723.1,223.6,719.1,225.3,715.2,226.9z M644,325.9c0.1-1.4-0.4-2-1.7-1.6c-1.8,0.6-4.1,0.4-5.2,2.6c2,0-0.3,4,2.7,2.9
	C641.6,329.1,644.3,329.1,644,325.9z M640.2,309.6c3.2-1.4,5.6-2.4,7.9-3.7c0.5-0.3,1-1.5,0.8-2.2c-0.2-1.1-1.2-0.6-2-0.4
	C643.8,304,641.2,305.2,640.2,309.6z M647.1,346.5c-0.4-1.1-0.4-2.8-2-2.3c-2.1,0.6-4.8,0.8-5.1,3.8c-0.1,0.9,0,2.3,1.5,1.8
	C643.5,349,646.1,349,647.1,346.5z M622.8,334.9c4.3,1,8.5,1.5,13.7,0.3C631.3,332.6,627,334.1,622.8,334.9z M364.5,320.1
	c-4.4,0.1-5,3.4-6.6,5.7c-0.5,0.7-1,1.5,0,2.1c0.8,0.4,1.7,0.2,2.2-0.6C361.5,325.1,363.7,323.4,364.5,320.1z M643.4,301.8
	c4.3-0.8,7.8-0.7,8.9-5C649.7,298.4,646,297.8,643.4,301.8z M634,339.9c0-0.4,0-0.9,0-1.3c-3-0.3-6.1-0.7-9.1-1
	c-0.8-0.1-1.7-0.2-1.8,1c-0.1,1,0.6,1.6,1.5,1.6C627.7,340.3,630.9,340.6,634,339.9z M679.4,288.4c3.7,0,6.7-1.7,9.8-3.4
	c0,0-0.3-1.1-0.5-1.1c-3,0-5.5,1.7-8.3,2.6C679.8,286.8,679.3,287.2,679.4,288.4z M637.4,333.1c2.2,2,4.1,3,6.2,1.9
	c1.1-0.6,0.7-2.6,0-3C641.6,330.5,639.8,332.1,637.4,333.1z M674.4,279.5c-3.5,0.5-7,1.1-9.8,3.6
	C668.2,282.9,671.4,281.6,674.4,279.5z M624.6,347.2c2.7,1.5,5.5,1.6,8.3,0.3C630.3,346,627.4,346.6,624.6,347.2z M370.6,328.4
	c-1.1-1-1.4-2.8-2.9-2.5c-0.7,0.2-1.1,1.8-1.7,2.7c0.9,0.4,0.8,2.4,2.2,1.8C369.1,330.2,369.8,329.2,370.6,328.4z M634.2,352.2
	c-2.3-1.3-4.9-1.4-7.6,0C629.1,352.2,631.7,352.2,634.2,352.2z M272.6,349c2-0.3,2.7-1.3,2.2-3C272.8,346.1,273.2,347.9,272.6,349z
	 M252.9,376.1c-1-0.1-1,0.4-0.9,0.8c0.1,0.4,0.4,0.8,0.6,1.2c0.3-0.2,1-0.5,1-0.5C253.4,377,253.1,376.5,252.9,376.1z M326.5,326.4
	c-0.1,0-0.3-0.1-0.4-0.1c-0.4,0.1-0.5,0.3-0.1,0.6c0.1,0.1,0.3,0,0.4-0.1C326.5,326.7,326.5,326.5,326.5,326.4z M300.8,332.7
	c-0.1-0.1-0.2-0.3-0.3-0.3c-0.1,0-0.2,0.2-0.3,0.2c0.1,0.1,0.3,0.2,0.4,0.3C300.7,332.8,300.8,332.7,300.8,332.7z M281.3,333.6
	c-0.1,0.1-0.2,0.3-0.2,0.3c0.2,0.5,0.4,0.5,0.7,0c0-0.1-0.1-0.3-0.2-0.3C281.5,333.5,281.4,333.6,281.3,333.6z M322.6,339.1
	c0.1-0.1,0.2-0.2,0.3-0.4c-0.2-0.1-0.4-0.3-0.7-0.3c-0.1,0-0.2,0.2-0.3,0.3C322.2,338.9,322.4,339,322.6,339.1z M275.9,344.9
	c-0.1-0.2-0.2-0.4-0.4-0.6c-0.1,0.1-0.3,0.2-0.3,0.3c0.1,0.2,0.2,0.4,0.3,0.7C275.6,345.2,275.7,345.1,275.9,344.9z M329.5,327
	c0.1-0.1,0.3-0.2,0.3-0.3c0-0.1-0.2-0.2-0.3-0.3c-0.1,0.2-0.2,0.3-0.3,0.5C329.3,326.9,329.4,327,329.5,327z M338.3,448.6
	c-0.1,0.1-0.2,0.3-0.2,0.3c0.2,0.5,0.5,0.5,0.7,0c0-0.1-0.1-0.3-0.2-0.3C338.5,448.5,338.4,448.6,338.3,448.6z"/>
<path id="XMLID_2378_" class="st0" d="M455.2,227.3c-0.5,1,0.8,3-1.5,3c-1.5,0-1.8-1.2-1.8-2.5c0-1.7-0.9-3.2,0.3-5.1
	c6.1-8.8,9.8-18.8,14.2-28.5c5.4-12.1,11.7-23.8,17.8-35.5c3.8-7.2,7-14.6,10.3-21.9c0,0,0-0.1,0-0.1c0.8-0.1,0.8-0.7,0.8-1.3
	c0.9-2.9,3.8-3.4,5.9-5c6.1-4.6,12.9-7.3,20.2-9.4c8.1-2.3,16.4-2.2,24.6-3.3c9.6-1.3,19.1-3,28.7-3.7c18.9-1.4,37.9-0.8,56.8,0.7
	c6.1,0.5,12.4,0.3,18.2,3.8c4.6,2.8,8.3,6.8,13.4,8.9l-0.1-0.1c2,10,0.8,19.9-2,29.5c-3.2,11.2-4.7,22.8-6.6,34.3
	c-0.5,3.2-0.3,6.2,1.2,9.2c4.8,9.9,4,20.1,0.7,30.3c-1.9,5.9-3.2,11.8-3.2,18.2c0,10.6-3,20.7-6.6,30.5
	c-4.5,12.4-11.8,23.4-16.8,35.6c-0.4,1-1.3,2.3-2.7,1.4c-1.7-1.1-0.9-2.5-0.1-3.9c5.8-9.3,11-19,15.3-29.1
	c4.7-11.1,7.9-22.6,8.2-34.7c0.1-3.7-0.6-5.1-5.1-4.3c-11.3,2-22.6,4.9-33.9,6.5c-10.2,1.4-20.5,3.6-31,3.5c-2.3,0-4.9,2.2-7.7-0.6
	c1.9-0.6,3.2-1.2,4.6-1.3c17.7-1,35.1-4.3,52.5-7.9c5-1,10.1-1.4,15.2-2.1c1.2-0.2,2.6-0.5,2.4-1.8c-0.2-1.6-1.8-1.2-2.9-0.9
	c-21.2,5-43.3,4.2-64.4,10c-1.6,0.4-3.2,0.8-4.8,0.3c-0.1-2,1.5-1.7,2.5-1.9c17.8-4.1,35.8-7.1,54.2-8.2c6.2-0.4,12.3-2.7,18.4-4.2
	c1.7-0.4,2.1-2,2.6-3.4c3.5-10,4.8-20.1,0.2-30.1c-1.8-3.9-1.9-7.6-1.3-11.6c2.3-14.1,4.5-28.3,8.2-42.1c1.2-4.4,1.2-8.9,1-13.4
	c-0.3-4.5-2.8-7.6-6.4-10.1c-6.7-4.8-14.2-7.1-22.3-7.6c-7.8-0.4-15.6-0.8-23.4-1.2c-0.3,0-0.7,0-1,0c-9.3-0.1-18.6-0.1-27.9-0.2
	c-3.4,0-6,0.5-5.8,4.9c0.1,2.4-0.6,4.9-0.9,7.4c0,4.6,0,9.3-0.1,13.9c-2.8,18.9-2.8,38.1-6.5,56.9c-0.5,2.3-0.6,6.5-2.8,6
	c-3.1-0.7-0.3-4,0.1-5.9c3.7-19.5,4.2-39.3,6.6-58.9c0.8-6.8,0.3-13.9,0.3-20.9c0-2,0-2.9-2.7-2.3c-15.1,3.3-30.7,3-45.8,6.2
	c-14,3-24,10.8-29.9,23.5c-6.3,13.5-13.3,26.8-20.3,39.9c-4.6,8.7-7.1,18.2-11.7,26.9C458.3,218,454.4,221.8,455.2,227.3z"/>
<path id="XMLID_2377_" class="st0" d="M516,69.1c-1,0-2-0.1-2.9-0.1c-4.6-1-9.3-1.8-14.1-1.7c-22.1-0.3-44.1-0.5-66.2,0.6
	c-1.7,0.1-3.3,0.2-5,0.2c-26.2,0.2-51.9,3.5-77.1,10.4c-7.3,2-13,5.4-17.1,12.7c-8.6,15.1-15.5,30.9-23.3,46.3
	c-2.8,5.5-6,10.7-9.2,16c-1.3,2.1-3.1,4.1-6.7,4.6c11.7-13.9,17.9-29.8,25-45.1c5.2-11.3,12.7-21.4,17.7-32.9
	c0.2-0.5,0.8-1.2,1.3-1.3c11.2-1.4,21.8-5.4,32.8-7.4c11.1-2,22.3-3.5,33.6-4.3c14.2-1.1,28.3-0.9,42.5-1.8c16.4-1,32.9-1,49.3-0.6
	c11.1,0.3,22.1,2.3,33.2,3.5c13.2,2.8,26.7,3.1,39.9,6.1c19.2,4.4,38.4,8.3,57.5,13c24.9,6.1,49.1,14.4,71.3,27.6
	c2.6,1.6,4.8,3.5,8,4.1c2.1,0.4,4.5,2.6,0.4,4.5c-1.1,0.5-1.5,0.9-0.9,2.5c6.6,17.8,12,36,14.1,54.9c0.8,7.5,5.5,12.5,8.6,18.6
	c1.8,3.6,2.8,7.4,3.7,11.3c0.2,0.9,0.2,2.3-0.9,2.6c-1.6,0.4-2-1-2.1-2.1c-0.6-8.4-5.2-14.9-10.1-21.2c-1.1-1.4-1.3-2.9-1.4-4.7
	c-0.9-19.2-6.6-37.2-12.4-55.3c-1-3.2-2.2-4.7-6.3-3.8c-3.9,0.9-8.3,0.2-12.4-0.3c-8-1.1-15.8,1.7-23.7,1.4c0,0,0.1,0.1,0.1,0.1
	c-1.6-3.3-0.5-4.6,3-4.4c8.6,0.4,17.3-0.1,25.9,1.1c4.6,0.6,9.2,0.5,13.5-2.5c-14.1-2.1-28.2,1.6-42-2.5c3.4-1.4,7-0.9,10.5-0.7
	c3.8,0.3,7.6,0.4,11.5,0.4c3.5,0,6.9-0.4,11.1-2C684,109.5,672,103,659,99c-35.4-10.9-71.2-20.1-108-25.2
	C539.4,72.2,527.9,69.6,516,69.1z"/>
<path id="XMLID_2373_" class="st0" d="M508,213.5c-1.1-0.2-2.2-0.4-3.2,0.6c-4.2,3.9-9.6,3.6-14.7,4.2c-2.1-0.2-1.1-6.1-4.8-2.9
	c-4.7,3.9,0.8,4.1,2.4,5.6c1.3,2.1,0.9,4.2-1.4,4.9c-8.8,2.6-17.6,5.8-27,3.4c0.5-5.5,5.9-5.3,9.2-7.6c2.5-1.8,6.2-2.3,6.6-6.3
	l-0.1,0.1c5.1-2.7,8.8-6.7,9.9-12.4c1.3-6.7,5.2-11.9,9.1-17c0.6-0.8,1.7-1.3,2,0.4c-0.1,0.1-0.3,0.2-0.4,0.3
	c0.1,0.1,0.3,0.4,0.3,0.4c0.4-0.2,0.4-0.5,0-0.7l0.3-0.2c0,0-0.1-0.3-0.1-0.3c3.5,1.4,7.4-0.8,10.8,1.1c0.4,0.2,0.7,0.3,1.1,0.5
	c4.5,2.4,5.1,6.4,4.7,11c-0.1,1.3-2,3.1,0.7,4l0,0c-1.8-0.6-1.2,0.7-1.3,1.5c-1.4,1.9-0.9,4.5-3,6.6c3.3-0.5,6.1-0.8,8.9-1.2
	c7.8-1.4,15.6-2.8,23.3-4.3c5.6-1.1,9.4-4.7,9.6-8.9c-0.1-1-0.2-2.1-0.3-3.1c0.1-0.1,0.3-0.2,0.3-0.3c-0.1-0.2-0.2-0.5-0.3-0.7
	c2.1-1.8,1.9-4.4,2.1-6.8c1.5-6.6,3.3-13.1,3.3-20c0.2-1.3,0.4-2.7,0.6-4c1-5.2,1.9-10.4,3.1-15.6c1.2-5.5,0.2-10.8-1.6-15.9
	c-0.7-2-2.2-2.8-4.3-2.6c-6,0.8-12.3,0.9-16.1,6.8c-0.4-0.4-0.8-0.8-1.2-1.1c0.4-0.9,1.3-1.9,1.1-2.5c-0.4-1.1-1.7-0.5-2.6-0.4
	c-6.6,1-12.7,3.5-19,5.6c-2.8,0.9-4.5,2.6-4.2,5.8c0.1,0.9-0.1,2.1-0.6,2.9c-0.8,1.4-1.9,2.7-2.9,3.9c0,0.1-1-0.4-1.1-0.7
	c-0.8-1.8,1.3-2.4,1.8-3.8c0.3-0.9,1.2-1.6,0.5-3.1c-3.6,2.9-6.5,6.1-7.6,10.7l0.1-0.1c-3.8,3.1-4.5,7.9-7.2,12
	c3.6,0.1,4-4.6,7.9-3.6c-4.7,5.4-9.3,10.5-13.7,15.8c-2.6,3.1-4.6,6.5-4.1,10.8c0.4,0.2,0.7,0.3,1.1,0.5c-4.9,4.6-8,10.4-10.8,16.5
	c-0.5,1.1-1.1,2.9-2.8,2.2c-1.5-0.7-0.3-1.9,0.2-2.9c10.4-20.2,19.4-41.2,31.1-60.7c3.1-5.2,9.3-8.1,15.3-10.4
	c11.6-4.4,24.2-4.5,36-7.7c2.9-0.8,3.9,1.4,4.9,3.2c3.8,7,3.9,14.3,2.4,22.1c-2.8,13.8-5,27.8-7.4,41.7c-0.2,0.9-0.8,1.9,0.6,2.5
	c2.8,1.1,0.9,2.7,0.2,3.9c-4,6.3-9.8,10.2-17.2,11.1c-9.2,1.2-18.1,4.5-27.5,4.6C509.9,212.7,508.9,213.2,508,213.5z M478.4,217.5
	c-3.7,4.3-8.9,6.4-13.6,9.4c7,0.3,13.5-1.5,20.5-3.4c-2.3-2.4-6-1.4-6.1-5c0.7-0.6,1.7-1.3,0.7-2.1
	C479.2,215.7,478.8,217,478.4,217.5z M487.2,204.6c3.5-2.4,5.3,0.4,6.3,2.4c0.8,1.8-1.5,3.4-3.4,4c-2.2,0.7-2.1,1.4-0.7,3
	c2.4,2.5,5.4,2.6,8.2,1.8c8-2.4,14.3-13.9,12.4-22c-0.4-1.7-1.1-3.2-2.9-3.6C496.9,187.9,489.1,192.1,487.2,204.6z"/>
<path id="XMLID_2372_" class="st0" d="M582,161.4c-1.2,3.3-4.8,5.6-4.2,9.5c0.3,1.6-3,4.4,1.5,5c1,0.1-0.2,1.7-0.7,2.4
	c-2,2.9-2.1,6.1-2.2,9.4c-0.1,1.9,0.7,1.9,2,1c0.3,0.3,0.6,0.6,0.9,0.9c-0.5,0.8-1,1.7-1.6,2.5c-1,1.4-2.3,2.8-4.1,2
	c-1.7-0.8-0.9-2.7-0.7-4.1c2.3-17.3,4.7-34.6,7.1-51.8c1.8-12.8,6.9-16.1,20.1-16.2c13.3-0.1,26.4,2.5,39.6,2.8
	c8.4,0.2,14.1,4.6,13.4,14.1c-0.7,9-2.7,17.7-4.6,26.5c-1.6,7.1-3.2,14.3-3.7,21.6c-0.3,4.2-3.8,6-6.8,6.5
	c-16.3,2.8-32.8,5.1-49.2,7.5c-4.1,0.6-8.2,0.6-12.3-0.6c-1.2-0.4-2.2-0.8-2.4-2.1c-0.1-0.6,0-1.6,0.3-1.8c1.3-0.8,2.1,0.6,2.9,1.2
	c2.8,1.9,6.2,2.2,9,1.4c9.6-2.8,19.5-3.3,29.3-4.7c4.4-0.7,8.7-2.2,13.2-2.7c3.3-0.4,2.8-4.6,5.8-4.8c0.3,0.3,0.6,0.6,0.9,0.9
	c-0.5,0.8-1.9,1.3-1.5,2.3c0.5,1.3,1.7,0.5,2.6,0.3c2.7-0.7,4.6-1.9,5.1-5.2c2.2-15.9,7.6-31.3,8.3-47.5c0.3-6.3-2.5-8.8-8.7-9.3
	c-10.9-0.9-21.8-2.5-32.7-3.2c-6.2-0.4-12.6-1.1-18.7,1.1c-3.3,1.2-5.4,2.9-6.5,6.7c-2.5,8.7-2,17.7-3.8,26.5
	C579.2,161.6,580.7,161.6,582,161.4C582.1,161.5,582,161.4,582,161.4z"/>
<path id="XMLID_2371_" class="st0" d="M438.5,310.5c0.1,0.6,0.2,1.1,0.2,1.7c0,2.4-2.9,4.5-0.5,7c-2.8,11.8-1.6,24-4.1,35.9
	c-0.5,2.3,0.6,2.7,2.4,2.1c8.7-2.9,18-3.5,26.5-7c3.9-1.6,8-1.6,11.9-2.4c20.8-3.9,41.6-7.8,62.5-11.4c6.7-1.2,11.5-3.2,13.1-10.9
	c4.1-19.8,11.3-39,12.7-59.4c0-0.7-0.2-1.6,0.1-1.9c1.2-1.1,0.1-4.1,2.1-3.7c2.7,0.4,0.7,2.6,0.6,4c-1.6,22.2-10.1,43-13.6,64.8
	c-1.1,6.8-4.1,7.1-8.4,8c-14.3,3.2-28.7,5.4-43.1,7.7c-14.2,2.3-28.3,5.6-42.3,9c-7.7,1.9-15.6,2.8-23,5.8c-1.9,0.8-5.3,0.6-4.3-3.2
	c2.6-9.6,2.9-19.4,3.5-29.1c0.9-14.1,3-27.9,5.4-41.8c0.7-4.1-1-8.7,2.7-12.4c2.1,4.2,0.9,8-0.6,11.9
	C441,293.7,439.7,302.1,438.5,310.5z"/>
<path id="XMLID_2368_" class="st0" d="M682.4,130.5c1.3,0,2.7,0,4,0c8.9,0,13.1,5.4,15.9,13.1c3.8,10.8,5,22,7.1,33.1
	c0.3,1.3,0.7,2.7,0.4,3.9c-0.5,1.9,2.7,3.1,0.9,4.9c-2.1,2.1-3.9,4.7-7,5.4c-11.8,2.8-23.7,5.3-35.8,6.3c-4.9,0.4-8.6-4.6-7.8-9.3
	c2.2-12.4,4-24.9,6-37.3c0.6-3.9,1.5-7.8,3.1-11.5C671.8,132.6,675.4,130.2,682.4,130.5z M677.6,171.7c-2.8,1.9-5.5,3.9-8.3,5.6
	c-4.8,3-6.5,6.9-6,12.7c0.3,4.2,2.7,4.3,5.1,4.1c10.9-1.1,21.7-3.3,32.4-5.6c4.4-1,6.2-3.5,5.9-7.8c-0.9-11.8-3-23.4-6.7-34.7
	c-3.6-10.8-5.8-12-17.3-12.7c-4.4-0.3-7,1-9.5,4.6c-3.8,5.6-4.2,12.1-5.7,18.3c-0.9,3.9-0.6,6.1,4.1,6.9c3.6,0.5,7.1,1.6,10.7,2.2
	c2.9,0.5,6.1,1,8.1,5.6c-5.2-2.4-9.5-4.2-14.1-4.4c-3.4-0.1-7.2-4.6-9.8-0.8c-1.8,2.7-1.3,7.1-1.7,10.7c0,0.2,0.3,0.5,0.6,1
	C669.3,175.4,672.8,172.3,677.6,171.7z"/>
<path id="XMLID_2367_" class="st0" d="M488.3,263.1c3.7-3.1,8.3-2.2,12.5-2.9c12.6-2.2,25.4-3.5,38.1-5.3c8.1-1.2,16.4-2.1,24.4-4.7
	c3.3-1.1,4.5-2.7,5-5.7c1.8-11.7,1.5-23.2-2.2-34.5c-0.4-1.2-2-3,0.5-3.6c2-0.5,1.4,1.8,1.8,2.8c5.7,15.5,4.3,31-0.2,46.4
	c-0.8,2.8-5,3.7-8.1,3.8c-11.8,0.6-23.3,3.3-35,4.4c-23.9,2.4-47.5,7-71.2,10.3c-1.4,0.2-2.9,0-4.6,0c0.4-2.3,2.3-1.8,3.5-2
	c16.2-1.9,32.1-5.7,48.2-7.8c16-2.1,32-4,47.9-6.1c3.6-0.5,7.1-1.7,10.8-1.4c2.8,0.2,4-1.7,5.3-4.2
	C539.2,257.2,513.8,260.2,488.3,263.1z"/>
<path id="XMLID_2366_" class="st0" d="M380.1,279.7c0.6-0.1,1.3-0.3,1.9-0.4c14.6-2.2,29.4-3.6,43.9-6.9c0.5,0.8,0.9,1.3,1.5,0.1
	c2,0.2,4.1,0.4,6.1,0.6c0,0.2,0,0.4,0,0.5c-16.7,2.7-33.3,5.4-50,8.1c0.1,0.5,0.1,1,0.2,1.5c17.4,1,34-4.9,51.1-6.7
	c-12.5,4.9-26,5.5-38.8,9.1c-0.3,0-0.7,0-1,0c-11.4-1.1-22.5,2.5-33.9,2.5c5.1-3.7,11.8-1.3,17-4.9c-9.8,1-19.7,1.8-29.4,3.1
	c-6.4,0.9-12.7,2.4-18.9,3.9c-1.7,0.4-2.8-0.5-4.2-0.7c11.6-3.6,23.5-6.3,35.7-6.7c3.7-0.1,7.2-1,10.8-1.6
	C374.7,280.6,377.4,280.1,380.1,279.7z"/>
<path id="XMLID_2365_" class="st0" d="M429,401.5c0,5.6,0,11.3,0,16.9c0,1.5,0.3,3.3-2,3.2c-1.9-0.1-1.7-1.7-1.8-3
	c0-0.3,0.1-0.7,0-1c-0.6-1.8,1.6-5-1.7-5.3c-2.6-0.3-3.6,2.5-4.2,4.8c-0.6,2.2-1,4.5-1.3,6.8c-0.2,1.5-0.5,2.6-2.1,2.9
	c-1,0.2-2.2,0.4-2.7-0.6c-0.6-1-0.3-2.2,0.1-3.4c4-11.9,7.4-23.9,9.8-36.2c0.4-2.3,1.6-4.3,3.3-4.3c2.7,0,1.6,2.6,1.6,4.3
	c0,5,0,10,0,14.9C428.3,401.5,428.7,401.5,429,401.5z"/>
<path id="XMLID_2362_" class="st0" d="M546.2,371.8c-0.9,8.6-5.2,16.3-14.2,21.1c-1.6,0.9-2.4,0-3.5-0.7c-1.5-1-2-2.4-1.3-3.9
	c4-9,3.2-18.9,5.5-28.3c0.8-3.2,2-3.2,4.4-2.8C542.2,358.2,546.2,364,546.2,371.8z M533.4,386.2c0.4,0.2,0.8,0.3,1.2,0.5
	c1.2-1.6,2.5-3,3.4-4.7c1-2.1,1.2-4.6,2.4-6.5c3.6-5.2,2.8-10.9-2.4-14.4C536.5,369.5,534.9,377.9,533.4,386.2z"/>
<path id="XMLID_2361_" class="st0" d="M411.2,396.4c-0.2-5.2-0.5-5.4-5.2-3.4c-1.4,0.6-2.7,1.3-4.1,1.9c-2.4,1.1-3.6-0.9-4.4-2.3
	c-1.1-1.9,1.2-1.9,2.2-2.4c2.9-1.5,6-2.7,8.9-4.4c3.7-2.2,7.6,0.4,6.8,4.4c-2,9.7-1.9,19.5-3.5,29.2c-1,6.4-3.8,9.2-8.7,8.5
	c-4.2-0.6-6.4-4.4-9.5-6.6c-1.2-0.9,0.1-2.6,0.7-3.6c0.6-0.9,2.2-0.8,3.2-0.1c1.5,1,2.9,2.3,4.3,3.4c3.6,3,4.9,2.7,5.8-2
	C409.1,411.6,410,404,411.2,396.4z"/>
<path id="XMLID_2360_" class="st0" d="M445.5,384.6c-2.4,0.9-3.9,1.4-5.4,2c-1.5,0.6-2.6,0.2-3.5-0.9c-0.8-0.9-1.5-2-1-3.1
	c0.6-1.4,2.2-1.7,3.4-1.4c3.4,1.1,5.5-2.3,8.4-2.2c1.5,0,3.1-1.5,4.2-0.2c1.3,1.4,0.1,3.1-0.5,4.6c-3.4,8.5-7.4,16.7-10.1,25.5
	c-0.4,1.4-1.3,2.7-0.8,4.3c2,0.2,3.3-0.9,4.6-1.8c1-0.7,1.9-0.6,2.7,0.2c0.6,0.6,0.6,1.4,0.2,2.3c-1.7,4.3-7.9,8.1-12.1,7.3
	c-2.2-0.5-3.7-1-2.1-4.2C438.3,406.8,441.4,396.1,445.5,384.6z"/>
<path id="XMLID_2359_" class="st0" d="M508.8,387.1c1.3-7.8,2.7-15.7,3.9-23.5c0.3-1.6,0.9-2.5,2.5-2.3c2.6,0.3,2,2.4,1.7,3.9
	c-1.6,7.1-2.5,14.3-2.8,21.6c-0.1,1.3-1.8,3.1,0.5,3.7c1.8,0.5,3.2-1.1,3.7-2.6c1.2-3.5,2.4-7.1,2.9-10.8c0.7-5.8,2.7-11.3,2.8-17.2
	c0-1.5,0.8-3.1,2.7-2.8c1.1,0.1,1.5,1.2,1.2,2.3c-2.2,10.2-4.3,20.4-6.5,30.6c-0.9,4.1-3.6,7.9-7.6,7
	C509.5,396,508.7,391.4,508.8,387.1z"/>
<path id="XMLID_2356_" class="st0" d="M560.6,361c1,7.2,1.2,15,0.9,22.7c-0.1,1.6,0.5,4-1.6,4.1c-2.8,0.2-1.7-2.6-2-4.1
	c-0.1-0.6,0.1-1.3,0.1-2c0-1.8,1.5-5-0.7-5c-1.9-0.1-5.2,1.1-6,4.1c-0.6,1.9-0.9,3.9-1.6,5.8c-0.5,1.5-1.6,2.1-3.1,1.5
	c-1.4-0.6-1.4-1.7-0.9-2.9c4.6-10.3,5.3-21.6,9.3-32c0.4-0.9,0.4-2.1,1.6-2.3c1.4-0.1,1.1,1.7,1.6,2
	C561.6,354.6,561.1,357.5,560.6,361z M556.3,367.6c-1.2,1.5-2.7,3-1.9,5c0.3,0.8,1.2,0.2,1.7-0.1
	C558.3,371.1,556.9,369.3,556.3,367.6z"/>
<path id="XMLID_2355_" class="st0" d="M596.4,358.7c1.6,5.1-3.1,11.7,0.4,18.2c0.6,1.2-0.1,2.8-1.9,2.7c-1.7-0.1-3.5-0.4-3.6-2.6
	c0-1.5,0.5-3,0.5-4.4c0-1.2,0.7-3.1-1-3.4c-1.5-0.3-3.3,0.4-3.9,2.3c-0.8,2.9-1.5,5.8-2.3,8.7c-0.4,1.6-1.2,3-3.1,2.5
	c-1.8-0.5-2.1-2.2-1.3-3.6c5-8.8,5.7-19,9.5-28.2c1-2.4,1.5-6.2,4.6-5.6c3.2,0.6,1.7,4.4,2,6.8C596.5,353.8,596.4,355.6,596.4,358.7
	z"/>
<path id="XMLID_2354_" class="st0" d="M463.6,381.9c-1.8,0.3-3,2.5-5,1.7c-1.2-0.5-0.7-2.1-0.6-3.2c0.2-2.2,10.5-8.4,12.4-7.3
	c2.3,1.3,1.5,3.5,0.6,5.2c-2.5,4.7-4.2,9.8-5.9,14.8c-1.7,4.8-3.6,9.6-5.4,14.5c1.3,1.2,2-0.4,2.9-0.7c1.4-0.5,2.6-1.7,4.1-0.5
	c0.7,0.6,0.6,1.6,0.3,2.3c-0.7,1.6-1.2,3.7-3.5,3.5c-2.4-0.3-4.1,0.7-5.8,2.1c-0.9,0.8-1.8,2.1-3.4,1c-1.6-1.1-1.4-2.3-1-3.9
	c1.6-6.5,5.2-12.2,7.3-18.5c1.2-3.4,2.7-6.8,4.1-10.2C465,381.6,464.9,380.9,463.6,381.9z"/>
<path id="XMLID_2351_" class="st0" d="M340.1,292.3c-1.5-0.1-2.6,0.7-3.6,1.7c0,0-0.1,0.1-0.1,0.1c0-0.5-0.3-0.7-0.8-0.6
	c0,0-0.1,0-0.1,0c-8.4-1.2-15.8,3.2-23.8,4c-11.9,1.3-23.4,5.1-35.5,4.6c-1.4-0.1-3.3,0.7-3.6-1.5c-0.3-2.1,1.6-2.1,3-2.5
	c2.4-0.8,4.8-1.5,7.2-0.3c1.6,0.8,2.9,0.1,4.2-0.5c10.1-5.1,20.8-6.5,32-5.5c5.1,2.6,9.5-1.6,14.4-1.3c6,0.4,11.9-2.5,18.7-1.3
	C348.2,292.7,343.6,290.5,340.1,292.3z M292.3,297.6c8.5-0.7,17.1-1,25.2-4.2C308.8,293.2,300.5,295,292.3,297.6z"/>
<path id="XMLID_2350_" class="st0" d="M498.3,368.8c-0.8,7.2,1.3,13.3,4.9,18.7c1.8,2.7,1.6,5.6,2.4,8.3c0.7,2.3-1.5,4-3.2,5.2
	c-2.8,2.2-10.2,1.4-12.7-1.1c-1.5-1.5-2.4-3.2-0.7-5.2c2.1-2.5,3-0.1,4.2,0.9c0.6,0.5,1.1,1.3,1.7,1.8c1.7,1.2,3.5,2,5.4,0.5
	c2-1.5,1.8-3.3,0.8-5.3c-2.5-5.2-5.3-10.4-7.4-15.8c-2.6-6.6,0.9-12.3,7.3-12.6c2.8-0.2,4.9,0.9,6.4,3.1c0.9,1.5-0.9,1.6-1.6,2.3
	c-2.4,2.5-4.2,1.8-6.1-0.4C499.7,369.1,499.3,369.1,498.3,368.8z"/>
<path id="XMLID_2348_" class="st0" d="M573.8,381.1c1.3-0.4,3.5-1.4,3.9,0.8c0.4,2.1-2.3,2.6-3.9,3.1c-3.7,1.2-7.6-1.5-7.7-5.5
	c-0.2-7.6,0.3-15.3,2.8-22.6c1.6-4.7,5-7.7,9.8-9.1c1.4-0.4,2.7-0.2,3.3,1.3c0.6,1.6,0.3,3.3-1.4,3.8c-7.2,1.8-8.4,7.7-9.2,13.6
	c-0.5,3.8-0.7,7.6-0.9,11.4C570.6,379.9,570.8,381.8,573.8,381.1z"/>
<path id="XMLID_2346_" class="st0" d="M518.6,159.9c2.4-2.8,6-5.2,3.8-9.7c5.2-1.9,5.1-7.8,8.5-11c2-1.9,3.3-4.6,5.7-6.2
	c0.4,0.4,0.8,0.8,1.2,1.1c-3.9,5-8.5,9.5-10.4,16c8.1-1.2,16.1,0,23.3-4.4c1.3-0.8,4.4-4.2,5.5-0.4c0.8,2.8-3.3,2.3-5.2,3.2
	c-5.8,2-11.6,2.9-17.8,3.4c-8.6,0.7-10.3,3.6-9.9,13.2c2.5-0.1,2.5-4.1,5.9-3.8c-2.4,3.9-5.2,6.9-9.1,8.6l0.2,0.1
	c-0.5-1.9,0.3-3.8,0.4-5.7c-0.3-1.1,1.7-3.1-1.1-3.4C519.3,160.6,519,160.3,518.6,159.9z"/>
<path id="XMLID_2345_" class="st0" d="M553.6,332.7c21.1-4.8,41.4-9.3,61.7-14c2.1-0.5,4.1-1.3,6.1-2c1.4-0.5,2.3-0.1,2.6,1.3
	c0.2,1.3-0.1,2.2-1.7,2.4c-14.7,1.4-28.5,7.3-43.3,9c-6.7,0.8-13.3,2.8-19.9,4.3C557.3,334.1,555.6,334.6,553.6,332.7z"/>
<path id="XMLID_2344_" class="st0" d="M539.2,236.6c4.2-0.8,8.5-1.6,12.7-2.2c2.7-0.4,5.7-1.5,8.1,0.4c1,0.8,3.6,1.1,2.9,2.7
	c-0.8,2-1.2,4.7-3.8,5.4c-4.7,1.1-9.4,1.9-14.1,2.8c-1.7,0.3-3.6,0.4-4-1.8c-0.4-2.2,1.5-2.8,3.1-3.1c2.7-0.6,5.2-1.5,8.2-0.3
	c2.2,0.9,5,0.5,7-1.3c0.4-0.3,1-1,0.4-1.6c-2.1-1.9-4.6-1.5-7.1-1.1c-4.1,0.7-8.1,1.6-12.2,2.4c-1.9,0.4-3.6,1.2-4,3.2
	c-0.5,2.6,2.5,1.4,3.4,3c-1.4,2-3.3,1.6-4.6,0.4c-2-2-1.6-4.5-0.3-6.9C536.5,238,537.8,237.3,539.2,236.6z"/>
<path id="XMLID_2343_" class="st0" d="M443.6,256.3c-0.6-0.9-0.6-2-0.5-3c1.7-0.9,3.8-1.4,4-3.8c0.4-4.2,2.8-8,2.7-12.3
	c0.6-1.4,0.4-3.9,2.8-3.2c2.3,0.6,0.6,2.5,0.5,3.8c0,0.8-0.1,1.7-0.2,2.5c-0.9,3-1.9,5.9-2.8,8.9c-0.2,0.6-1.2,1.8,0,2
	c5,0.7,2.3,4.1,2.5,6.4c0.2,3.8-2.1,7.1-2.6,10.8l0.1-0.1c-2.9,0.4-5.4,3.3-10.1,0.6c6.3-0.5,9.2-3.5,9.8-8.6c0-0.7,0-1.3,0-2
	c0.2-1.4,1.5-3.1-0.2-4c-1.4-0.8-2.9-0.1-3.6,1.6C445.5,257.2,444.5,257,443.6,256.3z"/>
<path id="XMLID_2342_" class="st0" d="M614.9,189.2c-0.2,1.6-0.4,3.8-2.6,3.4c-1.7-0.3-1.4-2.4-1.2-3.8c3.6-18.4,2.4-37.3,6.5-55.5
	c0.4-1.7-2.4-5.2,1.1-4.9c3.1,0.3,0.1,3.2,0,4.8c-0.2,8.9-2.1,17.8-1.8,26.8c0,1.3-1.8,3.8,1.5,4c0.4,0.3,0.7,0.6,1.1,0.9
	c-3.1,2.1-4.4,5.1-4.3,8.8C615.5,178.9,613.3,184,614.9,189.2C615,189.3,614.9,189.2,614.9,189.2z"/>
<path id="XMLID_2339_" class="st0" d="M641.6,222.3c2.9,0.2,6.6,0.8,7.3,2.8c1.1,3.3-2.5,4.7-5.2,5.9c-5.2,2.4-10.6,2-15.9,0.7
	c-1.2-0.3-1.7-1.5-1.7-2.8c0.1-1.8,1.2-3.2,2.9-3.6C633.2,224.3,637.4,223.3,641.6,222.3z M632.5,228c5.2-0.5,9.2,1.3,12.8-1.3
	C641.2,224.8,639,225,632.5,228z"/>
<path id="XMLID_2338_" class="st0" d="M461.1,265.2c0.3-0.1,0.7-0.2,1-0.3c6.6-0.5,13.3-2,19.9-1.4c0.3,1.8-0.8,1.7-1.5,1.7
	c-9,0.2-17.8,1.7-26.4,4.4c-1.3,0.4-3.9,2.5-4.1-1.4c0,0-0.1,0.1-0.1,0.1C453.9,268.1,457.4,266.3,461.1,265.2z"/>
<path id="XMLID_2337_" class="st0" d="M620.5,149.2c6.1,2,11.3,3.4,16.7,3.4c1.7,0,2.9,0.7,3.5,2.2c0.2,0.4-0.3,1.3-0.7,1.7
	c-1.4,1.3-2.2-0.2-3.3-0.6c-3.3-1.1-6.7-1.7-10-2.5C624.5,152.8,622.1,152.6,620.5,149.2z"/>
<path id="XMLID_2335_" class="st0" d="M431.7,252.1c-0.9,0.3-1,2.5-2.7,1.2c0.2-0.6,0.3-1.2,0.5-1.8c3.2-4.4,6.3-8.9,9.5-13.3
	c0.6-0.2,1.5-0.6,1.8-0.4c1,0.9,0.1,1.6-0.5,2.4C437.4,244.2,434.6,248.2,431.7,252.1z"/>
<path id="XMLID_2334_" class="st0" d="M635.7,160.2c-3.5,5.9-9.6,9-14.1,13.7C625,168.1,630.6,164.4,635.7,160.2z"/>
<path id="XMLID_2333_" class="st0" d="M597.5,155.7c-0.9,6-6.3,8.5-10.1,12.2C588.4,162,594.4,160,597.5,155.7z"/>
<path id="XMLID_2332_" class="st0" d="M625.7,187.9c3.9-4.3,7.8-8.6,12-13.3C637.3,178.4,631.4,185.6,625.7,187.9z"/>
<path id="XMLID_2331_" class="st0" d="M633.2,170.7c2.7-3.3,6.7-5.4,8.6-9.4c0.3-0.7,1-1.1,1.6-0.7c1.1,0.8,0.6,1.7,0,2.6
	c-2.6,3.2-5.5,6.1-9,8.4C634,171.3,633.6,171,633.2,170.7z"/>
<path id="XMLID_2330_" class="st1" d="M573.4,142.3c0-4.6,0-9.3,0.1-13.9C575.7,131.8,575.7,138.9,573.4,142.3z"/>
<path id="XMLID_2328_" class="st0" d="M475,215.2c-4.7-0.5-6-2.7-3.9-8.4C471.3,210.9,475.8,211.6,475,215.2
	C475,215.3,475,215.2,475,215.2z"/>
<path id="XMLID_2327_" class="st0" d="M526.2,134.1c-0.9,4.4-1.7,8.2-2.7,12.7C521.3,142.8,522.4,137.7,526.2,134.1z"/>
<path id="XMLID_2325_" class="st0" d="M427,257.3c-0.1,0.6-0.3,1.2-0.4,1.8c-2.6,1.8-3.4,5.6-7.4,5.8
	C422.4,262.9,422.3,257.9,427,257.3z"/>
<path id="XMLID_2324_" class="st0" d="M599.8,176.1c2.4-3.6,5.6-6.4,9-9c0.3,0.3,0.5,0.5,0.8,0.8c-0.5,0.8-1.1,1.6-1.6,2.5
	c-0.4,0.3-0.8,0.6-1.3,0.8c-2.1,2-4.1,4-6.2,5.9C600.3,176.8,600,176.4,599.8,176.1z"/>
<path id="XMLID_2323_" class="st0" d="M620.7,162c2.5-2.9,5-5.8,9.9-6.9c-2.4,4.4-6.1,5.7-9.1,8C621.3,162.7,621,162.3,620.7,162z"
	/>
<path id="XMLID_2321_" class="st0" d="M603.1,162.8c2.8-2.6,5.5-5.2,8.3-7.8c-0.8,4.2-4.2,6.2-7.1,8.5
	C603.9,163.3,603.5,163,603.1,162.8z"/>
<path id="XMLID_2320_" class="st0" d="M590.2,145.9c-1.5,2.7-4.1,3.5-4.4,6.1c-0.1,1.2-1.6,1.5-2.3,1.2c-1.1-0.5-0.8-1.8-0.2-2.6
	C584.9,148.5,586.7,146.5,590.2,145.9z"/>
<path id="XMLID_2318_" class="st0" d="M390.8,305.3c2.5-1.8,2.5-5.7,6.6-7.3c-1.5,4.1-3.5,7-6,9.6c-0.4-0.4-0.8-0.8-1.2-1.2
	C390.4,306.1,390.6,305.7,390.8,305.3z"/>
<path id="XMLID_2316_" class="st1" d="M330.8,457.9c2.7-1.7,5.4-3.5,8.1-5.2C336.9,457.4,334.1,459.2,330.8,457.9z"/>
<path id="XMLID_2315_" class="st0" d="M604.3,183.6c-2.1,2.2-4.1,4.4-6.2,6.6c0.3-3.8,3.1-5.5,5.2-7.7
	C603.7,182.9,604,183.3,604.3,183.6z"/>
<path id="XMLID_2314_" class="st0" d="M597.8,169.8c-1.9,2.5-4.2,4.3-7.9,6.9c1.8-4.3,4.6-5.7,6.8-7.8
	C597,169.2,597.4,169.5,597.8,169.8z"/>
<path id="XMLID_2313_" class="st0" d="M597.3,179.2c-1.7,4.1-2.9,5.5-6.7,8.3C592,183.4,594.7,181.3,597.3,179.2z"/>
<path id="XMLID_2312_" class="st0" d="M501.9,151.4c0.5-0.1,1,0,1.4-0.2c1.5-0.5,3.1-1.6,4.4,0.2c0.5,0.7,0.2,1.8-0.8,1.9
	c-1.9,0.1-4.4,1.6-4.9-1.9C502,151.3,501.9,151.4,501.9,151.4z"/>
<path id="XMLID_2311_" class="st1" d="M539.2,236.6c-1.4,0.7-2.7,1.3-4.1,2c-0.3-1.3-1.9-2.9-0.1-3.9
	C536.7,233.9,538.1,235.3,539.2,236.6z"/>
<path id="XMLID_2309_" class="st0" d="M589.2,155.5c-1.8,2.7-5,3.7-7.2,5.8c0,0,0.1,0.1,0.1,0.1c0.8-3.5,4-4.8,6.3-6.9
	C588.7,154.9,589,155.2,589.2,155.5z"/>
<path id="XMLID_2308_" class="st0" d="M603,194.2c0.5-1.6-2.1-3.6,0.3-4.7c0.9-0.4,2,0.3,2.3,1.3C606.3,192.9,604.6,193.4,603,194.2
	z"/>
<path id="XMLID_2306_" class="st0" d="M630.9,174.7c-1.9,1.6-3.7,3.3-5.6,4.9c-0.4-0.3-0.8-0.6-1.1-0.9c1.8-1.6,3.6-3.2,5.5-4.8
	C630.1,174.2,630.5,174.5,630.9,174.7z"/>
<path id="XMLID_2305_" class="st1" d="M417.8,286.2c1.9-0.8,3.3-0.2,5,1.2C420.4,288.6,419.1,287.3,417.8,286.2z"/>
<path id="XMLID_2304_" class="st0" d="M590.7,152.9c0-0.9-0.6-2.1,0.5-2.7c1.2-0.7,2.7-2.1,3.9-0.9c1.2,1.3-0.5,2.3-1.4,3.1
	c-0.6,0.5-1.3,1-2,1.5C591.3,153.6,591,153.2,590.7,152.9z"/>
<path id="XMLID_2300_" class="st1" d="M534.9,212.2c-1.2,2.6-2.4,2.9-4.2,2.8C531.2,212.5,533,213.3,534.9,212.2z"/>
<path id="XMLID_2299_" class="st0" d="M608.8,167.1c0.3-0.5,0.6-1.2,1.1-1.5c0.8-0.5,1.6-2.4,2.6-1c1,1.4-0.4,2.2-1.6,2.7
	c-0.4,0.2-0.8,0.5-1.2,0.7C609.3,167.6,609.1,167.4,608.8,167.1z"/>
<path id="XMLID_2297_" class="st1" d="M437.4,269.1c-0.1,1.2-0.9,1.4-1.6,1.6c-0.3,0.1-1-0.3-1.1-0.5c0-1,0.8-1.2,1.6-1.4
	C436.6,268.7,437,269,437.4,269.1z"/>
<path id="XMLID_2296_" class="st0" d="M579.7,187c0.5-1.1,1.2-2.1,2.6-2.2c0.4,1.8-1,2.4-1.7,3.3C580.3,187.7,580,187.3,579.7,187z"
	/>
<path id="XMLID_2293_" class="st0" d="M618.4,186.7c-0.5,1.8-1.5,2.8-3.5,2.6c0,0,0.1,0.1,0.1,0.1c0.5-1.6,1.1-3.2,2.6-4.2
	C617.9,185.7,618.1,186.2,618.4,186.7z"/>
<path id="XMLID_2292_" class="st0" d="M429.1,253.3c1,2.2-0.7,3-2,4C426,255.1,427.6,254.2,429.1,253.3z"/>
<path id="XMLID_2291_" class="st0" d="M350,437.6c-0.2,0.9-0.6,1.5-1.6,1.4c-0.7-0.1-1.4-0.3-1.1-1.2c0.2-0.5,0.9-0.8,1.5-1.1
	C349.6,436.4,350,436.7,350,437.6z"/>
<path id="XMLID_2289_" class="st1" d="M309,462.7c1,0,2,0,2.9,0C311,464.5,310,464.6,309,462.7z"/>
<path id="XMLID_2287_" class="st0" d="M506,173.2c1.3,2.3,0,2.9-2,3.1C503.6,174.6,505.1,174.1,506,173.2z"/>
<path id="XMLID_2286_" class="st0" d="M502.1,179.3c-0.9,0.9-1,3-3.1,2C499.7,180.1,500,178.4,502.1,179.3z"/>
<path id="XMLID_2285_" class="st0" d="M605.4,180.7c0.5-0.7,1.3-2.2,2-1.5c1.3,1.2-0.2,1.8-1.2,2.4C606,181.3,605.7,181,605.4,180.7
	z"/>
<path id="XMLID_2284_" class="st0" d="M603.4,182.5c0.7-0.6,1.3-1.2,2-1.9c0.3,0.3,0.6,0.6,0.9,0.9c-0.3,1-1,1.7-2,2.1
	C604,183.3,603.7,182.9,603.4,182.5z"/>
<path id="XMLID_2283_" class="st0" d="M590.3,186.5c0.4,0.6,0.8,1,0.7,1.2c-0.3,0.5-0.7,1.1-1.1,1.5c-0.6,0.6-1-0.3-1-0.4
	C589.2,188.1,589.7,187.5,590.3,186.5z"/>
<path id="XMLID_2282_" class="st1" d="M496.4,257.4c-0.3,0-0.5,0.1-0.8,0c0,0-0.1-0.3-0.1-0.4c0.3,0,0.5-0.1,0.8,0
	C496.4,257,496.4,257.3,496.4,257.4z"/>
<path id="XMLID_2279_" class="st0" d="M588.4,154.6c0.7-0.6,1.5-1.1,2.2-1.7c0.3,0.3,0.6,0.7,0.9,1c-0.8,0.5-1.5,1.1-2.3,1.6
	C589,155.2,588.7,154.9,588.4,154.6z"/>
<path id="XMLID_2278_" class="st0" d="M599.8,155.4c-0.1-0.1-0.1-0.1-0.1-0.2c-0.1,0.2-0.3,0.5-0.4,0.7c0,0,0.2,0.1,0.2,0.2
	C599.6,155.9,599.7,155.6,599.8,155.4z"/>
<path id="XMLID_2277_" class="st0" d="M500.3,170.7c0.8-0.7,1.4-2.6,2.6-1.4c0.8,0.7-0.6,1.8-1.7,2.2
	C500.9,171.3,500.6,171,500.3,170.7z"/>
<path id="XMLID_2276_" class="st0" d="M498.1,183.3c-0.7,0.8-1.4,1.7-2.1,2.5c-1-0.5-0.8-1.1-0.3-1.8
	C496.4,183.3,497,182.5,498.1,183.3z"/>
<path id="XMLID_2275_" class="st0" d="M492.2,180.5c-0.7,0.8-1.8,2.4-2.4,1.6c-1-1.3,0.9-1.8,1.7-2.7
	C491.7,179.8,492,180.1,492.2,180.5z"/>
<path id="XMLID_2274_" class="st0" d="M510.8,168.1c0.6-0.7,1.3-1.4,1.9-2.1c0.3,0.3,0.7,0.7,1,1c-0.7,0.7-1.3,1.4-2,2
	C511.4,168.7,511.1,168.4,510.8,168.1z"/>
<path id="XMLID_2273_" class="st0" d="M512.7,166c0.7-0.7,1.3-1.3,2-2c0.4,0.3,0.7,0.6,1.1,1c-0.3,0.4-0.7,0.8-1,1.3
	c-0.4,0.2-0.7,0.5-1.1,0.7C513.4,166.6,513,166.3,512.7,166z"/>
<path id="XMLID_2272_" class="st0" d="M515.7,163c0.6-0.7,1.3-1.4,1.9-2c0.4,0.3,0.7,0.6,1.1,1c-0.3,0.4-0.5,0.8-0.8,1.3
	c-0.4,0.3-0.8,0.6-1.2,0.9C516.4,163.7,516,163.3,515.7,163z"/>
<path id="XMLID_2271_" class="st0" d="M511.1,170.3c-0.4,0-0.7,0-1.1,0c-1.2-1.2,0.1-1.6,0.7-2.2c0.3,0.3,0.6,0.6,1,0.9
	C511.5,169.4,511.3,169.9,511.1,170.3z"/>
<path id="XMLID_2270_" class="st0" d="M504.1,176.3c1,1.4-0.3,1.6-1,2.1C501.6,176.7,503,176.6,504.1,176.3z"/>
<path id="XMLID_2269_" class="st0" d="M496.3,176.5c-0.6,0.6-1.2,1.9-2,1c-0.9-1,0.7-1.4,1.2-2C495.7,175.9,496,176.2,496.3,176.5z"
	/>
<path id="XMLID_2268_" class="st0" d="M618,184.8c0.7-0.6,1.2-2.1,2.2-1.3c1.1,0.9-0.3,1.5-0.9,2.1C618.9,185.3,618.4,185,618,184.8
	z"/>
<path id="XMLID_2267_" class="st0" d="M508,172.3c-0.2,1.4-0.6,2.4-2.1,1C506.5,172.6,506.7,171.3,508,172.3z"/>
<path id="XMLID_2266_" class="st0" d="M499.1,181.2c1,1.4,0,1.7-1,2.1C497,182,498.1,181.6,499.1,181.2z"/>
<path id="XMLID_2265_" class="st0" d="M600.2,167.5c-0.6,0.5-1.1,1-1.7,1.5c-0.3-0.3-0.5-0.7-0.8-1c0.6-0.6,1.2-1.2,1.8-1.8
	C599.8,166.7,600,167.1,600.2,167.5z"/>
<path id="XMLID_2264_" class="st0" d="M505.3,167.9c-0.5,0.2-0.9,0.4-1.3,0.6c-0.7,0.4-0.9-0.5-0.8-0.6c0.3-0.4,0.7-0.6,1.1-0.9
	C504.3,167,504.6,167.3,505.3,167.9z"/>
<path id="XMLID_2263_" class="st0" d="M637.2,186.4c-0.5,0.5-1.1,0.9-1.6,1.4c-0.3-0.3-0.6-0.6-0.9-0.9c0.6-0.5,1.2-0.9,1.9-1.4
	C636.7,185.8,637,186.1,637.2,186.4z"/>
<path id="XMLID_2262_" class="st0" d="M578.4,188.7c0.4-0.6,0.9-1.1,1.3-1.7c0.3,0.4,0.6,0.7,0.9,1.1c-0.4,0.5-0.9,1-1.3,1.6
	C579,189.3,578.7,189,578.4,188.7z"/>
<path id="XMLID_2261_" class="st0" d="M497.2,175.5c-0.3,0.3-0.7,0.7-1,1c-0.3-0.3-0.5-0.7-0.8-1c0.3-0.3,0.7-0.7,1-1
	C496.7,174.8,497,175.2,497.2,175.5z"/>
<path id="XMLID_2260_" class="st0" d="M498.2,174.5c-0.3,0.3-0.7,0.7-1,1c-0.3-0.3-0.5-0.7-0.8-1c0.4-0.4,0.7-0.7,1.1-1.1
	C497.8,173.8,498,174.1,498.2,174.5z"/>
<path id="XMLID_2259_" class="st0" d="M629.7,174c0.4-0.5,0.8-1.2,1.5-0.7c0.8,0.6,0.1,1-0.3,1.5C630.5,174.5,630.1,174.2,629.7,174
	z"/>
<path id="XMLID_2258_" class="st0" d="M499.2,173.5c-0.3,0.3-0.7,0.7-1,1c-0.2-0.4-0.5-0.7-0.7-1.1c0.3-0.3,0.6-0.6,0.9-0.9
	C498.7,172.9,499,173.2,499.2,173.5z"/>
<path id="XMLID_2257_" class="st0" d="M633.3,172.6c-0.5,0.4-1,1.5-1.7,0.4c-0.6-0.9,0.6-1.2,1-1.7
	C632.8,171.7,633,172.2,633.3,172.6z"/>
<path id="XMLID_2256_" class="st0" d="M500.2,172.5c-0.3,0.3-0.6,0.7-1,1c-0.3-0.3-0.5-0.7-0.8-1c0.3-0.4,0.7-0.7,1-1.1
	C499.7,171.8,500,172.1,500.2,172.5z"/>
<path id="XMLID_2255_" class="st0" d="M632.6,171.3c0.1-0.3,0.3-0.5,0.6-0.6c0.4,0.3,0.8,0.6,1.2,0.9c-0.3,0.3-0.7,0.6-1,1
	C633,172.2,632.8,171.7,632.6,171.3z"/>
<path id="XMLID_2254_" class="st0" d="M509,171.3c0.2,0.9-0.2,1.1-1,1c0-0.4-0.2-0.8,0-1.1C508.4,170.5,508.7,171.3,509,171.3z"/>
<path id="XMLID_2253_" class="st0" d="M501.2,171.5c-0.3,0.3-0.7,0.6-1,1c-0.2-0.3-0.5-0.7-0.7-1c0.3-0.2,0.5-0.5,0.8-0.7
	C500.6,171,500.9,171.3,501.2,171.5z"/>
<path id="XMLID_2252_" class="st1" d="M606.7,171.2c0.4-0.3,0.8-0.6,1.3-0.8C607.6,170.6,607.1,170.9,606.7,171.2z"/>
<path id="XMLID_2251_" class="st0" d="M510.1,170.3c0.1,0.8-0.2,1.2-1,1c-0.1-0.4-0.8-0.7-0.1-1.1
	C509.2,170.1,509.7,170.3,510.1,170.3z"/>
<path id="XMLID_2250_" class="st0" d="M596.7,169c0.4-0.3,0.7-0.6,1.1-0.9c0.3,0.3,0.5,0.7,0.8,1c-0.3,0.3-0.5,0.5-0.8,0.8
	C597.4,169.5,597,169.2,596.7,169z"/>
<path id="XMLID_2249_" class="st0" d="M599.6,166.2c0.4-0.4,0.9-1,1.4-0.2c0.4,0.8-0.3,1.1-0.8,1.4
	C600,167.1,599.8,166.7,599.6,166.2z"/>
<path id="XMLID_2248_" class="st0" d="M506.8,165.8c-0.6,0.4-0.9,1.6-1.8,0.7c-0.5-0.5,0.2-1.1,0.7-1.5
	C506.1,165.3,506.5,165.5,506.8,165.8z"/>
<path id="XMLID_2247_" class="st0" d="M602,164.8c-0.2,0.1-0.4,0.2-0.7,0.3c-0.1,0-0.2-0.2-0.3-0.3c0.2-0.1,0.4-0.2,0.6-0.3
	C601.8,164.5,601.9,164.7,602,164.8z"/>
<path id="XMLID_2246_" class="st0" d="M507.7,164.8c-0.3,0.3-0.6,0.7-0.9,1c-0.4-0.3-0.7-0.5-1.1-0.8c0.3-0.3,0.7-0.6,1-1
	C507.1,164.3,507.4,164.5,507.7,164.8z"/>
<path id="XMLID_2245_" class="st0" d="M618.6,163.9c0.4-0.3,0.7-0.6,1.1-0.9c0.4,0.3,0.7,0.6,1.1,0.8c-0.4,0.3-0.7,0.7-1.1,1
	C619.3,164.5,619,164.2,618.6,163.9z"/>
<path id="XMLID_2244_" class="st0" d="M604.2,163.5c-0.4,0.5-0.7,1.3-1.4,0.8c-0.8-0.6-0.1-1,0.3-1.5
	C603.5,163,603.9,163.3,604.2,163.5z"/>
<path id="XMLID_2243_" class="st0" d="M514.7,164c0.3-0.3,0.7-0.7,1-1c0.3,0.4,0.7,0.7,1,1.1c-0.3,0.3-0.6,0.6-0.9,0.9
	C515.4,164.6,515.1,164.3,514.7,164z"/>
<path id="XMLID_2242_" class="st0" d="M506.8,164c0.3-0.4,0.6-1.2,1.3-0.7c0.7,0.5-0.1,1-0.3,1.4C507.4,164.5,507.1,164.3,506.8,164
	z"/>
<path id="XMLID_2241_" class="st0" d="M619.7,163c0.3-0.3,0.7-0.7,1-1c0.3,0.3,0.6,0.7,0.8,1c-0.3,0.3-0.5,0.5-0.8,0.8
	C620.4,163.5,620.1,163.2,619.7,163z"/>
<path id="XMLID_2240_" class="st1" d="M495.9,186.2c0.4,0.3,0.4,0.5,0,0.7c0,0-0.2-0.2-0.3-0.4c0.1-0.1,0.3-0.2,0.4-0.3
	C496,186.3,495.9,186.2,495.9,186.2z"/>
<path id="XMLID_2239_" class="st0" d="M517.6,160.9c0.3-0.3,0.7-0.7,1-1c0.3,0.4,0.7,0.7,1,1.1c-0.3,0.3-0.6,0.6-0.9,0.9
	C518.4,161.6,518,161.3,517.6,160.9z"/>
<path id="XMLID_2238_" class="st0" d="M636.5,185.5c0.4,0,0.8,0,1.1,0c-0.2,0.3-0.3,0.6-0.5,0.9C637,186.1,636.7,185.8,636.5,185.5z
	"/>
<path id="XMLID_2237_" class="st0" d="M619.3,185.6c-0.3,0.4-0.6,0.7-0.9,1.1c-0.3-0.5-0.5-1-0.8-1.5c0.1-0.2,0.2-0.4,0.4-0.4
	C618.4,185,618.9,185.3,619.3,185.6z"/>
<path id="XMLID_2236_" class="st1" d="M608,116.3c0.3,0,0.7,0,1,0C608.7,116.7,608.3,116.7,608,116.3z"/>
<path id="XMLID_2235_" class="st0" d="M484.9,186.2c0.3-0.5,0.5-1.3,1.3-0.8c0.8,0.5,0.1,0.9-0.2,1.4
	C485.6,186.5,485.2,186.3,484.9,186.2z"/>
<path id="XMLID_2234_" class="st0" d="M488.9,183.7c-0.5,0.5-1,1.6-1.8,0.8c-0.5-0.5,0.2-1,0.7-1.4
	C488.1,183.3,488.5,183.5,488.9,183.7z"/>
<path id="XMLID_2233_" class="st0" d="M621.8,182.6c-0.1,0.2-0.2,0.4-0.3,0.6c-0.1-0.1-0.3-0.2-0.3-0.3c0.1-0.2,0.2-0.4,0.3-0.7
	C621.6,182.4,621.7,182.5,621.8,182.6z"/>
<path id="XMLID_2232_" class="st0" d="M487.8,183c0.3-0.5,0.6-1.3,1.4-0.8c0.8,0.5,0,1-0.3,1.5C488.5,183.5,488.1,183.3,487.8,183z"
	/>
<path id="XMLID_2231_" class="st0" d="M625.3,179.6c-0.5,0.6-0.9,1.4-1.7,0.6c-0.1-0.1,0.4-0.9,0.6-1.4
	C624.6,179.1,625,179.3,625.3,179.6z"/>
<path id="XMLID_2230_" class="st0" d="M491.5,179.4c0.4-0.3,0.7-0.7,1.1-1c0.2,0.4,0.5,0.8,0.7,1.2c-0.3,0.3-0.7,0.7-1,1
	C492,180.1,491.7,179.8,491.5,179.4z"/>
<path id="XMLID_2229_" class="st0" d="M503.1,178.3c-0.1,0.7-0.4,1-1.1,1.1c-0.1-0.4-0.8-0.6-0.2-1.2
	C502.4,177.6,502.7,178.2,503.1,178.3z"/>
<path id="XMLID_2228_" class="st0" d="M492.6,178.4c0.4-0.3,0.9-1.1,1.5-0.3c0.5,0.7-0.3,1.1-0.8,1.4
	C493,179.1,492.8,178.8,492.6,178.4z"/>
<path id="XMLID_2227_" class="st0" d="M599.9,177.8c-0.5,0.4-0.8,1.6-1.7,1c-1-0.8,0.1-1.2,0.5-1.7
	C599.1,177.3,599.5,177.5,599.9,177.8z"/>
<path id="XMLID_2226_" class="st1" d="M427.3,272.4c-0.5,1.3-1,0.7-1.5-0.1C426.4,272.3,426.8,272.4,427.3,272.4z"/>
<path id="XMLID_2225_" class="st0" d="M598.7,177c0.3-0.3,0.7-0.6,1-1c0.2,0.4,0.5,0.7,0.7,1.1c-0.1,0.3-0.3,0.5-0.6,0.6
	C599.5,177.5,599.1,177.3,598.7,177z"/>
<path id="XMLID_2197_" class="st0" d="M124,277.3c1.4-3-1.4-3.3-2.9-4c-2.8-1.4-2.8-2.8-0.6-4.7c2.9-1.2,3.1-5,5.9-6.4
	c1-1,2.1-1.4,3.5-0.6c9.5,5.9,20.3,8.8,30.1,14.2c3.6,2,7.2,4.4,12.1,4.4c-1.1-2.5-2.9-3.2-4.5-4.4c-5.2-3.6-11.7-4.5-16.6-8.4
	c3.7-1.1,6.3,2,9.5,2.6c0.4,0,0.8,0,1.2,0c-0.1-0.4-0.3-0.7-0.4-1.1c-10.3-5-20.7-9.9-31.4-15c0.3,2.7,2.2,3,3.5,3.6
	c5,2.5,10.2,4.8,15.2,7.4c1,0.5,3.3,0.1,2.4,2.5c-6-1.2-10.9-4.8-16.3-7.3c-4.3-1.9-9.3-3.6-8.3-10c0.3,0,0.7-0.1,0.9,0.1
	c13,7.7,27.4,12.6,40.6,20c1.1,0.6,2.5,1,3.8,1.2c1.2,0.2,1.8-0.6,2.1-1.7c0.4-1.8-1-1.2-1.8-1.4c-1.4-0.4-2.9-0.7-4.3-1.3
	c-12.9-6.4-25.8-12.9-38.7-19.3c-2.9-1.4-4.7-3.4-4.7-6.9c-0.1-3.2-1.1-6.1-3.1-8.7c-0.4-0.8-1-0.9-1.8-0.5c0.3,0.4,0.7,0.9,1,1.3
	c0.3,4,2.4,7.8,1.2,11.9c-0.7-1.5-1.1-3-1.5-4.5c-0.9-3.5-1.6-7.2-3.8-10.2c-2.6-3.6-4.5-3.5-6.8,0.2c-1.4,0.5-1.3,3.9-3.4,2.3
	c-1.4-1,0.6-2.6,1.2-3.9c0.6-1.1,1.5-2.2,2.5-3.1c2.5-2,4.5,1.4,6.2,0.9c1.6-0.4,2.1-4.1,4.9-3.4c2.2,0.6,4.1,2.1,6.3,3
	c11.4,5,23.1,9.3,34.4,14.7c14.5,7,29,14,44.6,18.6c4.1,1.2,4,4.5,2.3,7.1c-2.9,4.5-4.4,9.2-4.4,14.5c0,2.5-0.5,3.9-3.5,1.8
	c-3.6-2.5-7.7-4.3-12.3-4.5c3.8,2.8,7.8,5,12,6.9c1.8,0.8,3,2,3.5,3.9c0.2,0.8,0.7,1.6,0,2.3c-0.9,1.1-1.8,0.2-2.6-0.2
	c-3-1.4-5.9-3-8.9-4.4c-2.9-1.3-5.4-0.8-6.9,2.3c2.4,1,4.6,2,6.8,2.9c-0.2,0.2-0.4,0.5-0.5,0.8c-1.4-0.1-2.7-1.4-4.2-0.4
	c2.8,3.7,6.1,6.5,11,6.4c0.1,1.9-1.4,2.7-2.6,4.2c4.5-0.1,5-3.8,7-5.6c1.9,5.4,3.1,10.9,5.9,15.8c0.7,1.3,2.9,3.1,0.9,4.8
	c-1.6,1.4-2.9-1.1-4.5-1.2c-1.3-0.4-2.3-2.5-4-0.9l0,0c-4.1-4.2-10.2-5.3-14.8-8.8c-4.3-3.2-10-3.6-14.3-7.3
	c-5.4-4.7-12.6-6.4-18.8-9.9c-5.1-2.9-11.1-4.3-15.1-9c1-0.6,2-1.2,3-1.8c-1.6,0-2.9,0-4.2,0c0-1.4,0.1-2.8,0.1-4.2
	c1.7-1.1,3.1-2.4,2.7-4.7c-1.1,1.5-3.1,2.5-2.6,4.8c-2.3,1.3-1.9,2.7-0.1,4.1c0.4,0.6,1.9,0.6,1,1.9c-3.4,0.3-5.7-2.4-8.7-3.3
	C127.6,277.5,126.1,275.3,124,277.3L124,277.3z M169.1,259.3c0.2-0.3,0.8-0.9,0.7-1c-0.6-0.9-0.9,0.1-1.4,0.3
	c-0.3,0.3-0.6,0.6-0.9,0.9c-1,1-2.4,2-1.3,3.6c0.3,0.4,1.3,0.9,1.7,0.7c2-0.9-1.4-2.5,0.3-3.5C168.5,260.1,168.8,259.7,169.1,259.3z
	 M165.4,255.1c0.4-0.4,0.7-0.7,1.1-1.1c0.3-0.3,0.7-0.7,1-1c0.3-0.4,0.6-0.7,1-1.1c0.4-0.5,1.5-0.8,0.5-1.7
	c-0.1-0.1-0.9,0.5-1.4,0.7c-0.3,0.3-0.7,0.7-1,1c-0.3,0.4-0.6,0.7-0.9,1.1c-0.3,0.3-0.7,0.7-1,1c-0.2,0.3-0.4,0.6-0.6,0.9
	C164.6,255,165,255,165.4,255.1z M161.1,254.3c0.5-0.2,0.9-0.4,1.4-0.7c0.1-0.4,0.4-1.1,0.3-1.2c-0.6-0.3-0.7,0.2-0.9,0.6
	C161.3,253.3,160.9,253.6,161.1,254.3c-0.4,0.2-0.8,0.6-1.1,0.9c-0.2,0.2-0.4,0.4-0.6,0.6c0.2,0.1,0.4,0.1,0.5,0.2
	c0-0.3,0-0.6,0-0.9C160.6,255.4,161,255.1,161.1,254.3z M148.5,245.6c-0.4,0.4-0.7,0.8-1.1,1.2c-0.2,0.4-0.7,1-0.6,1.1
	c0.6,0.6,1.1,0.3,1.6-0.3c0.3-0.3,0.7-0.7,1-1c0.4-0.4,1.3-0.8,0.7-1.5C149.3,244.3,148.9,245.2,148.5,245.6z M153.5,242.2
	c0.5-0.5,1.7-0.8,1.1-1.7c-0.6-0.9-1.4-0.2-1.9,0.5c-0.3,0.4-0.6,0.7-0.9,1.1c-0.6,0.5-2,1.1-1,2c1,0.8,1.4-0.7,2.1-1.3
	C153.2,242.7,153.4,242.5,153.5,242.2z M195.3,273.6c0.9-0.4,1.6-1.1,1.7-2.1c0-0.2-0.5-0.5-0.6-0.5c-0.9,0.4-1.5,1.2-1.4,2.3
	c-0.1,0.2-0.3,0.4-0.4,0.6C194.8,273.8,195,273.7,195.3,273.6z M140.5,241.1c0.8-0.9,2.7-2,1.6-3c-1.5-1.4-1.8,1-2.6,1.7
	c-0.5,0.5-1.3,1.1-0.5,1.8C139.6,242.2,140.1,241.6,140.5,241.1z M157.7,287.9c0.8,0.1,1.6,0.2,2.4,0.4c0.7,3.7,3.2,5.6,5.7,3.7
	c2.1-1.6,3.7-3.8,5.4-5.8c0.6-0.7,0.7-1.5-0.1-2.2c-1.3-1.1-1.7,0.2-2.2,0.8c-1.7,2-3.3,4.1-4.9,6.2c-0.2-0.1-0.5-0.3-0.7-0.4
	c0.2-0.9,0.3-1.9,0.5-2.8c3.9-1.6,1.7-4.6,0.7-6.2c-0.8-1.3-1.6,1.6-2.8,2.1c-0.4,0.3-0.7,0.7-1.1,1
	C159.6,285.8,158.6,286.9,157.7,287.9c0,0.2,0.1,0.4,0.1,0.5c-0.3,0.4-0.2,0.6,0.1,0.4C157.9,288.7,157.7,288.2,157.7,287.9z
	 M142.6,248.3c0-0.3-0.1-0.7-0.1-1c-0.2,0.3-0.4,0.7-0.5,1c-1.6,0.8-4-2.3-4.6,0.3c-0.4,1.9,2.5,1.8,4.1,2.4
	c0.8,0.3,1.4,1.5,2.9,0.2C143.4,250.5,141.4,250,142.6,248.3z M157.1,251.2c1.8,1.9-1.5,2.6-1,4.1c-0.3,0.1-0.5,0.2-0.8,0.3
	c0.1,0.2,0.3,0.3,0.4,0.5c0.1-0.3,0.2-0.6,0.3-0.8c3-1.1,4.5-3.9,6.7-5.9c1.3-1.3-0.7-1.3-0.7-2.1c-1.3-1.5,2.9-2.1,0.6-3.5
	c-2-1.3-2.5,1.1-3.4,2c-1.2,1.1-2.1,2.6-3.1,3.9c-0.3,0.4-0.5,0.8-0.8,1.1C155.9,250.9,156.5,251.1,157.1,251.2z M139.9,276.2
	c2.6,0.3,2.5-3.2,4.6-3.3c2.1,0.6-3.1,3.8,1.5,3.3c1.2,1.1-1.1,2.4,0.2,3.6c2.3-0.5,3.2-2.6,4.4-4.2c0.5-0.6,1.2-1.4,0.2-2.1
	c-0.8-0.6-1.4-0.1-2.1,0.6c-0.9,0.8-0.7,3.1-2.9,2.2c-0.1-2,1.8-4.5-1.5-5.7c-3.5-1.2-1.9,2.7-3.6,3.5
	C140.4,274.3,140.3,275.5,139.9,276.2c0,0.1-0.2,0.2-0.3,0.3c0,0,0,0.2,0,0.3C139.8,276.6,139.8,276.4,139.9,276.2z M138.1,243.9
	c0.3-0.5,0.8-1,0.9-1.6c0-0.7-0.6-0.4-1-0.3c-2.2,3.1-5.7,1.9-8.9,2.4C134.2,248.6,134.2,248.6,138.1,243.9z M191.8,258
	c-0.6,0.1-1.1,1.4-1.8,0.2c1-2.4-0.9-2.8-2.4-3.4c-3-1.3-6.3-2.3-9.1-4c-3.2-1.9-4.3-0.9-4.6,2.4c-0.8,0.2-1.4,0.8-1.6,1.6
	c0,0.1,0.4,0.6,0.5,0.6c1-0.4,1.5-1.1,1-2.2c3.7-1.8,6,0.9,6.2,3.3c0.5,5.6,3.7,3.6,6.3,2.7c1.2-0.4,2.3-1.1,3.7-1
	c0,3.4-3.4,4.8-4.6,7.5c-0.5,0.7-1.7,1.4-0.7,2.2c0.6,0.5,1.2-0.6,1.5-1.4c6.3,1,6.2-3.4,6.4-7.6c0.3-0.4,1.3-0.7,0.6-1.4
	C192.8,257,192.1,257.3,191.8,258z M180.5,292.7c1.5-2.8,4.7-6,4.1-8.1c-1.7-6-2.5-12.5-5.7-18.5C172,276,171.7,280,180.5,292.7z
	 M131.7,271.6c-1.4,0.8-3,1.8-2,3.7c0.2,0.5,1.1,0.6,1.7,0.9C130.9,274.7,131.2,273.2,131.7,271.6z M127.1,262.7
	c0.2,3,2.1,4.1,3.8,5.2c0.2,0.1,1.7-1.1,1.6-1.5C132,263.6,129.3,263.9,127.1,262.7z M197.3,270.5c1.6-1.2,3.7-2,3.7-4.7
	C199.2,266.9,197.6,268.1,197.3,270.5z M152,237.9c-4.3,1.2-5.4,3.4-6.7,6.6C148.7,243.3,150,241.2,152,237.9z M173.6,249.7
	c-0.1-1.3-1.2-1.4-2.1-1.6c-0.8-0.2-2.1-0.1-1.8,0.9c0.2,0.8,1.6,1.3,2.5,1.7C173,251.1,173.4,250.5,173.6,249.7z M146,279.6
	c-1.6,0.6-2.6,1.4-2.6,2.8c0,0.2,0.9,0.7,1.1,0.6C145.6,282.4,146.4,281.4,146,279.6z M144.1,236.4c-0.1-0.7-0.6-0.9-1.3-0.9
	c-0.8,0.1-1,0.6-1.2,1.3c-0.1,0.7,0.2,1.3,0.9,1.2C143.4,237.9,144,237.4,144.1,236.4z M165.7,250.5c0.3-0.4,0.7-0.8,0.9-1.2
	c0.2-0.6,0-1-0.6-0.6c-0.4,0.2-0.7,0.7-0.9,1.1C165,249.8,165.4,250.1,165.7,250.5z M170.4,257c0.1,0.1,0.2,0.2,0.3,0.3
	c0.1-0.1,0.2-0.2,0.3-0.3c-0.1-0.1-0.3-0.2-0.4-0.3C170.4,256.8,170.4,256.9,170.4,257z M132.7,270.1c0.1-0.1,0.3-0.2,0.3-0.3
	c0-0.1-0.2-0.2-0.3-0.3c-0.1,0.2-0.2,0.3-0.3,0.5C132.5,270,132.6,270.1,132.7,270.1z M143.5,245.3c-0.1,0.1-0.3,0.2-0.3,0.3
	c0.1,0.2,0.2,0.4,0.3,0.7c0.1-0.1,0.3-0.2,0.3-0.3C143.8,245.7,143.6,245.5,143.5,245.3z"/>
<path id="XMLID_2194_" class="st0" d="M479.1,146.3c-2.3,12-6.1,23.4-11.9,34.1c-1.4,2.6-2.6,5.4-3.6,8.2c-2.6,7-8.5,10.8-14.4,14.5
	c-2.5,1.6-5.3,1.3-8.1,0.1c-16.6-7-33.8-12.6-50.1-20.5c-2.1-1-4.2-2.3-6.8-0.1c-1.3,1.1-4.1,0.5-6.2,0.6l0.1,0.1
	c0.3-2.7,1.8-4.2,5.1-3.8c-8.9-5.5-18.2-8-27.3-11.1c-1.7-0.6-3.6-0.9-5.2-1.8c-7.4-4.1-15-3.5-22.7-1.5c-1.3,0.3-2.6,0.8-3.8,0.6
	c-1.2-0.2-2.9-0.8-2.6-2.5c0.3-1.7,1.9-0.9,2.9-0.8c3,0.3,5.9-0.3,10.2-1c-4.8-1.9-8.3-3.7-12.1-4.8c-7.4-2.1-10.8-7.8-8.3-15.2
	c1.9-5.5,4.3-10.8,6.7-16c3.5-7.5,7.2-15,10.7-22.5c3.4-7.2,12.2-11.8,21.5-11.3c26.3,1.6,52,7.2,77,15.1
	c13.8,4.4,27.4,10.2,40.2,17.3c3.5,1.9,5.9,4.5,6.7,8.5c0.5,2.6,1.4,5.1,2.1,7.7C479.1,142.3,479.1,144.3,479.1,146.3z M458.2,192.3
	l0,0.1c4.6-7.7,8.1-16,11.7-24.2l0.2-0.2l-0.1-0.3c0.4-0.8,0.9-1.7,1.3-2.5l0-0.3c0.9-1.1,2.2-2.1,0.9-3.7c-0.4-1.8,0.6-3.2,1.3-4.7
	c3.5-7.8,3.5-15.7,1-23.8c-0.5-1.6-1.2-2.9-2.7-4c-12.8-9.1-27.8-13.5-42.1-20c-0.4,4.8-0.4,4.8-3.2,6.3c1.3-6.8,1.3-6.8-6-8.5
	c-1.2-0.3-2.4-1.2-4.3-0.2c1.8,2,0.8,4.1,0.6,6.4c-1,7.8-5.7,14.6-5.6,22.6c0,2.6-1.7,1-2.8,0.6c-0.5-5.7,3-10.3,4-15.6
	c3.1-4.3,0.8-10.3,5.6-14.6c-7-1.6-13.4-3-19.8-4.4c-2.1-0.5-4.1-0.9-6.2-1.4c-6.6-1.5-13.2-2.7-20.1-3c-6.8-0.4-13.4-2.8-20.4-2.4
	c-8.2,0.5-14.9,3.3-18.1,11.7c-1.2,3.2-3.1,6.2-4.8,9.2c-4.8,8.8-8.3,18.2-11.8,27.6c-1.6,4.3,0,8.4,3.9,10.1
	c11.4,4.9,23,9.4,36,7.2c8.1-1.4,16.3-2.3,24.6-2c0.9,0,2.7-0.8,2.5,1.2c-0.1,1.1-1.3,1.7-2.6,1.6c-8.8-0.3-17.5,0.3-26.1,1.4
	c-1.6,0.4-3.6-0.9-5.2,1.4c1.9,0.2,3.5,0.4,5.1,0.6c3.5,4.6,8,2,12.2,1.6c0.4,0.4,0.7,0.8,1.1,1.1c-0.6,1.1-1.7,2.1,0.5,3
	c4,1.5,7.8,3.4,11.8,4.9c2,0.8,4.6,1.1,6.2-0.1c5.8-4.4,12.8-6.8,18.7-11.2c2.2-1.6,5.1-3.1,8.4-2.5c-9.1,5.2-18.2,10.3-27.4,16.4
	c4.6,2.2,8.6,2.6,12.7,0.5c5.5,0.2,11.2,1.7,15.4-3.5c0.3,0.4,0.6,0.7,0.9,1.1c0.9,3.3,3,1.1,4.6,1c0.8-0.1,1.6-1.6,2.5-0.7
	c3.2,3.2,5.7,0.8,8.3-0.8c0.3,0.3,0.5,0.6,0.8,0.9c-0.2,0.7-0.4,1.2,0.6,1.5c3.5,1.1,6.1-0.5,8.4-2.8c0.3,0.3,0.5,0.6,0.8,1
	c-0.5,0.8-2.2,1.6,0.1,2.2c2.8,0.7,5.7,0.7,8.6,0.5c0.8,2.2-1.8,2.2-2.2,3.7c-0.4,0.3-0.9,0.6-1.3,1c-0.2-0.3-0.5-0.6-0.7-0.9
	c-4.6-1.8-9.2-3-13.7,0.3l0.1,0.1c0-2.2-1.3-2.9-3.2-2.6c-2.6,0.4-5.2-0.1-7.8-0.2c-8.6-0.3-17.2,0.5-27,2
	c13.3,5.3,25.5,10,37.6,15.1c3.5,1.5,6.3,1.7,9.3-0.5c-1.8,3.8,0.2,5.3,3.5,4.8c2.3-0.3,5-0.4,6.7-2.7c0.3-0.2,0.6-0.4,0.9-0.6
	c1-0.8,2-1.6,3-2.4c0.7-0.5,1.3-1.1,2-1.6C457.5,193.2,457.9,192.8,458.2,192.3z"/>
<path id="XMLID_2185_" class="st0" d="M139.9,349.3c6.5,1.7,11,6.6,16.1,10.6c-1.7,0-3.3-1.4-5.1-0.5c0.1-0.8,0.3-1.7-0.8-1.9
	c-1-0.2-1.2,0.7-1.5,1.5c-0.7,1.3-1.4,2.6-2.1,3.8c-0.4,0.5-0.9,0.9-0.2,1.5c0.2-0.3,0.4-0.7,0.7-1c0.7-0.7,1.4-1.4,2-2.1
	c1.7,1.6-1.3,2.8-0.3,4.3c1.6-0.9,2-0.9,2.4,0.3c0.3,1,0.3,1.7,1.2,0.4c1.7-2.5,3.7-1.2,5.7-0.7c0.1,0.3,0.3,0.5,0.7,0.5
	c1.7,3-3.1,4.7-1.6,8c2.3-2,3.2-4.7,5-6.8c1.7-1.9-0.5-2.6-2.1-3c2.7-1.1,7.1-0.1,8,1.8c0.6,1.3,0,2-1.2,2c-4.1,0.1-3.1,3.2-4.1,6.1
	c2.6-1.3,3.1-5.7,7-3.1c0.9,0.6,1.1-2.1,0.9-3.6c-1-6.4-1.9-12.8-2.7-19.2c-0.4-2.9-1-6.2,4.4-4.9c-1.2-2.8-4.1-2.4-5-4.4
	c0.3-0.3,0.6-0.6,0.9-0.8c1.9,0,3.9,0.7,4.9,2.1c1.5,2,3.2,1.9,5.2,1.7c3.6-0.3,6.5,0.4,5.7,5c-0.6,3.5,2.2,0.8,3.6,2.1
	c-5.5,6.3-7.6,14.4-10.9,22c-1.9,4.4-7.2,3.1-10.7,5.2c-1.1,0.7-2.8,0.3-3.8,1c-7.7,5.2-14.2,1.1-20.7-2.5
	c-12.2-6.8-17.6-18-19.5-31.3c-0.5-3.6-0.5-7.5-4.9-9.4c2.4-1.7,4,0,4.8,0.8c5.3,5.2,11.8,8.6,17.6,13c0.5,0.4,1,0.8,0.5,1.6
	c-1.8,0.6-4.1-4.3-5.6,0.4c-0.4,0.6-0.7,1.3-1.1,1.9c-0.1,0.4-0.3,1-0.1,1.1c0.5,0.3,0.6-0.1,0.7-0.5c0.9-0.3,1-1.1,1.1-1.9
	c0.6,0.1,1.9-0.6,1.2,1c-0.5,1.2-1.1,2.4-1.6,3.6c-0.3,0.7-0.7,1.3-1,2c-0.6,0.6-1.3,1.5-0.5,1.9c1,0.6,0.8-0.8,1.3-1.3
	c0.3-0.7,0.7-1.3,1-2c0.4-0.5,0.9-1.1,1.3-1.6c0.3,0.2,0.6,0.5,0.9,0.7c-0.8,1.4,0.1,2.1,1,1.4c1.4-1.1,3-1.6,3.9-0.6
	c1.2,1.3-0.7,2.5-1.1,3.8c-0.9,2.6-3.2,4.8-3,8c3.4-2.9,5.4-6.5,8.2-9.5c1.6-1.8,1.7-3-0.3-3.5C143.3,353.6,141.9,351.2,139.9,349.3
	z M132,362.3c0.8-0.4,1.3-1.3,0.7-1.7c-1-0.6-0.9,0.6-1.1,1.2c0,0.4,0,0.8-0.1,1.1C131.7,362.7,131.8,362.5,132,362.3z M149,372.2
	c1.5-0.9,1.9-2.2,2-4.4C149.3,369.5,148.5,370.6,149,372.2c-1.1,0.2-1.4,1.1-1.5,2.1c0,0.1,0.5,0.5,0.7,0.4
	C149.3,374.3,148.8,373.1,149,372.2z M144.8,366.1c-1.4,0.9-1.7,2.4-2.3,3.8c-0.4,0.4-0.8,0.9-0.2,1.4c0.1,0.1,0.6-0.5,0.9-0.7
	c1.3-1,1.7-2.5,2-4c0.5-0.4,0.9-0.8,0.3-1.4C145.3,365.5,145,365.8,144.8,366.1z"/>
<path id="XMLID_2184_" class="st0" d="M204.7,319.1c4.4,2.4,9.1,4.1,13.9,5.4c7.1,2,11.4,0.3,14.4-6.3c7.8-17.1,7.5-33.8-4-49.3
	c-2.9-3.8-7.4-5.7-11.5-7.8c-13.6-6.9-28.1-12-42.2-18c-11.8-4.9-23.6-9.9-34.9-16.1c-6.8-3.8-14.3-5.3-21.5-7.8
	c-4.5-1.6-8.4-0.1-11.6,3.5c-0.7,0.8-1,2.7-3.2,2.2c1.1-2.5,2.4-4.6,4.3-6.4c0.3-0.1,0.6-0.3,0.7-0.6c1-0.4,1.9-0.8,2.9-1.3
	c9.9-0.1,19,3.6,27.5,7.9c21.2,10.9,43.3,19.5,65.4,28.2c8.2,3.2,15.9,7.2,23,12.2c7.7,5.5,9.9,14.4,11.7,23
	c1.1,5.1,0.1,10.6,0.2,15.9c0.2,10.2-6.3,17.6-10.2,25.9c-4.1,8.5-5.5,16.2-0.4,24.5c0.4,0.7,0.9,1.4,0.4,2.3
	c-6.3-3.7-8.9-15.3-2.2-27.9c-17.1-3.3-33.1-10.3-48.5-18c-17.5-8.7-34.5-18.6-51.7-28c-2.5-1.4-4.7-3.1-7-4.7
	c0.3-0.3,0.7-0.6,1-0.9c0.9-0.2,1.7,1.6,2.8,0.3c0,0,0,0,0,0c-0.4,2.4,1.8,2.4,3,3.1c9.8,5.2,19.4,10.8,29.2,16
	c13.3,7,26.1,15.3,40.6,19.8c1.2,0.4,2.8,2.5,4.2,0.1c0,0,0,0,0,0C200.8,319.1,203.3,318.4,204.7,319.1z"/>
<path id="XMLID_2183_" class="st0" d="M378,183.2c0.6,2,2.7,1.6,3.9,2.6c0.7,0.6,1.4,1.1,1,2c-0.4,0.9-1.5,0.8-2.2,0.4
	c-12.1-5.5-25-8.9-37.6-12.9c-4.1-1.3-8.4-2.2-12.6-3.1c-5.2-1.1-5.6,3.4-7.7,6.3c23.8,10.1,47.7,19.1,70.4,29.5
	c7.3-10,0.8-14.3-8.7-17.6c4.8-1.2,11.6,1.4,14.1,5.1c3.4,5.1-1.4,8.8-2.2,13.7c6.6,3,13.7,6.2,20.8,9.4c1.4,0.6,2.6,1.4,3.9,2.2
	c1,0.6,1.5,1.5,0.8,2.5c-0.7,1-1.8,0.6-2.6,0c-11.3-8.2-24.8-11.9-37.4-17.4c-19.5-8.5-39.1-16.7-58.9-24.3
	c-10-3.8-20.2-7.2-30.7-9.6c-3.6-0.8-6.9-3.3-11.1-3.4c1.8-3.2,3.8-2.2,5.8-1.5c10,3.4,20,6.6,29.9,10.3c2.6,1,3.5,1.6,4.7-1.8
	c2.3-6.6,3.8-6.8,12.2-4.8c13.8,3.2,27.2,7.6,40.5,12C375.5,183.1,376.6,184,378,183.2C378,183.3,378,183.2,378,183.2z"/>
<path id="XMLID_2180_" class="st0" d="M98.9,229.5c0,4.9,0,9.8,0,14.7c0.5,0,1,0,1.5,0c-0.8-5.1,0.9-9.9,1.6-14.8c1,5-0.6,10,0,14.9
	c0,1,0,2,0,3c-0.1,0.6-0.1,1.3-0.2,1.9c0,2.2,0.6,4.9,3,4.5c2.3-0.4,0.5-3,0.6-4.6c0-0.6-0.4-1.2-0.6-1.8c-0.1-1-0.3-2-0.4-3
	c1.3-2.8-1.3-6.1,0.8-8.9c1.3,1.3,0.2,2.9,0.9,4.1c0.5,7.4,0.5,15,6.5,20.6c1.4,1.4,2.3,4.4,4.8,3.5c2.5-0.8,2.6-3.5,2.4-6
	c0-0.9-0.4-2.4,1-2.3c1.7,0.1,0.8,1.8,1.2,2.8c0.6,3.4-1.2,5.9-3.2,8.3c-3.7,0.4-5.2-2.8-7.7-4.5c-1.5-2.4-3-4.8-4.6-7.1
	c-0.6-0.9-0.7-2.7-2.3-1.9c-1.3,0.7-0.5,2-0.2,3.1c0.5,1.7,1.1,3.4,1.6,5.2c-3.8-1.2-3-5.4-5.8-7.6c1.1,7.7,2.1,15.5,3.2,23.2
	c0.6,4.3,1.1,8.6,1.8,12.8c0.5,2.5-0.2,4.4-1.9,6.6c-1.6-6.8-3.6-13-6.4-19c-2.3-4.8-2.6-9.9,0.4-14.8c1-1.6,1.4-3.6,1.4-5.6
	c-4,5.5-8.2,11-6.7,18.5c0,0.2,0.1,0.3,0.1,0.5c0.9,5.2,4.1,9.4,5.9,14.2c1.8,5.1-4.9,7.6-4.2,13.2c0.5,3.9,1.5,7.5,2.9,12.1
	c-5.4-5.1-6.3-16.1-1.9-21.2c1.8-2.2,1.5-3.7,0.6-5.7c-0.7-1.5-1.5-3-2.2-4.5c-3.6-7.9-4.9-15.7,0.4-23.6c4.3-6.5,5.1-13.8,4.2-21.5
	C97.3,235.7,96.9,232.4,98.9,229.5z M100.1,264c-4.6,5.8-3.9,10.9,2.2,19.5C102.1,276.6,101.5,270.7,100.1,264z"/>
<path id="XMLID_2179_" class="st0" d="M103,217.3c-2.5,3.3-1.3,7.9-4,11.1c0.5-8.5,2-16.9,8.9-22.4c9.3-7.3,19.1-13.9,30.9-17.1
	c8.8-2.4,17.3-6.1,26.2-8.1c5.8-1.3,11.6-3.1,18-1.8c3.8,0.8,8.1-1.8,12.4-2.2c8.2-0.6,16.2-2.3,24.4-2.9
	c18.4-1.4,36.2-5.9,54.2-9.2c5.9-1.1,11.4-3.6,17.5-4.1c-3.6,4.2-8.9,5-13.7,5.8c-21.5,3.9-43.1,7.7-64.9,10.3
	c-20.2,2.4-40.8,2.8-60.5,9.4c-14.6,4.9-28.7,10.3-41.3,19.3c-2.9,2.1-5.6,4.2-6.6,7.9c-0.8,0.4-1,1.2-1,2
	C103.5,215.9,103.3,216.6,103,217.3z"/>
<path id="XMLID_2178_" class="st0" d="M343.9,243.2c-8.6-1.3-16.5,3.1-24.9,5c-5.2,1.1-10.7,1.6-15.7,3.4
	c-11.4,4.2-23.5,7-33.9,13.7c-1.5,0.9-3.4,1.4-3.6,3.7c-0.2,2-2.1,1.7-3.1,1.1c-1.4-0.9-0.9-2.5,0.3-3.3c4.4-2.9,8.7-6.1,13.5-8.2
	c12-5.3,24.2-10.1,37.3-11.8c8.6-1.1,16.4-5.9,25.1-6.3c26.3-1.4,51.7-8.8,77.6-12.8c3.1-0.5,6-1.9,8.9-3c1.5-0.5,3.1-1.2,3.7,0.7
	c0.5,1.6-1.1,1.9-2.5,2.3c-10.1,2.8-20.4,4.3-30.6,6.4c-14.7,3.1-29.9,3.7-44.2,9.1C349.6,244,346.9,243.2,343.9,243.2z"/>
<path id="XMLID_2175_" class="st0" d="M140,317.3c7.7,7.1,15.2,14.5,25.2,18.4c1.2,0.4,2.6,0.9,2.9,2.4c-0.3,0.3-0.6,0.6-0.9,0.8
	c-12.5-6.9-25-13.7-37.5-20.7c-1.7-1-5.4-1.6-2.7-5.2c0.2-0.3-0.5-1.6-1.1-2c-1.2-0.8-1.8,0.2-2.2,1.1c-2,3.8-4.4,7.3-4.7,11.9
	c-0.2,3.6-2.8,6.5-4.2,9.8c-0.2,0.5-1,1-1.5,1c-1,0.1-1.4-0.8-1.5-1.7c-1.1-7.9-2.3-15.7-3.4-23.6c-0.3-2,0.6-2.9,2.9-2.5
	c2.7,0.5,5.5,0.6,7.7-1.8c1.2-1.3,2.3-0.3,3.2,0.5c1.5,1.5,2.9,3.1,4.4,4.7c2,2.2,4,4.1,7.4,2.8c0,0-0.1-0.1-0.1-0.1
	c-0.1,0.8-0.2,1.6,1.1,1.1c0,0-0.1-0.1-0.1-0.1c0.7,3.2,1.6,6.3,5.7,7.3C141.1,319.8,138.9,318.6,140,317.3L140,317.3z M141.1,321.6
	c0.1,0.2,0.2,0.4,0.4,0.6c0.1-0.1,0.3-0.2,0.3-0.3c-0.1-0.2-0.2-0.4-0.3-0.7C141.4,321.4,141.3,321.5,141.1,321.6z"/>
<path id="XMLID_2174_" class="st0" d="M144.8,146.1c0.7,5.1-1.6,10,0.1,15.1c2.8,8.1,9.6,11.1,17.1,7c9.3-5.1,13.3-12.6,12.1-23.1
	c-0.9-7.9-5.8-12.6-13.7-13.3c-6.4-0.5-13-0.2-17.9-5.5c-0.5-0.5-1.3-0.6-1.4-1.7c-1-9.6-0.7-18.9,5.6-27.1
	c5.6-7.2,9.6-7.5,15.5-0.6c2.2,2.6,3.9,5.5,3.1,10.2c-2.5-2.9-2.2-6.1-4-8.5c-4.5-5.9-8.5-6-13,0c-4,5.3-5.6,11.2-5.7,17.7
	c-0.1,7.4,3.9,11.9,11.2,12.7c2.3,0.3,4.6,0.4,7,0.6c8.8,0.7,14.7,6.7,15.3,15.4c0.4,6.1-0.9,11.9-3.4,17.4
	c-2.5,5.3-13.1,10.5-19.2,9.6c-4.1-0.6-10.6-8.3-11.4-13.9C141.4,154.1,143.9,150.3,144.8,146.1z"/>
<path id="XMLID_2171_" class="st0" d="M266.2,153.7c-1.6-5.2,0.5-10.4,1-15.5c1.1-11.6,3-23.1,4.8-34.6c0.8-5.1,1.5-10.3,4.2-14.8
	c1.7-2.9,3.8-5.2,8-4.6c4.2,0.6,5.3,3.5,6.3,6.7c1.5,4.3,1.8,8.8,1.7,13.3c-0.5,14.5-1,28.9-1.6,43.4c0,1-0.3,2-0.6,2.9
	c-0.2,0.9-0.4,2.2-1.8,1.8c-1.4-0.4-0.7-1.5-0.6-2.5c0.6-7.5,1.1-14.9,1.8-22.4c0.3-2.7-0.4-4.1-3.4-3.4c-4.7,1.2-9.7,1.7-13.9,3.8
	c-2.9,1.5-2.5,6-2.9,9.2c-0.8,5.4-1.2,10.9-1.7,16.4C267.1,153.7,266.6,153.7,266.2,153.7z M290.1,107.4c0.3-4.8,0.3-10.3-1.7-15.5
	c-0.9-2.2-1.4-4.8-4.7-5c-3.3-0.2-4.9,1.9-6,4.2c-1.1,2.2-1.9,4.6-2.4,7c-1.4,7.5-2.4,15.1-3.9,22.5c-0.9,4.4,0.9,5,4.5,3.8
	c0.8-0.3,1.6-0.6,2.4-0.8C290.2,120.4,290.2,120.4,290.1,107.4z"/>
<path id="XMLID_2170_" class="st0" d="M203.1,166.4c-2-3.6-1.4-7.2-1.3-10.8c0.2-6.2-1-12.3-1.1-18.4c0-2.4-1-2.9-3.1-2
	c-3.3,1.5-6.8,2.9-10,4.5c-3.3,1.7-1.3,5.6-1.3,8.6c0,5.7,3.9,11.2,1.4,17.1c-0.3,0.7-0.3,1.6-1.4,1.9c-4.2-25.5,1.8-50.5,2.5-76.4
	c2.7,2.1,1.8,4.3,1.6,6.1c-1,11.8-2.1,23.5-3.5,35.3c-0.5,4.4,0.7,5.1,4.7,3.5c8.7-3.4,8.5-3.3,9.1-12.8c0.8-10.8,2-21.5,3-32.3
	c0.1-0.7,0.2-1.3,2-1.7c0.2,13.2-3.7,25.8-3.5,38.7C202.7,140.7,204.1,153.6,203.1,166.4z"/>
<path id="XMLID_2169_" class="st0" d="M235.3,394.6c-5.7-1.9-11.4-3.7-17.1-5.6c2.2-1.7,6.9,2,7.6-3.7c0.1,3.4,2.2,4.9,4.8,5.7
	c1.3,0.4,3,0.4,2-1.8c-2.5-5.5-6.1-10.6-5.4-18.1c-3.7,4.5-4,9.8-8.3,12.2c2.3-5.1,4.6-10.3,6.9-15.3c0.6-1.2,1.5-0.9,2.4-0.1
	c1,0.8,2.3,1,3.2,0.2c1.2-1.1,0.2-2.4-0.2-3.7c-0.7-1.9-2.3-3.6-1.8-6.3c2.3,1,2.7,3,3.1,4.6c1,4.1,2.4,7.4,7.9,6.8
	c-2.2,2.8-5,2.3-7.5,1.7c-3.7-0.9-4,0.6-3,3.6c1.4,4.3,3.6,7.5,8.2,9.2c3.6,1.3,4.1,0,4.3-2.8c0.1-0.8-0.1-1.7,0-2.5
	c0.2-1.2-0.8-2.9,1.1-3.3c1.4-0.3,1.1,1.9,2.4,2.1c-2.2,2.9-0.4,5.4,0.9,7.8c0.8,1.4,1.5,4.3,3.6,3.1c1.8-1.1-0.9-2.7-1.1-4.2
	c0-0.2,0.2-0.5,0.4-0.8c1.9,0.4,2.2,2.3,3.2,3.5c3,4.1,2.7,4.3-2.4,5.5c-4.8,1.1-10.4-0.9-14.3,3.5
	C235.9,395.4,235.6,395,235.3,394.6z"/>
<path id="XMLID_2168_" class="st0" d="M218.6,90c0.7,5,0.4,8.9-0.1,12.8c-1.7,14.1-2.1,28.2-1.6,42.3c0.1,3.2,1,6.3,2.2,9.2
	c0.9,2.1,1.9,4.5,4.9,4c2.6-0.4,4.1-2.1,4.6-4.6c2.5-12.3,5.1-24.7,4.8-37.4c-0.1-2.9,0-5.9,0-9.1c2.4,0.9,1.6,2.2,1.6,3.2
	c0.5,14.1-0.9,28.1-4,41.9c-0.3,1.3-0.7,2.6-1,3.9c-0.9,3.3-3.5,4.4-6.4,4.8c-2.6,0.4-4.3-1.4-5.6-3.5c-2.2-3.6-3-7.7-3.2-11.9
	c-1.2-18,1.2-35.8,2.1-53.7C217.1,91.6,217.6,91.2,218.6,90z"/>
<path id="XMLID_2167_" class="st0" d="M240.7,366.6c-2.3,0.2-3.4-1.4-3.5-2.5c-0.4-4.7-3-8.4-4.8-12.5c-3.8-8.5-0.7-16.1,3.2-23.3
	c4-7.2,7.5-14.3,7.3-22.8c0-1.1,0.5-2.2,1.5-3.2c-2.1,21.3,1.1,42.6,0.9,63.9c-0.9-14.2-3.9-28.2-3.4-42.7
	c-7.7,6.4-10.9,20.6-6.7,29C237.3,356.9,239.7,361.4,240.7,366.6z"/>
<path id="XMLID_2166_" class="st0" d="M251.6,82.4c2.1,2.3,1.4,4.7,1.1,6.9c-1.7,15-3.5,30-5.4,45c-0.6,4.8-0.4,9.6-0.5,14.4
	c0,3.3,1.4,3.8,4,2.7c2.2-1,4.5-0.9,6.8-1c1,0,1.5,0.6,1.5,1.6c0,0.7-0.5,1.4-1.2,1.2c-3-1-5.5,1.1-8.3,1.5c-4.4,0.7-5-0.9-5.1-4.7
	c-0.5-13.9,2.2-27.5,3.9-41.1c0.9-6.9,1.7-13.8,1.9-20.8C250.4,86.3,249.8,84.4,251.6,82.4z"/>
<path id="XMLID_2164_" class="st0" d="M280.2,226.1c-19.4,4.7-38.6,10.1-56.3,21.7C228.4,239.8,267.2,224.9,280.2,226.1z"/>
<path id="XMLID_2162_" class="st0" d="M218.5,191.4c17.6-5,35.8-6,54.2-8.4C270.4,185.2,225.4,192.2,218.5,191.4z"/>
<path id="XMLID_2161_" class="st0" d="M192.5,199.4c-8.3,1.6-15.5,3.2-22.4,6c-6.9,2.8-13.9,5.2-20,10.2c-1-2.3,0.6-3.2,1.9-4
	c12-6.6,24.8-11.4,38.3-13.8C190.6,197.7,190.8,198.1,192.5,199.4z"/>
<path id="XMLID_2158_" class="st0" d="M226.5,398.9c-12.5-3.1-23.2-9.7-33.9-16.4c-3.7-2.3-7.4-4.4-11.5-6.9
	c2.8-0.8,4.6,0.8,6.3,1.8c10.1,5.7,19.5,12.7,30.6,16.6c2.8,1,5.6,2.2,8.6,2.6c0.2,0.6,0.4,1.1,0.6,1.7
	C226.9,398.4,226.7,398.6,226.5,398.9z"/>
<path id="XMLID_2157_" class="st0" d="M337.6,215.8c-9.7,1.5-18.5,2.9-27.2,4.4c-2.1,0.4-4.2,1-6.3,1.6c-1.3,0.4-3.3,2-3.8,0.2
	c-0.7-2.3,2.2-2.1,3.4-2.4c5-1.2,10.1-1.9,15.1-2.8c3.9-0.7,7.8-1.4,11.8-1.9C332.6,214.5,334.8,213.6,337.6,215.8z"/>
<path id="XMLID_2156_" class="st0" d="M214.7,372.9c-1.2,2-2.4,3.9-3.5,6c-1.6,3.3-4.4,3.5-7,2c-3.4-2-0.4-3.7,0.9-5.4
	c1.3-1.7,2.4-3.6,3.5-5.4c0.7-1.2,1.6-2.5,3-2.2c1.6,0.4,0.2,2,0.6,2.9c0.2,0.5,0.9,0.8,1.4,1.1C214,372.3,214.4,372.6,214.7,372.9z
	"/>
<path id="XMLID_2155_" class="st0" d="M189.8,349.6c9.2,4.6,17.8,8.8,26.3,13.2c0.9,0.4,2.5,1,1.6,2.5c-0.5,0.9-1.7,1.1-2.6,0.3
	c-7-5.9-15.7-8.5-23.4-13.1C190.9,352,189.9,351.7,189.8,349.6z"/>
<path id="XMLID_2154_" class="st0" d="M245.8,299c-1.1-8.3,3.4-14.7,7.1-21.4C253.4,285.6,246,291,245.8,299z"/>
<path id="XMLID_2149_" class="st0" d="M107.1,326c-4.9-2.4-8.1-6.5-11-10.9C100.3,318.2,104.3,321.5,107.1,326z"/>
<path id="XMLID_2148_" class="st0" d="M107.2,276.7c2.2,5.1,3.9,10.2,2.5,15.8C108.8,287.2,108,282,107.2,276.7z"/>
<path id="XMLID_2145_" class="st0" d="M234.9,102.2c-0.3-4.4-0.1-8.8-0.8-13.1c-0.1-0.7,0.6-1.1,1.3-1.1c0.9,0,2,0.5,1.7,1.2
	C235.3,93.4,237.2,98.1,234.9,102.2z"/>
<path id="XMLID_2143_" class="st0" d="M235,397.2c1.6,0.1,3.3,0.1,4,2c-4.2,1.2-8.4,1.4-12.5-0.4c0.2-0.3,0.4-0.5,0.6-0.8
	c1,0,1.9,0,2.9-0.1C231.6,397.6,233.5,398.6,235,397.2z"/>
<path id="XMLID_2141_" class="st0" d="M105.9,261.3c2,0.2,2.2,2.7,4,3.2c0.8,1.5,1.5,3.1,2.3,4.6C108.7,267.5,106.5,265,105.9,261.3
	z"/>
<path id="XMLID_2140_" class="st2" d="M249,371.5c2.1,0.3,3.1,1.5,3.2,3.6c-2,0.7-1.7-2.1-3.2-2.1C249,372.5,249,372,249,371.5z"/>
<path id="XMLID_2139_" class="st0" d="M133.7,311.4c2.7,0,3.4,1.6,3.2,4l0.1-0.1c-0.7-0.3-1.1-1.3-2.1-1c0,0,0.1,0.1,0.1,0.1
	c0.1-0.8-0.1-1.4-1.1-1.1c0,0,0.1,0.1,0.1,0.1c-0.1-0.7-0.1-1.3-0.2-2L133.7,311.4z"/>
<path id="XMLID_2138_" class="st2" d="M230,398.1c-1,0-1.9,0-2.9,0.1c-0.2-0.6-0.4-1.1-0.6-1.7C228,396.3,229.5,396.2,230,398.1z"/>
<path id="XMLID_2137_" class="st0" d="M219,383.2c-0.1,1.2,2.3,1.6,1,3.2C219.2,385.5,216.5,385.2,219,383.2z"/>
<path id="XMLID_2135_" class="st2" d="M112.1,216.7c-1,0.4-1.9,0.8-2.9,1.3C109.7,216.3,110.1,214.8,112.1,216.7z"/>
<path id="XMLID_2133_" class="st2" d="M336,305.1c-0.6,0-1,0-1.5,0c0,0,0-0.4-0.1-0.6c0.3,0,0.6-0.1,0.9,0
	C335.5,304.5,335.7,304.7,336,305.1z"/>
<path id="XMLID_2132_" class="st2" d="M490,137.3c-0.1,1.2-0.8,1.9-2,2c0,0,0,0,0,0C488.1,138.1,488.8,137.4,490,137.3L490,137.3z"
	/>
<path id="XMLID_2131_" class="st0" d="M213.6,371.9c0.4-0.9,0.8-2.4,1.7-1.9c1.4,0.9,0,1.9-0.6,2.8
	C214.4,372.6,214,372.3,213.6,371.9z"/>
<path id="XMLID_2130_" class="st2" d="M336.4,294.2c0,0,0.1-0.1,0.1-0.1c0.7,0.2,1.6-0.2,2.1,0.7
	C337.7,295.2,337.1,294.5,336.4,294.2z"/>
<path id="XMLID_2129_" class="st2" d="M263.1,396.1c1.4,0.2,3.6-0.3,1.7,2.3C264.2,397.6,263.6,396.9,263.1,396.1z"/>
<path id="XMLID_2128_" class="st0" d="M137.9,316.3c1.3-0.9,1.5,0.4,2.1,1c0,0,0.1-0.1,0.1-0.1C138.8,318.2,138.4,317.2,137.9,316.3
	L137.9,316.3z"/>
<path id="XMLID_2127_" class="st0" d="M133.8,311.4c-0.2-0.4-0.3-0.8-0.5-1.2c0.3,0.1,0.6,0.1,0.7,0.2c0.3,0.4,0.2,0.9-0.4,1
	C133.7,311.4,133.8,311.4,133.8,311.4z"/>
<polygon id="XMLID_2125_" class="st2" points="224.1,392.6 224.1,392.9 223.8,392.8 "/>
<polygon id="XMLID_2124_" class="st2" points="233.3,396.4 233.5,396.1 233.6,396.4 "/>
<path id="XMLID_2122_" class="st0" d="M136.9,315.4c0.3-0.1,0.5-0.2,0.8-0.3c0.1,0.4,0.1,0.8,0.2,1.2c0,0,0.1-0.1,0.1-0.1
	c-0.7,0-0.9-0.4-1-1L136.9,315.4z"/>
<path id="XMLID_2121_" class="st2" d="M335.5,293.6c0,0,0.1,0,0.1,0C335.6,293.7,335.6,294.7,335.5,293.6z"/>
<path id="XMLID_2063_" class="st2" d="M715.2,226.9c4-1.6,7.9-3.3,12.5-5.2C725.5,225.8,721.8,227.4,715.2,226.9z"/>
<path id="XMLID_2045_" class="st2" d="M310.7,371c0.1-0.2,0.1-0.3,0.2-0.5c1-1.5,1.9-3.2,4.1-2.8c0.7,0.1,0.6,1,0.6,1.6
	c-0.1,2.6-2.2,2.3-3.8,2.8C311.4,371.7,311.1,371.4,310.7,371z"/>
<path id="XMLID_2044_" class="st1" d="M315.6,344c1.5,3-0.9,3.7-2.7,4.3c-2.1,0.7-1.8-1.2-1.9-2.4
	C313.3,347.2,313.8,343.9,315.6,344z"/>
<path id="XMLID_2042_" class="st1" d="M274.1,369.3l-0.4-0.1c0,0-0.4,0-0.4,0c-1-4.5,2.6-2.6,4.4-3.3c0.3,0.4,0.6,0.7,0.9,1.1
	C277.5,368.5,275.8,368.9,274.1,369.3z"/>
<path id="XMLID_2037_" class="st2" d="M311.7,372.1c-0.6,0.8-0.5,2.2-2.1,2.1c-1.3-0.1-1.4-1-1.6-1.9c0,0-0.1,0.1-0.1,0.1
	c0.9-0.5,1.9-0.9,2.8-1.4C311.1,371.4,311.4,371.7,311.7,372.1z"/>
<path id="XMLID_2034_" class="st2" d="M252.9,376.1c0.2,0.4,0.5,0.9,0.6,1.4c0,0.1-0.6,0.4-1,0.5c-0.2-0.4-0.5-0.8-0.6-1.2
	C251.9,376.6,251.9,376,252.9,376.1z"/>
<path id="XMLID_2032_" class="st2" d="M330,331.3c-0.1,0.6-0.3,1.2-0.4,1.9c-0.9-0.3-0.5-1.1-0.6-1.7
	C329.3,331.4,329.7,331.4,330,331.3z"/>
<path id="XMLID_2031_" class="st2" d="M332.1,314.4c-0.2,0.9-0.6,1.8-1.7,1.9c-0.1,0-0.3-0.3-0.2-0.4
	C330.5,315.1,331,314.3,332.1,314.4L332.1,314.4z"/>
<path id="XMLID_2030_" class="st2" d="M326.5,326.4c0,0.1,0,0.3-0.1,0.4c-0.1,0.1-0.3,0.1-0.4,0.1c-0.4-0.2-0.3-0.5,0.1-0.6
	C326.2,326.3,326.4,326.4,326.5,326.4z"/>
<path id="XMLID_2029_" class="st2" d="M309.1,315.3c-0.5-0.5-0.1-0.9,0.3-1.2c0.1-0.1,0.4,0.1,0.4,0.1c0.1,0.6-0.2,0.9-0.8,1
	L309.1,315.3z"/>
<path id="XMLID_2027_" class="st2" d="M332.1,314.5c0.1-0.7,0.3-1.2,1.1-0.9c0,0-0.1-0.1-0.1-0.1
	C332.8,313.8,332.4,314.1,332.1,314.5C332.1,314.4,332.1,314.5,332.1,314.5z"/>
<path id="XMLID_2026_" class="st2" d="M309,315.2c-0.1,0.7-0.4,1.1-1.1,0.9c0,0,0.1,0.1,0.1,0.1c0.2-0.5,0.3-1.2,1.1-0.9
	C309.1,315.3,309,315.2,309,315.2z"/>
<path id="XMLID_2025_" class="st2" d="M328.7,317.9c0.3-0.3,0.5-0.6,0.8-0.9c0.6,0.7,0.2,1-0.4,1.3
	C329,318.2,328.8,318.1,328.7,317.9z"/>
<path id="XMLID_2024_" class="st2" d="M329.1,318.4c-0.2,0.4-0.4,1-0.9,0.6c-0.4-0.4,0-0.8,0.5-1C328.8,318.1,329,318.2,329.1,318.4
	z"/>
<path id="XMLID_2023_" class="st2" d="M333,322.3c0.1-0.3,0.2-0.5,0.3-0.8c0.1,0.2,0.2,0.3,0.3,0.5
	C333.4,322.1,333.2,322.2,333,322.3L333,322.3z"/>
<path id="XMLID_2022_" class="st2" d="M333,322.2c0.1,0.7-0.1,1.2-1,1l0.1,0.1C332,322.6,332.4,322.3,333,322.2
	C333,322.3,333,322.2,333,322.2z"/>
<path id="XMLID_2021_" class="st2" d="M331.9,323.2c0,0.3,0,0.5,0,0.8c-0.2-0.1-0.4-0.2-0.6-0.2
	C331.6,323.6,331.8,323.5,331.9,323.2C332,323.3,331.9,323.2,331.9,323.2z"/>
<path id="XMLID_2020_" class="st2" d="M300.8,332.7c-0.1,0.1-0.1,0.2-0.2,0.3c-0.1-0.1-0.3-0.2-0.4-0.3c0.1-0.1,0.2-0.2,0.3-0.2
	C300.6,332.4,300.7,332.6,300.8,332.7z"/>
<path id="XMLID_2019_" class="st2" d="M281.3,333.6c0.1,0,0.3,0,0.3,0c0.1,0.1,0.2,0.3,0.2,0.3c-0.2,0.5-0.5,0.5-0.7,0
	C281.1,333.8,281.2,333.7,281.3,333.6z"/>
<path id="XMLID_2018_" class="st2" d="M322.6,339.1c-0.2-0.1-0.4-0.2-0.6-0.4c0.1-0.1,0.2-0.3,0.3-0.3c0.2,0.1,0.4,0.2,0.7,0.3
	C322.9,338.9,322.8,339,322.6,339.1z"/>
<path id="XMLID_2017_" class="st2" d="M277.3,342.6c-0.3,0.4-0.3,1.3-1.1,0.8c-0.7-0.4-0.1-1.1,0.1-1.6
	C276.6,342.1,277,342.3,277.3,342.6z"/>
<path id="XMLID_2016_" class="st2" d="M275.9,344.9c-0.1,0.1-0.2,0.2-0.4,0.4c-0.1-0.2-0.3-0.4-0.3-0.7c0-0.1,0.2-0.2,0.3-0.3
	C275.6,344.5,275.7,344.7,275.9,344.9z"/>
<path id="XMLID_2014_" class="st2" d="M329.5,327c-0.1-0.1-0.2-0.1-0.3-0.2c0.1-0.2,0.2-0.3,0.3-0.5c0.1,0.1,0.3,0.2,0.3,0.3
	C329.8,326.8,329.6,326.9,329.5,327z"/>
<path id="XMLID_2013_" class="st1" d="M271.9,358.7c-0.1,0.6-0.1,1.2-0.2,1.9C270.5,359.9,271.2,359.3,271.9,358.7z"/>
<path id="XMLID_2012_" class="st2" d="M341.2,431.5c-0.4,0.5-0.7,1-1.4,0.6c-0.8-0.5-0.1-0.9,0.2-1.3
	C340.5,431,340.9,431.3,341.2,431.5z"/>
<path id="XMLID_2011_" class="st2" d="M338.3,448.6c0.1,0,0.3,0,0.3,0c0.1,0.1,0.2,0.3,0.2,0.3c-0.2,0.5-0.5,0.5-0.7,0
	C338.1,448.8,338.2,448.7,338.3,448.6z"/>
<path id="XMLID_2010_" class="st1" d="M494.5,136.6c0.3-0.4,0.6-0.9,0.8-1.3C495.2,135.9,495.3,136.6,494.5,136.6z"/>
<path id="XMLID_1996_" class="st1" d="M550.6,192c0.3-2.4-2.1-5.6,2.1-6.8C552.5,187.7,552.7,190.2,550.6,192z"/>
<path id="XMLID_1995_" class="st1" d="M551,196.1c-2.5-0.8-1.9-1.9-0.3-3.1C550.8,194,550.9,195,551,196.1z"/>
<path id="XMLID_1994_" class="st2" d="M478.4,217.5c0.5-0.5,0.8-1.8,1.5-1.2c1,0.8-0.1,1.5-0.7,2.1
	C478.9,218.1,478.6,217.8,478.4,217.5z"/>
<path id="XMLID_1985_" class="st2" d="M556.3,367.6c0.6,1.8,1.9,3.6-0.2,4.9c-0.5,0.3-1.4,0.8-1.7,0.1
	C553.7,370.5,555.1,369.1,556.3,367.6z"/>
<path id="XMLID_1984_" class="st2" d="M463.6,381.9c1.3-0.9,1.4-0.3,1.2,0.9C464.4,382.4,464,382.2,463.6,381.9z"/>
<path id="XMLID_1983_" class="st2" d="M292.3,297.6c8.2-2.6,16.5-4.3,25.2-4.2C309.4,296.6,300.8,296.8,292.3,297.6z"/>
<path id="XMLID_1982_" class="st0" d="M518,208.4c-0.9-0.4-1-1.3-1.2-2.1c0-0.7,0.1-1.4,0.1-2c-0.1-7.7,3-15.1,2.2-22.9c0,0,0,0,0,0
	c3.2,1.2,5.8,0.1,8-2.2c0.9,0.4,0.7,1,0.2,1.4c-7.9,6.5-7.1,15.6-7.2,24.4C520.1,206.8,519.6,207.8,518,208.4z"/>
<path id="XMLID_1980_" class="st0" d="M506.3,182.8c-0.6,0.2-1.4,0.8-1.8,0.6c-1.5-0.7-0.3-1.7,0.2-2.3c2.4-2.7,4.6-5.6,8.3-7.5
	c-0.8,3.8-4.3,5.1-5.7,8c0,0,0,0.2,0,0.2c-0.3,0.4-0.6,0.7-1,1.1L506.3,182.8z"/>
<path id="XMLID_1971_" class="st2" d="M632.5,228c6.5-3.1,8.6-3.2,12.8-1.3C641.8,229.3,637.7,227.5,632.5,228z"/>
<path id="XMLID_1947_" class="st1" d="M204.7,319.1c-1.4-0.7-3.9,0-3.7-2.8c1.8-1.6,2.7,0.5,4,0.9
	C204.9,317.8,204.8,318.5,204.7,319.1z"/>
<path id="XMLID_1881_" class="st2" d="M355,162.5c0,0.7-0.1,1.3-0.1,2c-1.6-0.2-3.1-0.4-5.1-0.6C351.4,161.6,353.4,162.9,355,162.5z
	"/>
<path id="XMLID_1879_" class="st1" d="M471.2,165c-0.2-1.3-0.3-2.7,0.9-3.7C473.3,162.9,472.1,163.9,471.2,165z"/>
<path id="XMLID_1878_" class="st1" d="M469.9,167.7c-1.1-1.6-0.1-2.2,1.3-2.5C470.8,166.1,470.3,166.9,469.9,167.7z"/>
<path id="XMLID_1877_" class="st1" d="M457.1,193.7c0.4-0.5,0.7-0.9,1.1-1.4C457.9,192.8,457.5,193.2,457.1,193.7z"/>
<path id="XMLID_1875_" class="st0" d="M214.9,307.6c0.7,1.3,1.2,2.7,2.1,3.9c1.9,2.4,4.2,4.6,7.5,4.2c3.5-0.4,3.8-3.6,4.7-6.3
	c3.9-12.4,1.4-23.9-5.1-34.7c-1.1-1.8-2.5-3-4.6-3.4c-5.1-1-7.9,1.5-7.5,6.7c-3.5-0.2-3.2-2.5-2.2-4.7c2.5-5.2,11.7-6.3,14.9-1.5
	c8.6,12.8,11.8,26.6,5.7,41.4c-2.5,6-7.5,7-12.2,2.5c-7.7-7.3-9.7-16.7-9.4-26.8c0.1-2.9,0.6-5.7,2.1-8.6c0.2,2.3,0.3,4.6,0.5,6.9
	c-0.2,1-0.4,1.9-0.6,2.9c-0.6,1.4-0.4,2.8,0.3,4.1c0.1,0.3,0.1,0.7,0.2,1c0.1,2-0.2,4.1,0.7,6c0.1,0.3,0.1,0.7,0.2,1
	C212.1,304.5,213.2,306.2,214.9,307.6z"/>
<path id="XMLID_1874_" class="st1" d="M104.5,244.3c0.1,1,0.3,2,0.4,3c-0.9,0-1.9,0-2.8,0c0-1,0-2,0-3
	C102.9,244.3,103.7,244.3,104.5,244.3z"/>
<path id="XMLID_1873_" class="st1" d="M103,217.3c0.3-0.7,0.5-1.4,0.8-2.1c0.5,0.3,1.4,0.7,1.4,1C105.1,217.6,103.9,217.1,103,217.3
	z"/>
<path id="XMLID_1863_" class="st2" d="M133.4,351.7c0.4-0.6,0.7-1.3,1.1-1.9c0.2,0.2,0.5,0.4,0.7,0.6c-0.1,0.8-0.2,1.6-1.1,1.9
	C133.8,352.1,133.6,351.9,133.4,351.7z"/>
<path id="XMLID_1859_" class="st2" d="M134,352.3c-0.1,0.4-0.3,0.9-0.7,0.5c-0.1-0.1,0.1-0.7,0.1-1.1
	C133.6,351.9,133.8,352.1,134,352.3z"/>
<path id="XMLID_1852_" class="st1" d="M137,315.3c0.1,0.6,0.3,1,1,1c0.4,0.9,0.8,2,2,0.9c-1.1,1.4,1,2.6,0.6,4.3
	c-4.1-1-5-4.1-5.7-7.3C136,313.9,136.3,315,137,315.3z"/>
<path id="XMLID_1851_" class="st1" d="M134,313.2c1-0.3,1.2,0.3,1.1,1.1C133.8,314.9,133.9,314,134,313.2z"/>
<path id="XMLID_1850_" class="st1" d="M141.1,321.6c0.1-0.1,0.2-0.2,0.4-0.4c0.1,0.2,0.3,0.4,0.3,0.7c0,0.1-0.2,0.2-0.3,0.3
	C141.4,322.1,141.3,321.8,141.1,321.6z"/>
<path id="XMLID_1847_" class="st0" d="M317,416.4c-1.6,0-1.9-1.1-2-2.3c-0.8-13.6,0.7-26.9,7.7-39c1.4-2.4,9.5-6.5,11.9-5.9
	c5.6,1.4,7.5,6.4,7.9,10.9c1.2,13.3-0.7,26.3-8.5,37.6C329.3,424.6,321.5,426.8,317,416.4c0.8-0.3,1.5-0.1,2.2,0.5
	c6,5.1,9.7,4.5,13.9-2.3c6.8-11,7.4-23.3,6.5-35.6c-0.2-3.2-1.6-7.8-6.5-7.3c-3.6,0.3-6.8,3.3-8.8,5.4c-4.9,5.2-6.8,13.1-6.7,19.7
	C317.7,403.4,317,409.8,317,416.4z"/>
<path id="XMLID_1846_" class="st0" d="M348,369.2c2.8,9.1,1.9,18.2,0.8,27.4c-1,8.9-4.8,16.6-8.6,24.3c-0.5-0.2-1-0.3-1.5-0.5
	c1.4-3.6,2.6-7.3,4.2-10.8c4.2-9.1,4.1-19,5-28.7c0.3-2.9-0.6-5.9-2.3-8.5c-0.7-1.1-1.7-2.3-0.6-3.6c1-1.1,1.9,1.1,3.1,0.5
	C348.1,369.3,348,369.2,348,369.2z"/>
<path id="XMLID_1845_" class="st0" d="M312.6,435.8c1.4-1.1,1.7-3.4,4.7-1.4c2.3,1.6,6.7,1.1,9.5-1.9c0.8-0.9,2.3-2.3,3.3-0.8
	c0.9,1.3-0.8,2.3-1.8,3.1C323.4,438.6,318,436.7,312.6,435.8z"/>
<path id="XMLID_1844_" class="st0" d="M323.7,361.9c3-3.2,6.4-4.9,12.1-2.2c-4.7,0.5-8.2,0.7-10.9,3.2
	C324.4,362.6,324.1,362.3,323.7,361.9z"/>
<path id="XMLID_1840_" class="st0" d="M320.1,347.8c1.8-0.3,3.7-0.7,5.5-1c0.1,0.3,0.2,0.5,0.2,0.8c-2.9,0.9-5.9,1.9-8.8,2.8
	c-0.3,0.1-0.7,0.2-1,0.3c-0.5,0.1-1,0.2-1.5,0.3c-0.2-0.3-0.5-0.6-0.7-0.9c1.4-0.6,2.8-1.2,4.2-1.8
	C318.7,348.1,319.4,347.9,320.1,347.8z"/>
<path id="XMLID_1839_" class="st1" d="M316,350.6c0.3-0.1,0.7-0.2,1-0.3c2,0.6,4,1.3,6,1.9l0,0C320.4,353.1,317.4,355.4,316,350.6z"
	/>
<path id="XMLID_1838_" class="st1" d="M320.1,347.8c-0.7,0.1-1.4,0.3-2.1,0.4c0.1-0.8-0.2-2,1-2.2C320,346,319.9,347.1,320.1,347.8z
	"/>
<path id="XMLID_1837_" class="st1" d="M323,352.3c0.1-0.6,0.2-1.3,1-1.4c0.1,0,0.3,0.2,0.3,0.3C324.3,352.1,323.6,352.1,323,352.3
	L323,352.3z"/>
<path id="XMLID_1834_" class="st0" d="M298.5,338.9c-1,0.4-2,0.7-3,1.1c-0.3-0.4-0.6-0.8-0.9-1.2c1-0.3,2-0.6,3-1
	C297.9,338.2,298.2,338.5,298.5,338.9z"/>
<path id="XMLID_1833_" class="st0" d="M295.5,340c-1.1,0.1-2.6,1.8-3.2,0.3c-0.6-1.3,1.5-1,2.3-1.5
	C294.9,339.2,295.2,339.6,295.5,340z"/>
<path id="XMLID_1824_" class="st0" d="M271.5,422.6c1.2-0.6,2.3-2.1,4-1c-0.5,1.6-2,1.5-3.1,2.1C272,423.3,271.8,422.9,271.5,422.6z
	"/>
<path id="XMLID_1823_" class="st0" d="M276.6,420.3c0.3,0.1,0.6,0.2,0.9,0.3c-0.3,0.3-0.5,0.6-0.9,0.7c-0.1,0.1-0.5-0.3-0.7-0.5
	C276.1,420.7,276.3,420.5,276.6,420.3z"/>
<path id="XMLID_1820_" class="st0" d="M306.3,317.6c-0.3,0.5-0.4,1.3-1.2,0.9c-0.8-0.4-0.3-1,0-1.5
	C305.5,317.2,305.9,317.4,306.3,317.6z"/>
<polygon id="XMLID_1818_" class="st2" points="328,336.3 328.3,336 328,336.3 "/>
<polygon id="XMLID_1817_" class="st2" points="328,336.3 327.7,336.6 328,336.3 "/>
<path id="XMLID_1816_" class="st0" d="M547.9,165.8c0.8-0.3,1.7-1,2.2,0.4c-1.1,1.2-2.2,2.4-3.3,3.6c-0.7,0.8-1.5,1.6-2.2,2.4
	c-0.3,0.2-0.5,0.5-0.8,0.7c-3.2,2.8-6,5.9-8.6,9.2c-2.1,1.9-4.2,3.9-6.3,5.8c-0.3-0.3-0.6-0.7-1-1
	C534.7,179.9,541.3,172.9,547.9,165.8z"/>
<path id="XMLID_1814_" class="st0" d="M538.1,183.7c2.3-2.7,5.7-4.5,7.2-7.8c3.5,0,1.6,1.7,0.7,2.6c-3.1,3.2-6.3,6.3-9.5,9.5
	c-0.3-0.3-0.6-0.7-0.9-1C536.5,185.9,537.3,184.8,538.1,183.7z"/>
<path id="XMLID_1813_" class="st0" d="M545.9,161.9c-3.1,0-1-2.2-0.7-2.4c2.4-1.2,3.5-4.3,6.5-4.6c0,0.4,0,0.8,0,1.2
	c-0.8,0.8-1.7,1.7-2.5,2.5c-0.3,0.2-0.4,0.5-0.3,0.8c-0.3,0.2-0.7,0.4-1,0.5C547.2,160.6,546.6,161.2,545.9,161.9z"/>
<path id="XMLID_1812_" class="st0" d="M530.2,192.7c1.2-1.2,2.4-2.4,3.6-3.7c0.4,0.2,0.7,0.5,1.1,0.7c-1.2,1.3-2.4,2.5-3.6,3.8
	C530.9,193.3,530.5,193,530.2,192.7z"/>
<path id="XMLID_1811_" class="st0" d="M536,170.2c-0.1-1.4,0.8-2.1,1.9-2.4c0.9-0.3,0.9,0.6,1,1.2c0,0,0.1,0,0.1,0
	c-0.4,0.4-0.8,0.8-1.1,1.2C537.2,170.3,536.6,171.5,536,170.2z"/>
<path id="XMLID_1810_" class="st0" d="M544.6,188.9c0.4-0.9,1-2.5,1.8-1.8c1.6,1.3-0.4,2.1-1,3.1
	C545.2,189.8,544.9,189.3,544.6,188.9z"/>
<path id="XMLID_1809_" class="st0" d="M531.3,193.6c-0.3,0.7-0.9,1.6-1.6,1c-0.8-0.6,0.1-1.3,0.5-1.9
	C530.5,193,530.9,193.3,531.3,193.6z"/>
<path id="XMLID_1808_" class="st1" d="M544.6,172.2c0.7-0.8,1.5-1.6,2.2-2.4C546.9,171.3,546.2,172.1,544.6,172.2z"/>
<path id="XMLID_1807_" class="st0" d="M526.9,179.2c0.5-0.7,0.7-2,2-1C528.7,179.4,528.5,180.7,526.9,179.2z"/>
<path id="XMLID_1806_" class="st0" d="M535.4,201.1c-0.5-1-0.9-1.5-0.8-1.6c0.3-0.3,0.7-0.5,1.2-0.7c0.1,0,0.5,0.5,0.4,0.7
	C536,199.9,535.8,200.3,535.4,201.1z"/>
<path id="XMLID_1805_" class="st0" d="M540,195.8c-0.8,0.6-1.3,2.3-2.5,1.3c-0.8-0.7,0.4-1.5,1.2-2
	C539.2,195.3,539.6,195.5,540,195.8z"/>
<path id="XMLID_1804_" class="st0" d="M532,175.8c-1.6-1.6,0-2,1-2.6C534.4,174.8,532.6,175.1,532,175.8z"/>
<path id="XMLID_1803_" class="st0" d="M532.9,173.3c0-0.7,0.2-1.1,1-1c0.1,0.4,0.8,0.6,0.2,1.2C533.6,173.9,533.3,173.3,532.9,173.3
	z"/>
<path id="XMLID_1802_" class="st0" d="M533.9,172.2c-0.1-0.8,0.3-1.1,1-1c0,0.4,0.2,0.9,0,1.2C534.6,173.2,534.3,172.3,533.9,172.2z
	"/>
<path id="XMLID_1801_" class="st0" d="M534.9,171.3c-0.1-0.8,0.3-1.1,1-1c0,0.4,0,0.7,0.1,1.1C535.7,171.3,535.3,171.3,534.9,171.3z
	"/>
<path id="XMLID_1800_" class="st1" d="M537.8,170.2c0.4-0.4,0.8-0.8,1.1-1.2C538.5,169.4,538.2,169.8,537.8,170.2z"/>
<path id="XMLID_1799_" class="st0" d="M534.7,188c0.3-0.4,0.6-0.7,1-1.1c0.3,0.3,0.6,0.7,0.9,1c-0.4,0.4-0.7,0.9-1.1,1.3
	C535.2,188.8,535,188.4,534.7,188z"/>
<path id="XMLID_1798_" class="st1" d="M547.9,160c0.3-0.2,0.7-0.3,1-0.5C549,160.4,548.7,160.7,547.9,160z"/>
<path id="XMLID_1797_" class="st0" d="M536.6,198.1c-0.2-0.1-0.4-0.2-0.6-0.4c0.1-0.1,0.2-0.3,0.3-0.3c0.2,0.1,0.4,0.2,0.7,0.3
	C536.9,197.9,536.8,198,536.6,198.1z"/>
<path id="XMLID_1796_" class="st0" d="M538.8,195c0.3-0.4,0.6-0.7,0.9-1.1c0.4,0.3,0.9,0.6,1.3,0.9c-0.3,0.3-0.6,0.7-0.9,1
	C539.6,195.5,539.2,195.3,538.8,195z"/>
<path id="XMLID_1795_" class="st0" d="M539.6,193.9c0.3-0.3,0.7-0.7,1-1c0.5,0.3,0.9,0.6,1.4,0.9c-0.3,0.3-0.7,0.7-1,1
	C540.5,194.5,540.1,194.2,539.6,193.9z"/>
<path id="XMLID_1794_" class="st0" d="M540.6,192.9c0.3-0.3,0.7-0.7,1-1c0.5,0.2,1,0.5,1.5,0.7c-0.4,0.4-0.7,0.8-1.1,1.2
	C541.6,193.5,541.1,193.2,540.6,192.9z"/>
<path id="XMLID_1793_" class="st0" d="M541.6,191.9c0.4-0.6,1-1.4,1.8-0.7c0.6,0.5,0.2,1.1-0.3,1.5
	C542.6,192.4,542.1,192.2,541.6,191.9z"/>
<path id="XMLID_1792_" class="st0" d="M545.5,190.2c-0.4,0.5-1,1-1.5,0.5c-0.8-0.8,0.1-1.3,0.6-1.8
	C544.9,189.3,545.2,189.8,545.5,190.2z"/>
<path id="XMLID_1791_" class="st0" d="M529,178.2c0.1-0.4,0.1-0.8,0.2-1.2c0.3,0.1,0.6,0.1,0.9,0.2
	C530.1,178.1,529.9,178.5,529,178.2z"/>
<path id="XMLID_1790_" class="st0" d="M533.8,189c0.3-0.4,0.6-0.7,1-1.1c0.2,0.4,0.5,0.8,0.7,1.2c-0.1,0.3-0.3,0.4-0.6,0.6
	C534.5,189.5,534.1,189.3,533.8,189z"/>
<path id="XMLID_1789_" class="st0" d="M530,177.2c-0.1-0.6-0.1-1.3,0.6-1.5c0.3-0.1,0.7,0.3,1,0.5
	C531.2,176.8,530.8,177.5,530,177.2z"/>
<path id="XMLID_1788_" class="st1" d="M506.4,182.8c0.3-0.4,0.7-0.7,1-1.1C507.5,182.5,507.2,182.8,506.4,182.8z"/>
<path id="XMLID_1787_" class="st0" d="M689,185.2c2.2-4.8,9.6-5.4,9.3-12.5c0.4,4.1,3.2,4.9,6.4,5.9
	C697.4,176.6,694.5,183.4,689,185.2z"/>
<path id="XMLID_1786_" class="st0" d="M682.6,182.2c2.5-4.6,6.5-5.7,7.9-9.3c0.3-0.7,1.4-1,2.1-0.3c0.7,0.8,0.2,1.6-0.3,2.2
	C690,177.7,687.2,179.9,682.6,182.2z"/>
<path id="XMLID_1785_" class="st0" d="M674.7,180.2c1.5-2.9,3.9-4.7,7.9-6.5C680.3,177.6,677.6,179,674.7,180.2z"/>
<path id="XMLID_1784_" class="st0" d="M678.4,184.6c1.5-1.3,2.7-3,5.5-3.8c-1.2,2.7-3,3.6-4.7,4.6
	C678.9,185.2,678.7,184.9,678.4,184.6z"/>
<path id="XMLID_1783_" class="st0" d="M677.5,186.9c-0.9,1.1-1.8,2.3-3.5,2c0.2-1.7,1.6-2.2,2.7-2.9
	C677,186.3,677.3,186.6,677.5,186.9z"/>
<path id="XMLID_1782_" class="st0" d="M676.7,186c0.6-0.5,1.1-0.9,1.7-1.4c0.3,0.3,0.5,0.6,0.8,0.8c-0.5,0.5-1.1,0.9-1.6,1.4
	C677.3,186.6,677,186.3,676.7,186z"/>
<path id="XMLID_1781_" class="st0" d="M673.5,180.2c0.1,0.3,0.3,0.5,0.3,0.7c0,0.1-0.2,0.2-0.3,0.3c-0.1-0.2-0.3-0.4-0.3-0.7
	C673.2,180.5,673.4,180.4,673.5,180.2z"/>
<path id="XMLID_1780_" class="st0" d="M519.5,176.3c1.6-3.7,5.6-4.1,8.3-6.2c0.4,0.2,0.9,0.4,1.3,0.6c-3.2,2.1-5,5.7-8.6,7.3
	C520.1,177.4,519.8,176.8,519.5,176.3z"/>
<path id="XMLID_1779_" class="st0" d="M535.7,164.8c-1.5,1.3-2.9,2.5-4.4,3.8c-0.4-0.3-0.7-0.5-1.1-0.8c1.5-1.3,3-2.6,4.4-3.9
	C535,164.2,535.3,164.5,535.7,164.8z"/>
<path id="XMLID_1778_" class="st0" d="M530.7,158c0.5-0.8,1.3-2.2,2-1.5c1.1,1.1-0.5,1.8-1.2,2.6C531.2,158.8,531,158.4,530.7,158z"
	/>
<path id="XMLID_1777_" class="st0" d="M541.5,159c-0.2-0.5-0.5-1-0.4-1.1c0.3-0.3,0.7-0.5,1.1-0.5c0.1,0,0.4,0.4,0.5,0.7
	C542.4,158.3,542,158.5,541.5,159z"/>
<path id="XMLID_1776_" class="st0" d="M530.9,159.7c-0.7,0.7-1,2.4-2.3,1.3c-0.7-0.6,0.4-1.5,1.2-2
	C530.1,159.3,530.5,159.5,530.9,159.7z"/>
<path id="XMLID_1775_" class="st0" d="M527.8,170c0.4-0.5,0.7-1.1,1.4-0.8c0.8,0.4,0.3,0.9-0.1,1.3
	C528.6,170.4,528.2,170.2,527.8,170z"/>
<path id="XMLID_1774_" class="st0" d="M531.3,168.6c-0.4,0.4-0.8,1.3-1.5,0.7c-0.8-0.6,0-1,0.4-1.5
	C530.5,168.1,530.9,168.3,531.3,168.6z"/>
<path id="XMLID_1773_" class="st0" d="M534.6,163.9c0.4-0.3,0.7-0.6,1.1-0.9c0.3,0.3,0.7,0.6,1,0.8c-0.4,0.3-0.7,0.7-1.1,1
	C535.3,164.5,535,164.2,534.6,163.9z"/>
<path id="XMLID_1772_" class="st0" d="M537.7,162.8c-0.3,0.3-0.7,0.7-1,1c-0.3-0.3-0.7-0.6-1-0.8c0.3-0.3,0.7-0.7,1-1
	C537,162.2,537.4,162.5,537.7,162.8z"/>
<path id="XMLID_1771_" class="st0" d="M539.9,160.7c-0.5,0.5-1,1-1.5,1.5c-0.2-0.4-0.5-0.8-0.7-1.1c0.4-0.3,0.7-0.6,1.1-0.9
	C539.2,160.3,539.6,160.5,539.9,160.7z"/>
<path id="XMLID_1770_" class="st0" d="M538.8,160.1c0.3-0.5,0.7-1.1,1.4-0.7c0.8,0.5,0.2,0.9-0.2,1.3
	C539.6,160.5,539.2,160.3,538.8,160.1z"/>
<path id="XMLID_1769_" class="st0" d="M531.5,159.2c-0.1,0.3-0.3,0.5-0.6,0.6c-0.4-0.2-0.7-0.5-1.1-0.7c0.3-0.4,0.6-0.7,0.9-1.1
	C531,158.4,531.2,158.8,531.5,159.2z"/>
<path id="XMLID_1768_" class="st0" d="M536.7,162c0.3-0.3,0.7-0.6,1-1c0.2,0.4,0.5,0.8,0.7,1.1c-0.2,0.3-0.4,0.5-0.7,0.7
	C537.4,162.5,537,162.2,536.7,162z"/>
<path id="XMLID_1762_" class="st0" d="M382.5,151.5c6-0.7,11.9-1.3,17.3-3.1c8-2.7,4.7,2.1,4.6,5.5c-0.3,5.8-2.7,9.2-8.2,12
	c-3.8,1.9-7.7,4.1-11.6,6c-1.2,0.6-2.4,1.1-3.9-0.6c6.7-1.9,10.7-8,17.5-9.7c2.7-0.6,4.8-8.6,3.4-11.1c-0.9-1.6-1.5-0.5-2.6,0
	C393.6,153,388,152.2,382.5,151.5z"/>
<path id="XMLID_1761_" class="st0" d="M417,162.3c1.2,0,2.4-1.4,4.1,0c-5.8,3.2-11.4,6.2-17,9.4c-1.9,1.1-4.4,1.7-5.2,4.3
	c-1.4-0.2-3,0.8-4.3-1C402.1,170.7,409.5,166.5,417,162.3z"/>
<path id="XMLID_1760_" class="st0" d="M351,153.8c8.3-0.2,16.3-3.2,24.7-2.5c0.1,0.5,0.1,1,0.2,1.6c-8.2,1-16.4,1.9-24.6,2.9
	C351.2,155.1,351.1,154.4,351,153.8z"/>
<path id="XMLID_1759_" class="st0" d="M417.6,150.1c-1.7,1.4-3.3,2.8-5,4.2c-1.1,0.7-2.3,1.4-3.3,2.2c-0.8,0.7-1.1,2.5-2.5,1.3
	c-1.1-0.9,1-1.9,0.4-3.1l0.2-0.1c3.7-0.8,5.7-4,8.6-6c0.6-0.4,1.3-1.3,2-0.3C418.2,148.7,417.7,149.6,417.6,150.1z"/>
<path id="XMLID_1758_" class="st0" d="M378,167.3c0.1-0.6,0.2-1.2,0.2-1.8c2.2-0.4,4.5-0.9,6.7-1c0.6,0,1.6,0.7,1.9,1.3
	c0.3,0.9-0.6,1.3-1.4,1.5C383,167.8,380.5,169.1,378,167.3z"/>
<path id="XMLID_1757_" class="st0" d="M428,149.3c-2.3-1.1-4.6-1.2-7-0.6c-0.2-0.6-0.4-1.2-0.6-1.8c1.3-0.7,2.6-1.4,4-2
	c0,0,0.1-0.3,0.1-0.3l0.1,0.1c0.4,1.6,1.9,1.6,3.1,2C429.6,147.2,429.3,148.2,428,149.3z"/>
<path id="XMLID_1755_" class="st2" d="M409,147.3c0.8,0,1.6-0.1,2.4-0.1c-0.1,0.3-0.1,0.7-0.2,0.8
	C410.2,148.4,409.6,147.9,409,147.3C409,147.3,409,147.3,409,147.3z"/>
<path id="XMLID_1753_" class="st0" d="M419.1,154.5c7.3,7,15.4,5,23.5,3.4c1-0.2,2.2-1.6,2.7,0.4c0.3,1.4-0.8,2.1-1.9,2.4
	c-3.7,0.9-7.5,1.3-11.3,0.8c-1-0.1-2.8-0.3-2.8-0.1c-1.1,4.4-2.4,0.5-3.7,0.2c-3.5-0.7-5.2-3.1-6.7-5.9
	C418.8,155.8,418.9,155.6,419.1,154.5z"/>
<path id="XMLID_1752_" class="st0" d="M424.1,138.3c0.1,1.3-0.6,2.7,0.7,3.7c-0.6,0.1-1.2,0.3-1.8,0.4c-1.1-0.2-3-0.3-2.5-1.6
	c2-5.1,0.7-10.8,2.9-15.8c0.2-0.4,1.1-0.4,1.7-0.7c0,0-0.1-0.1-0.1-0.1C424.7,128.9,424.4,133.6,424.1,138.3z"/>
<path id="XMLID_1751_" class="st0" d="M428,150.8c5.2,1.3,9.4-1.8,14-3.1c1.1,0.7,3.3,1.9,0.8,2.7c-3.9,1.3-7.8,2.9-12.1,2.8
	C429.2,153.3,426.9,153.8,428,150.8z"/>
<path id="XMLID_1750_" class="st0" d="M447.7,148.7c4.7-3.6,9.1-1.5,12.8-2.8c0.1,0,0.8,0.7,0.8,1.1c0,1.3-1.1,1.6-2.1,1.7
	C455.8,148.8,452.4,148.7,447.7,148.7z"/>
<path id="XMLID_1749_" class="st0" d="M436,144.3c-2.5-0.7-5-1.3-7.4-2c-1.4-0.4-2.8-0.9-0.6-2.3c2.3,0.4,4.5,1.7,7.1,0.6
	c1.2-0.5,2.7,0.1,3.1,1.6C438.5,143.6,436.9,143.8,436,144.3z"/>
<path id="XMLID_1748_" class="st0" d="M462.5,155.6c-2.9,2.8-6.5,2.1-10.8,2.6C455.2,153.9,459.2,156.2,462.5,155.6z"/>
<path id="XMLID_1747_" class="st0" d="M429.8,169.8c-2.2,2.4-4.6,4.6-8.5,7.1c1.9-4.3,5-5.8,7.3-8
	C429,169.2,429.4,169.5,429.8,169.8z"/>
<path id="XMLID_1746_" class="st0" d="M465,170.3c-0.6,2.9-1.7,5.4-5,6C460.9,173.6,462.3,171.4,465,170.3z"/>
<path id="XMLID_1745_" class="st1" d="M468,157c1.2,1.7,1.4,3.2,0.2,4.6c-0.2,0.2-1.2,0.2-1.3,0.1C466.1,159.9,468,158.6,468,157z"
	/>
<path id="XMLID_1744_" class="st1" d="M458.7,142.4c0.8,0.1,1.6,0.1,1.5,1c0,0.3-0.7,0.6-1.1,0.7c-0.6,0.1-1.4,0-1.3-0.9
	C457.8,142.9,458.4,142.6,458.7,142.4z"/>
<path id="XMLID_1743_" class="st0" d="M421.7,169.8c-0.8,1.4-2.3,1.8-3.6,2.5l0.1,0.1c0.1-1.7,1.2-2.6,2.6-3.4
	C421,169.3,421.3,169.5,421.7,169.8z"/>
<path id="XMLID_1742_" class="st0" d="M418.1,172.3c-0.7,1.3-1.1,2.8-2.8,3.3c-0.3-0.4-0.6-0.7-0.9-1.1
	C415.3,173.2,416.7,172.7,418.1,172.3C418.1,172.4,418.1,172.3,418.1,172.3z"/>
<path id="XMLID_1741_" class="st1" d="M423.3,119.7c0.1-0.2,0.3-0.7,0.5-0.7c0.6-0.2,0.9,0.3,0.9,0.8c0,0.3-0.2,0.7-0.5,0.8
	C423.6,120.8,423.3,120.4,423.3,119.7z"/>
<path id="XMLID_1740_" class="st1" d="M433.5,137.2c-0.2,0.2-0.4,0.3-0.6,0.5c-0.1-0.1-0.3-0.4-0.2-0.4c0.2-0.2,0.4-0.3,0.6-0.5
	C433.3,137,433.4,137.1,433.5,137.2z"/>
<path id="XMLID_1739_" class="st1" d="M423,142.4c0.6-0.1,1.2-0.3,1.8-0.4c0,0,0.2,0.3,0.2,0.3c-0.2,0.7-0.4,1.4-0.6,2.2
	c0,0-0.1,0.3-0.1,0.3C423.9,144,423.5,143.2,423,142.4z"/>
<path id="XMLID_1738_" class="st1" d="M464.5,143.2c0.1-0.1,0.2-0.3,0.3-0.4c0.2,0.2,0.4,0.3,0.6,0.5c0,0-0.2,0.2-0.3,0.4
	C464.9,143.6,464.7,143.4,464.5,143.2z"/>
<path id="XMLID_1737_" class="st0" d="M424.6,166.8c-0.7,0.7-1.4,1.4-2.1,2.1c-0.3-0.3-0.6-0.7-0.8-1c0.7-0.6,1.4-1.3,2-1.9
	C424,166.3,424.3,166.5,424.6,166.8z"/>
<path id="XMLID_1736_" class="st0" d="M439.1,170c-0.2,0.1-0.6,0.5-1,0.5c-0.4,0-0.9-0.3-0.6-0.8c0.2-0.3,0.6-0.7,1-0.7
	C439.1,168.8,439.4,169.2,439.1,170z"/>
<path id="XMLID_1735_" class="st0" d="M436.8,171.8c-0.8,0.6-1.6,1.2-2.4,1.8c-0.3-0.3-0.7-0.6-1-0.9c0.8-0.6,1.6-1.2,2.3-1.8
	C436.1,171.2,436.4,171.5,436.8,171.8z"/>
<path id="XMLID_1734_" class="st0" d="M451.9,178.2c-0.6,0-1.2,1.3-1.9,0.1c0.1-1.2,1-1.7,1.8-2.2c0.3,0.3,0.6,0.6,0.9,0.9
	C452.4,177.4,452.2,177.8,451.9,178.2z"/>
<path id="XMLID_1733_" class="st0" d="M459,178.3c0.1,1.3-1,1.6-1.7,2.3c-0.4-0.3-0.8-0.6-1.1-0.8c0.3-0.5,0.6-1,0.8-1.4
	C457.7,178.2,458.4,176.8,459,178.3z"/>
<path id="XMLID_1732_" class="st0" d="M465.8,168.4c0.2,0.8,1,1.8-0.7,1.9C463.8,169.1,465.3,168.9,465.8,168.4z"/>
<path id="XMLID_1731_" class="st0" d="M460.1,176.3c1.1,1.4,0.1,1.7-1,2C457.8,176.8,458.7,176.5,460.1,176.3z"/>
<path id="XMLID_1730_" class="st0" d="M432.2,167.5c-0.6,0.6-1.2,1.2-1.7,1.7c-0.2-0.4-0.4-0.8-0.7-1.1c0.6-0.6,1.2-1.1,1.8-1.7
	C431.8,166.7,432,167.1,432.2,167.5z"/>
<path id="XMLID_1729_" class="st0" d="M454.2,175.5c-0.1,0.3-0.2,0.5-0.3,0.8c0,0,0,0,0,0c-0.4,0.3-0.8,0.5-1.2,0.8
	c-0.3-0.3-0.6-0.6-0.9-0.9c0.6-0.5,1.1-1,1.7-1.5C453.7,174.9,454,175.2,454.2,175.5z"/>
<path id="XMLID_1728_" class="st0" d="M430.7,175c0.3-0.8,0.9-1.3,1.7-1.4c0.2,0.3,0.5,0.6,0.7,0.9c-0.5,0.5-1.1,1-1.6,1.4
	C431.3,175.6,431,175.3,430.7,175z"/>
<path id="XMLID_1727_" class="st0" d="M453.5,174.6c0.5-0.2,1-1,1.5,0c0.1,0.1-0.5,0.6-0.8,0.9C454,175.2,453.7,174.9,453.5,174.6z"
	/>
<path id="XMLID_1726_" class="st0" d="M440.5,174.6c0.4,0,0.8-0.1,1.2-0.1c-0.1,0.4-0.3,0.7-0.4,1.1
	C441.1,175.3,440.8,174.9,440.5,174.6z"/>
<path id="XMLID_1725_" class="st0" d="M432.5,173.6c0.3-0.3,0.6-0.6,0.9-0.8c0.3,0.3,0.7,0.6,1,0.9c-0.4,0.3-0.8,0.5-1.2,0.8
	C432.9,174.1,432.7,173.9,432.5,173.6z"/>
<path id="XMLID_1724_" class="st0" d="M435.7,171c0.4-0.4,0.8-1.1,1.5-0.5c0.7,0.6-0.1,1-0.4,1.4C436.4,171.5,436.1,171.2,435.7,171
	z"/>
<path id="XMLID_1723_" class="st0" d="M430.4,169.2c-0.1,0.3-0.3,0.5-0.6,0.6c-0.4-0.3-0.8-0.6-1.2-0.9c0.4-0.3,0.8-0.6,1.1-0.9
	C430,168.4,430.2,168.8,430.4,169.2z"/>
<path id="XMLID_1722_" class="st0" d="M422.5,169c-0.3,0.3-0.6,0.6-0.8,0.8c-0.3-0.3-0.6-0.5-1-0.8c0.3-0.3,0.7-0.7,1-1
	C422,168.3,422.2,168.6,422.5,169z"/>
<path id="XMLID_1721_" class="st0" d="M431.6,166.4c0.4,0.1,0.8,0.1,1.1,0.2c-0.2,0.3-0.4,0.6-0.6,0.9
	C432,167.1,431.8,166.7,431.6,166.4z"/>
<path id="XMLID_1720_" class="st0" d="M425.7,165.8c-0.4,0.3-0.8,0.7-1.1,1c-0.3-0.3-0.6-0.5-0.9-0.8c0.3-0.3,0.7-0.7,1-1
	C425.1,165.3,425.4,165.5,425.7,165.8z"/>
<path id="XMLID_1719_" class="st0" d="M424.7,165c0.4-0.4,0.7-1.1,1.4-0.6c0.7,0.6-0.1,0.9-0.4,1.4
	C425.4,165.5,425.1,165.3,424.7,165z"/>
<path id="XMLID_1718_" class="st0" d="M425,124.3c0.1-0.1,0.1-0.2,0.2-0.3c0,0,0.2,0,0.2,0.1C425.3,124.1,425.1,124.2,425,124.3
	C424.9,124.2,425,124.3,425,124.3z"/>
<path id="XMLID_1717_" class="st0" d="M449.7,186.3c1-0.4,1.3-2.1,3.1-1.2c-1.3,2.5-2.7,4.7-5.7,5.3
	C446.8,188.3,449,187.8,449.7,186.3z"/>
<path id="XMLID_1716_" class="st0" d="M426.8,187.8c-0.1,0.1-0.2,0.3-0.3,0.4c-1.2,0.9-0.9,3.3-3.1,3.2c-0.3,0-0.8-0.7-0.7-1
	c0.2-1.8,1.5-2.7,3-3.4C426.1,187.3,426.5,187.5,426.8,187.8z"/>
<path id="XMLID_1715_" class="st0" d="M437.9,191.9c-1.1,0.6-1.7,1.1-2.5,1.4c-0.6,0.2-1.5-0.1-1.1-0.9c0.3-0.6,1.1-1.1,1.7-1.5
	C436.9,190.3,436.7,191.3,437.9,191.9z"/>
<path id="XMLID_1714_" class="st0" d="M432.1,182.4c-0.6,0.7-0.6,1.9-1.8,2.2c-0.3-0.3-0.6-0.6-0.9-0.8
	C430.2,183,430.8,182,432.1,182.4C432.2,182.5,432.1,182.4,432.1,182.4z"/>
<path id="XMLID_1713_" class="st0" d="M443.1,194.3c0.6,1.9-0.4,2.3-2,2C441,195,441.6,194.2,443.1,194.3z"/>
<path id="XMLID_1712_" class="st0" d="M441.2,187.4c-0.3,0.3-0.6,0.7-1,1c-0.3-0.2-0.7-0.4-1-0.7c0.4-0.4,0.9-0.9,1.3-1.3
	C440.7,186.8,440.9,187.1,441.2,187.4z"/>
<path id="XMLID_1711_" class="st0" d="M440.5,186.5c0.3-0.3,0.7-0.7,1-1c0.2,0.3,0.5,0.7,0.7,1c-0.4,0.3-0.7,0.6-1.1,0.9
	C440.9,187.1,440.7,186.8,440.5,186.5z"/>
<path id="XMLID_1710_" class="st0" d="M425.7,187c0.4-0.5,1-1,1.6-0.4c0.1,0.1-0.3,0.8-0.5,1.2C426.5,187.5,426.1,187.3,425.7,187z"
	/>
<path id="XMLID_1709_" class="st0" d="M441.5,185.5c0.4-0.2,1.1-0.6,1.2-0.4c0.6,0.7,0.1,1.1-0.5,1.4
	C442,186.2,441.8,185.9,441.5,185.5z"/>
<path id="XMLID_1708_" class="st0" d="M429.2,185.5c-0.4,0.4-0.8,1.1-1.4,0.5c-0.6-0.7,0.4-0.9,0.6-1.3
	C428.7,184.9,429,185.2,429.2,185.5z"/>
<path id="XMLID_1707_" class="st0" d="M428.5,184.7c0.3-0.3,0.6-0.6,0.9-0.9c0.3,0.3,0.6,0.6,0.9,0.8c-0.4,0.3-0.7,0.6-1.1,0.9
	C429,185.2,428.7,184.9,428.5,184.7z"/>
<path id="XMLID_1706_" class="st0" d="M446.5,182.9c-0.5,0.3-1,1-1.5,0.2c-0.1-0.1,0.5-0.7,0.8-1C446,182.3,446.3,182.6,446.5,182.9
	z"/>
<path id="XMLID_1705_" class="st0" d="M444.1,193.3c0.1,0.8,0.4,1.7-1,1C442.8,193.4,443.2,193.1,444.1,193.3z"/>
<path id="XMLID_1704_" class="st0" d="M445.1,192.3c0.6,1.3-0.2,1.2-1,1C443.8,192.5,444.2,192.2,445.1,192.3z"/>
<path id="XMLID_1703_" class="st0" d="M446.1,191.3c0,0.3,0.8,0.7,0.1,1c-0.3,0.1-0.7,0-1.1,0C444.9,191.5,445.2,191.2,446.1,191.3z
	"/>
<path id="XMLID_1702_" class="st0" d="M447.1,190.3c0,0.4,0,0.7,0.1,1.1c-0.4,0-0.7,0-1.1-0.1C445.9,190.5,446.2,190.2,447.1,190.3z
	"/>
<path id="XMLID_1701_" class="st0" d="M439.2,189.4c-0.3,0.5-0.8,1.2-1.3,0.8c-0.9-0.8,0.3-1.1,0.7-1.7
	C438.7,188.8,438.9,189.1,439.2,189.4z"/>
<path id="XMLID_1700_" class="st0" d="M440.2,188.5c-0.3,0.3-0.7,0.6-1,1c-0.2-0.3-0.4-0.6-0.7-0.9c0.2-0.3,0.4-0.5,0.7-0.7
	C439.5,188,439.9,188.3,440.2,188.5z"/>
<path id="XMLID_1699_" class="st0" d="M451,192.2c-0.1,2.2-2.6,3-3,5.1c-0.7,0-2.2,1.8-2,0.1C446.4,194.9,447.8,192.4,451,192.2z"/>
<path id="XMLID_1698_" class="st2" d="M452.7,177c0.4-0.3,0.8-0.5,1.2-0.8c-0.3,1,0.7,2.2-0.6,2.9c-0.3,0.1-1-0.6-1.5-0.9
	C452.2,177.8,452.4,177.4,452.7,177z"/>
<path id="XMLID_1697_" class="st0" d="M457,187.5c-0.4-0.1-0.7-0.2-1.1-0.2c-0.9-1,0.1-1.2,0.7-1.5c0.2-0.1,0.6,0.1,0.9,0.1
	C457.3,186.4,457.2,186.9,457,187.5z"/>
<path id="XMLID_1696_" class="st0" d="M452,190.2c1,1.3,0.3,1.9-1,2C449.8,190.9,450.9,190.5,452,190.2z"/>
<path id="XMLID_1695_" class="st0" d="M454,189.2c-0.3,1.1-0.7,2.1-2.1,1C452.2,189.1,452.6,188,454,189.2z"/>
<path id="XMLID_1694_" class="st0" d="M456,187.2c0.2,0.9-0.3,1.1-1,1c0-0.3-0.9-0.7-0.1-1C455.1,187.1,455.6,187.2,456,187.2z"/>
<path id="XMLID_1693_" class="st0" d="M456.3,181.6c-0.3,0.5-0.9,1.1-1.4,0.6c-0.9-0.8,0.2-1.2,0.6-1.8
	C455.8,180.9,456.1,181.2,456.3,181.6z"/>
<path id="XMLID_1692_" class="st0" d="M457.3,180.6c-0.3,0.3-0.7,0.7-1,1c-0.3-0.4-0.5-0.8-0.8-1.2c0.2-0.3,0.4-0.5,0.7-0.7
	C456.6,180.1,457,180.3,457.3,180.6z"/>
<path id="XMLID_1691_" class="st0" d="M455,188.2c0.1,0.8-0.3,1.1-1,1.1c-0.1-0.4-0.7-0.6-0.2-1.2
	C454.3,187.5,454.6,188.2,455,188.2z"/>
<path id="XMLID_1689_" class="st2" d="M214.9,307.6c-1.6-1.4-2.8-3.1-2.8-5.3C214.6,303.2,214.5,305.6,214.9,307.6z"/>
</svg>
