<?xml version="1.0" encoding="utf-8"?>
<!-- Generator: Adobe Illustrator 19.0.0, SVG Export Plug-In . SVG Version: 6.00 Build 0)  -->
<svg version="1.1" xmlns="http://www.w3.org/2000/svg" xmlns:xlink="http://www.w3.org/1999/xlink" x="0px" y="0px"
	 viewBox="0 0 956.4 228.4" style="enable-background:new 0 0 956.4 228.4;" xml:space="preserve">
<style type="text/css">
	.st0{fill:#FFFFFF;}
	.st1{fill:#E04316;}
</style>
<g id="Bg">
</g>
<g id="Object">
	<path class="st0" d="M742.4,221.5c-49.2-31.9-87.8-55.8-119.8-73.3c-21.1-11.6-39.3-20.3-55.2-26.5c3.6-2.9,7.7-5.5,12.3-7.8
		c0.8,0.2,1.7,0.5,2.6,0.7c19.4,5.5,42.1,14.4,69.3,27.2c37.5,17.7,84.8,43.6,145.6,79.7h2.1c-61-36.3-108.4-62.2-146-80
		c-28.5-13.4-52.2-22.7-72.5-28.1c3.8-1.8,8-3.4,12.7-4.6c25.5,3.8,56.4,13.1,92.2,27.7c46.5,19,102.5,47.5,167.2,85h2.1
		c-64.9-37.7-121.1-66.3-167.7-85.3c-36.1-14.8-66.6-24-92.2-27.8c4.8-1.2,10-2.1,15.8-2.6c8.9,0.7,18.4,2,28.7,3.9
		c24.2,4.4,51.5,12,81,22.4c56.4,20,119.6,50,188.7,89.4h2.1c-69.2-39.6-132.7-69.7-189.2-89.7c-29.6-10.5-57-18.1-81.4-22.5
		c-9.4-1.7-18.3-3-26.6-3.7c0.3,0,0.7,0,1.1-0.1c21-1.2,67.2,0,140,22c62.7,19,130.2,48.8,201.4,88.9v-1.2
		c-70.6-39.7-137.7-69.2-200-88.1c-73.5-22.3-120.5-23.4-141.9-22.2c-1.3,0.1-2.6,0.2-3.8,0.3c-8.9-0.7-17.2-0.8-24.7-0.4
		c-4.8,0.3-9.2,0.8-13.3,1.5c-3.9-0.1-7.7,0-11.4,0.2c-4.3,0.3-8.3,0.7-12,1.3c-5.2-0.4-10.2-0.4-14.9-0.2
		c-6.6,0.4-12.5,1.2-17.8,2.3c-2.3,0-4.6,0-6.9,0.1c-41.3,2.4-55.5,20.7-70.6,40.1c-9.7,12.5-19.6,25.3-37.4,33.8
		c-38.4-6.5-84.2-19.2-134.5-37.6C192.2,119,116.9,82.4,65.6,48.6c-2.6-1.7-5.5-3.7-8.5-5.7C41.4,32.4,21,18.7,0,9.4l0,0.9
		c20.2,9.3,40,22.5,55.3,32.8c3,2,5.9,3.9,8.5,5.7c51.4,33.9,126.8,70.4,201.8,97.8c50.5,18.4,96.5,31.2,135.2,37.7
		c-1.9,0.9-4,1.7-6.1,2.5c-42.2-4.8-95.9-18.7-156.1-40.7C163.7,118.9,88.3,82.3,37,48.5c-2.6-1.7-5.5-3.7-8.5-5.7
		C20.1,37.2,10.4,30.7,0,24.4l0,1.2C9.7,31.6,18.8,37.7,26.7,43c3,2,5.9,3.9,8.5,5.7c51.4,33.9,126.8,70.4,201.8,97.8
		c60.1,21.9,113.9,35.9,156.5,40.8c-2.7,1-5.5,1.8-8.5,2.6c-44.2-2.9-103.6-17.4-171.1-42C139,120.5,63.7,84,12.4,50.1
		c-3.9-2.6-8-5.5-12.4-8.6L0,43c3.7,2.7,7.3,5.1,10.6,7.4c51.4,33.9,126.8,70.4,201.8,97.8c67.2,24.5,126.5,39,171.1,42.1
		c-1.8,0.4-3.6,0.8-5.6,1.2c-45.4,1-112.7-13.9-191-42.5C118.9,124.1,50.4,91.7,0,60.6l0,1.3c50.3,30.8,118,62.8,185.4,87.4
		c76.8,28.1,143.4,43,189.5,42.8c-4.1,0.7-8.5,1.2-13.2,1.5c-45.3,3.2-116.1-11.7-199.4-42.1C104.8,130.4,47,104,0,77.5l0,1.2
		c46.7,26.2,103.9,52.2,160.8,73c83.7,30.6,155.3,45.6,201.4,42.3c6-0.4,11.5-1.1,16.5-2.1c2.8-0.1,5.5-0.2,8.2-0.4
		c2.7-0.2,5.3-0.4,7.9-0.8c6.8,0.2,13.2,0.1,19.1-0.4c4-0.3,7.7-0.7,11.2-1.2c4.6,0,8.9-0.1,13.1-0.4c10.5,0.7,20.2,0.7,28.9,0.1
		c47.3-3.4,63.3-23.9,78.7-43.8c6.4-8.2,12.7-16.3,20.9-23c40.3,15.8,94.5,47.9,173.7,99.3H742.4z M578.3,113.5
		c-4.6,2.2-8.6,4.8-12.2,7.6c-6.2-2.4-12.1-4.3-17.7-5.9c3.8-2.1,8-3.9,12.7-5.4C566.5,110.7,572.3,111.9,578.3,113.5z M532.2,112
		c-20.3,7.3-30.7,20.7-41.5,34.6c-13.3,17-26.9,34.6-60.2,41.2c-4.5-0.4-9.1-0.9-13.8-1.6c25.4-8.1,37.3-23.4,48.9-38.4
		c12.5-16.1,24.4-31.4,51.5-37.3C521.9,110.6,526.9,111.1,532.2,112z M534.9,111.9c4.4-1.5,9.2-2.7,14.7-3.6
		c3.2,0.3,6.5,0.7,9.9,1.2c-4.6,1.5-8.7,3.3-12.4,5.3C542.8,113.6,538.8,112.7,534.9,111.9z M428.7,188.1c-1.4,0.2-2.7,0.5-4.2,0.7
		c-4.8,0-9.9-0.2-15.1-0.6c2.1-0.5,4.1-1.1,6.1-1.7C420,187.2,424.4,187.7,428.7,188.1z M430.9,188.3c1.1,0.1,2.2,0.2,3.3,0.3
		c-1.9,0.1-3.8,0.1-5.8,0.2C429.3,188.6,430.1,188.5,430.9,188.3z M432.7,188c33.2-6.8,46.7-24.3,59.9-41.2
		c10.8-13.9,21.1-27.2,41.2-34.4c4,0.8,8.1,1.7,12.4,2.9c-13.6,7.6-22.1,18.5-30.8,29.7c-15.3,19.7-31.2,40.1-77.4,43.4
		C436.3,188.3,434.5,188.1,432.7,188z M591.6,108.6c-4.5,1.2-8.6,2.7-12.4,4.5c-5.9-1.5-11.6-2.8-16.9-3.7c3.3-1,6.9-1.8,10.7-2.5
		C578.9,107.1,585.1,107.6,591.6,108.6z M575.7,106.5c3.4-0.5,6.9-0.9,10.7-1.1c6.5-0.4,13.6-0.3,21.3,0.2
		c-5.3,0.6-10.1,1.4-14.5,2.6C587.1,107.3,581.2,106.7,575.7,106.5z M561.7,107c2.7-0.2,5.5-0.2,8.3-0.2c-3.3,0.6-6.4,1.4-9.3,2.3
		c-3.1-0.5-6.1-0.9-9-1.1C554.9,107.6,558.2,107.2,561.7,107z M519.2,110c4.7-0.9,9.9-1.6,15.5-1.9c3.9-0.2,8-0.2,12.3,0
		c-5,0.9-9.6,2.1-13.7,3.5C528.4,110.8,523.7,110.3,519.2,110z M403.3,184.2c17.9-8.6,27.9-21.4,37.7-33.9
		c14.9-19.2,29-37.3,69.1-39.7c1.4-0.1,2.9-0.1,4.3-0.1c-26.6,6.3-38.3,21.4-50.6,37.3c-11.6,15-23.5,30.3-48.8,38.3
		C411.2,185.5,407.3,184.9,403.3,184.2z M396.5,187.1c2.1-0.8,4-1.6,5.9-2.5c3.9,0.6,7.6,1.2,11.3,1.7c-2.1,0.6-4.3,1.2-6.5,1.7
		C403.7,187.8,400.2,187.5,396.5,187.1z M387.3,190c2.9-0.8,5.5-1.6,8.1-2.5c3.4,0.4,6.8,0.7,10.1,1c-3.5,0.8-7.2,1.4-11.2,1.9
		C392.1,190.3,389.7,190.2,387.3,190z M391,190.7c-1.5,0.2-3,0.3-4.6,0.4c-1.5,0.1-3.1,0.2-4.6,0.3c1.4-0.3,2.7-0.6,4-0.9
		C387.5,190.6,389.3,190.6,391,190.7z M421.2,189.2c-2.5,0.3-5.1,0.6-7.8,0.8c-4.8,0.3-10,0.5-15.4,0.4c3.4-0.5,6.7-1.1,9.8-1.8
		C412.4,189,416.9,189.2,421.2,189.2z M543.9,145.1c-15.3,19.7-31.2,40.1-77.4,43.4c-7.6,0.5-15.9,0.6-24.8,0.1
		c44.8-4.1,60.4-24.1,75.5-43.5c8.6-11.1,17-21.9,30.3-29.4c5.6,1.6,11.5,3.6,17.8,6.1C556.8,128.5,550.5,136.7,543.9,145.1z"/>
	<path class="st0" d="M733.1,157.3c1.1,2.8,3.9,6.6,7.3,6.5c4.1-0.1,3.4-5.1,2.2-7.7c-0.7-1.6-1.8-3.2-3.2-4.5
		c0-0.2-0.1-0.4-0.2-0.6c1.6-3.3,3.4-6.6,5.2-9.8c1.1-1.8,2.2-3.6,3.3-5.4c0.8-1.3,1.8-3.9,3.6-3.1c1.8,0.7,3.7,2.4,5.3,3.5
		c1.7,1.2,3.4,2.3,5.1,3.5c2.5,1.8,5,3.6,7.4,5.4c-4,4.8-7.9,9.6-11.6,14.6c-1.6,2.2-3.2,4.7-3.2,7.4c0,2.4,1.2,4.7,2.7,6.5
		c1.3,1.7,3.2,3.3,5.5,2.9c1.9-0.3,3.4-2,3.9-3.8c0.9-3.7-2.1-7.8-5.4-9.9c1.5-2.1,3.3-4,4.8-6c2.4-3.1,4.9-6.1,7.4-9.1
		c0.7-0.9-1.4-3.3-2.1-3.7c-3.8-2.9-7.6-5.7-11.6-8.5c-1.9-1.3-3.8-2.6-5.7-3.9c-1.5-1-3.3-2.7-5.1-3.2c-1.9-0.5-2.8,1.6-3.7,3
		c-1.3,2-2.5,4-3.7,6.1c-2.1,3.6-4,7.3-5.8,11.1C732.9,150.7,731.8,154,733.1,157.3z M758.8,166.5c0.3-0.6,0.7-1.2,1.1-1.8
		c0.4,0.6,1,1.1,1.6,1.3c0.5,0.2,1,0.3,1.4,0.6c0.1,0.1,0.4,0.3,0.6,0.4c0,0.2,0.2,0.6,0.2,0.7c0,0.4,0,0.7-0.1,1
		c-0.2,1.3-1.1,2.5-2.3,3.2c-1.1,0.6-3.1,1-3.6-0.4C757,170.2,758.1,167.8,758.8,166.5z M737.3,153.7c0.2,0.1,0.3,0.2,0.5,0.2
		c0.7,0,2,0.1,2.5,0.8c0.2,0.4,0.3,1.8,0.2,2.2c-0.1,1.9-1.4,3.1-3.3,2.7c-0.4-0.1-1-0.5-1.4-0.5c0,0-0.1,0-0.1-0.1
		c0-0.9-0.2-1.7,0.1-2.7C736.1,155.4,736.6,154.5,737.3,153.7z"/>
	<path class="st0" d="M160.4,179.1c-2-0.7-3.1-3.7-2.9-5.7c0.2-1.7,2.6-5.6,4.7-5.2c1.1,0.2,2.3,0.1,3.3-0.2
		c0.2-0.1,1.7-0.5,1.2-0.9c-1.6-1.3-3-2.9-3.3-5c-0.2-1.5,0.4-2.9,1.3-4.1c1-1.3,2.4-2.2,3.6-3.4c1.3-1.3,2.2-2.8,2.9-4.5
		c1.3-3.1,1-6-0.6-8.9c-0.8-1.4-1.8-2.8-2.7-4.1c-1-1.5-1.8-2.7-3.6-3.3c-0.6-0.2-5.7,0.2-4.9,1c2.6,2.7,3,6.8,1.5,10.2
		c-0.8,1.9-2.2,3.6-3.7,5c-1,0.9-2,1.7-3.1,2.5c-0.6,0.4-1.7,0.9-2.1,1.5c-0.9,1.5,1,4.6,1.6,6c0.7,1.5,1.8,2.6,3.1,3.6
		c-0.6,0-1.4,0.1-1.9,0.3c-3.6,0.9-7.1,3.1-7.6,7.1c-0.6,5,4.3,8.1,8.5,9.2c1.2,0.3,2.5,0.2,3.7-0.1
		C160,180.1,161.5,179.6,160.4,179.1z"/>
	<path class="st0" d="M243.6,134.5c-1.9-3.3-5.2-5.4-9-6c-2-0.3-4.1-0.3-6.1,0.1c-1.7,0.3-3.7,0.7-4.7,2.2c-0.9,1.3-1.5,3-2,4.5
		c-0.7,2.1,0.8,4,2.5,5.2c3.5,2.5,8.4,4,12.7,3.2c2.2-0.4,4.3-1.3,5.7-3.1C243.9,138.9,244.6,136.5,243.6,134.5z M235.2,142.9
		c-2.2-0.1-4.8-1.3-6.7-2.4c-1.6-0.9-3.6-2.6-3.4-4.6c0.1-1.5,1.1-3.4,1.8-4.7c0.9-1.5,2.4-1.9,4.1-1.9c3.8,0,7.3,2.4,9.2,5.6
		C241.7,138,239,143.1,235.2,142.9z"/>
	<path class="st1" d="M556.4,94c-1.7-2.9-4.5-4.8-7.8-5.3c-1.8-0.3-3.6-0.2-5.3,0.1c-1.5,0.3-3.2,0.6-4.1,1.9
		c-0.8,1.1-1.3,2.6-1.7,3.9c-0.6,1.8,0.7,3.5,2.2,4.5c3.1,2.2,7.3,3.5,11,2.8c1.9-0.3,3.8-1.2,5-2.7C556.7,97.7,557.2,95.6,556.4,94
		z M549.1,101.2c-2-0.1-4.2-1.1-5.9-2.1c-1.4-0.8-3.2-2.3-3-4.1c0.1-1.3,0.9-2.9,1.6-4.1c0.8-1.3,2.1-1.6,3.6-1.6
		c3.3,0,6.4,2.1,8,4.9C554.8,97,552.4,101.4,549.1,101.2z"/>
	<path class="st1" d="M858.1,212.3c10.4-4.8,19.2-12.7,21.8-24.3c3.6-16-6.4-33.7-21.6-39.4c-1.1-0.4-2.3-0.8-3.5-1.1
		c-0.5-8.6-0.8-17.2-0.8-25.8c0-1.4,0-2.7,0-4.1c9.7-5.4,19-11.5,26.5-19.9c9-10.1,13.4-23.3,16.6-36.3c1.8-7.5,3.6-17.2-0.8-24.1
		c-5.1-7.8-15.6-7-23.5-4.9c-9.4,2.5-16,8.1-21.2,16.2c-13.6,20.9-15.4,46.8-15.9,71.2c-7.4,4-14.9,7.7-22.1,12.1
		c-12.1,7.3-26.8,17.4-29.8,32.3c-2.9,14.8,6,34.1,17.1,43.7c10.6,9.2,25,11.8,38.5,9.9c-0.8,10.5-2.8,21-6.6,30.8
		c-2,5.1-4.4,10.1-7.6,14.6c-1.8,2.5-3.8,4.9-6.2,6.9c-0.8,0.7-1.9,1.3-2.7,2c-0.3,0.1-0.6,0.3-0.8,0.4c-0.5-0.1-1.3-0.1-2.4-0.2
		c-6.6-1.5-13.5-5.4-18.2-10.8c10-2.1,20-7,22-16.9c1.2-5.9-1.4-12.7-6.7-15.9c-6-3.7-14.3-2.3-20.7-0.4
		c-13.3,3.9-22.9,15.9-17.8,30.1c5,13.9,22.5,21.7,36.5,20.9c29.1-1.8,42.9-26.1,47.8-52C857.1,222.3,857.7,217.3,858.1,212.3z
		 M857.4,168.4c5.5,9.7,6.2,21.4,0.9,30.9c-0.1-6.5-0.5-13-1-19.6c-0.4-4.5-0.7-8.9-1.1-13.3C856.6,167,857.1,167.7,857.4,168.4z
		 M862.1,60.9c1.7-4.5,3.8-8.8,6.3-13c1.4-2.4,3-4.7,4.7-6.9c0.5-0.6,1.1-1.2,1.8-1.7c1.3,1.5,3.3,2.5,4.2,4.7
		c1,2.3,1.3,4.9,1.4,7.3c0.2,6.1-1.2,12.1-2.8,17.9c-4.5,15.6-10.9,28.6-23.3,38.6C854.8,91.9,856.4,75.6,862.1,60.9z M819.4,203.1
		c-10.1-8.2-17.2-24.1-17.5-37.1c-0.4-14.3,11.7-24.5,22.7-31.7c3.6-2.4,7.3-4.5,11.1-6.6c0,6.5,0.3,13.1,0.8,19.6
		c-8.8,1.6-17.2,5.4-22.8,11c-10.5,10.4-8.2,29,5.5,35.4c3.4,1.6,8.4,0.2,11.8-0.9c0.7-0.2,8.3-3.3,5.7-4.6
		c-10.5-4.9-14.8-19.1-8.1-28.9c2.6-3.8,5.1-5.7,8.4-5.8c1.5,19.4,3.6,38.8,3,58.2c-0.7,0-1.4-0.1-2.1-0.2
		C831,210.4,824.6,207.4,819.4,203.1z"/>
	<path class="st1" d="M187,47.2c-2.1-3.6-6.8-6.7-9.9-9.6c-3.7-3.5-7.4-7-11.1-10.5c-7.4-7-14.8-14-22.3-20.9
		C142,4.6,132.6,5,131.5,7.4c-4.8,10.4-9.5,20.7-14.3,31.1c-3.1,6.7-5.9,13.5-9,20.2c-1.8-2.1-4-3.9-6.7-4.9
		c-6-2.4-14.9-1.8-20.2,2.1c-5.1,3.7-6.9,11-5,16.8c1.9,5.7,6.7,8.7,12.5,9.3c6.2,0.7,13.4-0.3,18.8-3.8c6.7-4.3,9.3-12.7,12.5-19.6
		c2.9-6.3,5.8-12.5,8.6-18.8c4,4.2,8.5,8.2,12.6,12.2c1.8,1.8,21.7,20.6,21.2,21.2c-0.5,0.6,0,1,0.9,1.3c-3,5.9-6,11.8-9,17.7
		c-7.8-2.8-16.4-3.7-24.3-1.5c-9.6,2.7-13.4,13.5-8,21.9c5.2,8.1,16.2,8,24.5,5.2c10-3.4,15-12.3,18.1-21.8
		c4.3-8.5,8.7-17.1,13-25.6c2.3-4.5,4.6-9.1,6.9-13.6C186.1,54,188.8,50.4,187,47.2z M91,56.6C91,56.6,91,56.6,91,56.6
		C91,56.6,91,56.6,91,56.6C89.7,55.9,89.7,55.9,91,56.6z M93.3,77.2c-3.6-2.3-5.2-7.2-5-11.3c0.1-2.5,0.8-4.9,2.1-7
		c0.3-0.5,0.6-0.9,1-1.3c0.4-0.3,0.6-0.5,0.5-0.7c0.3,0.1,0.5,0.3,0.7,0.5c4.3,2.8,6.6,7.5,7.5,12.5c0.1,0.6,0.8,1,1.9,1.2
		C100.2,74.4,96.9,79.5,93.3,77.2z M144.5,111.5c-1.1,1.2-2.6,2.1-3.7,3.2c-1.4,0.4-1.6,0.7-0.6,1c1,0.4,0.8,0.3-0.5-0.1
		c-2.1-1.3-3.7-2.5-5.1-4.6c-2.7-4.1-3.1-9.7-0.9-14.1c0.5-1,1.2-2.3,2.1-2.9c1.3-1,2.5-0.6,4.5-0.1c4,0.9,7.7,2.7,11.2,4.9
		C150,103.4,147.9,107.9,144.5,111.5z"/>
	<path class="st0" d="M97.4,136.9c-3.1-1.2-6.1-2.5-9.2-3.8c1.5-2.5,3-5.1,4.5-7.7c1.7,0.8,3.4,1.5,5.1,2.3c0.9,0.4,2.2,0.2,3.1-0.1
		c0.4-0.1,1.6-0.5,0.7-0.9c-2.6-1.2-5.1-2.3-7.7-3.4c1.2-2.3,2.5-4.5,3.6-6.8c0.3-0.6-3.9-0.9-4.4,0.1c-0.9,1.7-1.8,3.5-2.8,5.2
		c-3.5-1.5-7-3-10.5-4.5c1.7-2.2,3.3-4.5,4.9-6.8c0.4-0.6-1.4-0.6-1.7-0.6c-0.7,0-2.3,0-2.7,0.7c-1.3,1.8-2.5,3.6-3.8,5.3
		c-1.8-0.8-3.6-1.5-5.4-2.3c-0.9-0.4-2.2-0.2-3.1,0.1c-0.4,0.1-1.6,0.5-0.7,0.9c2.6,1.1,5.2,2.2,7.8,3.3c-1.8,2.4-3.6,4.8-5.5,7.1
		c-1.3-0.6-2.6-1.2-4-1.9c-0.9-0.4-2.2-0.2-3.1,0.1c-0.4,0.1-1.6,0.5-0.7,0.9c2.1,1,4.1,1.9,6.2,2.9c-1.7,2.1-3.5,4.2-5.2,6.3
		c-0.4,0.1-0.7,0.3-0.8,0.5c-0.2,0.4-0.4,0.7-0.5,1.1c-0.4,0.8,3.8,0.6,4.4-0.1c1.8-2.1,3.6-4.2,5.3-6.4c4.1,1.8,8.2,3.7,12.3,5.4
		c-1.8,3-3.7,6-5.7,9c-0.3,0.5,3.7,0.9,4.4-0.1c1.6-2.5,3.2-4.9,4.8-7.4c2.2,0.9,4.4,1.8,6.6,2.7c0.9,0.4,2.2,0.2,3.1-0.1
		C97.1,137.7,98.3,137.3,97.4,136.9z M72.9,126.3c1.9-2.4,3.8-4.7,5.6-7.2c3.6,1.5,7.2,3.1,10.8,4.7c-1.5,2.6-2.9,5.2-4.5,7.8
		C80.8,129.8,76.8,128.1,72.9,126.3z"/>
	<path class="st1" d="M338.4,91.2c-4.2-8.8-8.4-17.5-12.7-26.3c-0.4-0.9-4.1,3.3-3.5,4.6c2.8,5.7,5.5,11.5,8.3,17.2
		c1.7,3.4,3.4,6.9,5.1,10.3c-5.5,1.6-10.1,7.2-9.8,13c0.2,3.2,2.2,6.2,5.5,6.7c3.4,0.5,6.3-1.4,8.3-3.9c2.1-2.6,3.7-6,3.6-9.4
		C343.1,99.2,340.2,95,338.4,91.2z"/>
	<path class="st1" d="M569.9,41.7c-0.9-7.4-1.8-14.7-2.7-22.1c-0.1-0.7-3.8,1.4-3.7,2.5c0.6,4.8,1.2,9.7,1.8,14.5
		c0.3,2.9,0.8,5.8,1.2,8.7c-4.4-0.2-9.1,2.7-10.3,7c-0.7,2.4,0.1,5,2.3,6.2c2.3,1.2,4.9,0.6,6.9-0.7c2.2-1.4,4.2-3.4,4.9-5.9
		C571.3,48.7,570.3,44.9,569.9,41.7z"/>
	<path class="st1" d="M338.6,191.9c-4.5-17.2-8.9-34.4-13.4-51.6c-0.3-0.3-0.7-0.3-1.1-0.2c-41.3,7.9-82.8,16.3-121.8,32.4
		c-1.8,0.8-8.1,4.3-7.3,6.9c4.5,13.6,8.4,27.4,11.3,41.5c-2.5,0.6-4.8,1.5-7.1,3c-3.6,2.4-8.1,6.1-8.8,10.7c-0.6,4,2.3,7.1,6.1,7.8
		c4.5,0.9,8.9-1.9,12.3-4.5c3.4-2.7,6.2-6.1,7.4-10.4c1.5-5.3,0.1-10.9-1.1-16.1c-1.6-7.3-3.4-14.5-5.4-21.7
		c17.3-5.8,34.8-11,52.4-15.7c3.3,9.6,5.9,19.4,7.8,29.3c-7.7,3.2-14.8,10.4-15.6,18.3c-0.5,4.3,0.3,9.9,5.7,8.9
		c5-0.9,10-3.4,14-6.5c4-3.2,7.3-7.1,7.5-12.5c0.2-5.9-1.5-12.1-2.7-17.8c-1.6-7.6-3.6-15.2-6-22.6c15.4-3.9,31-7.4,46.6-10.5
		c0,0,0,0,0,0c2.9,11.4,5.9,22.8,8.8,34.2c-4.2,2-8,4.9-11.2,8.3c-3.7,3.9-9.5,13-2.8,17c5.7,3.4,13.9-3,17.8-6.8
		c5.6-5.6,8.1-13.4,6.9-21.1C338.9,192.1,338.8,192,338.6,191.9z M271.9,216.5c0.1,1.5,0.1,4.3-0.8,5.7c0.2-0.5-2.6,0.7-2.8,0.8
		c-1.7,0.3-2.5,0.5-3.6-0.7c-1.2-1.3-1.1-4.3-1-5.9c0.3-4.2,1.6-6.9,6.1-7.3c0.4,0,0.8-0.1,1.2-0.3
		C271.3,211.3,271.8,213.9,271.9,216.5z M206,235.2c-0.2,0-0.4,0-0.6-0.1c-2.6-0.3-4.8-1.9-5.5-4.4c-0.3-0.7-0.3-1.4-0.2-2.1
		c0.1-0.3,0.2-0.6,0.3-0.8c0.8,0.2,4.1,0,4.7,0c0.8,0,1.6-0.2,2.4-0.6c0.1,1.3,0.1,2.7-0.1,4C207.1,232.2,206,234.2,206,235.2z
		 M208.3,185.3c-0.9-3.1-1.9-6.2-2.9-9.3c16.7-6.4,33.9-11.5,51.3-15.8c0,0,0,0.1,0,0.1c1.2,2.9,2.3,5.9,3.4,8.8
		C242.8,174.1,225.5,179.4,208.3,185.3z M271,166.3c-1-2.9-2.1-5.8-3.2-8.7c4.3-1,8.6-1.9,12.9-2.9c7-1.5,14-2.9,21.1-4.3
		c3.4-0.7,6.7-1.3,10.1-2c2.2-0.4,2.9-1.1,4.4,0.6c1,1.1,1.2,4.6,1.6,6.1c0,0,0,0,0,0C302.2,158.5,286.6,162.2,271,166.3z
		 M328.7,209.3c-0.4,1.3-1.1,2.9-1.9,4.1c-0.2,0.1-0.5,0.1-0.9,0.3c-0.7,0-1.4-0.1-2-0.3c-3.4-1.4-3.6-5.5-2.4-8.5
		c1.5-3.7,4.6-4.7,8.2-5.3C330,202.9,329.8,206.2,328.7,209.3z"/>
	<path class="st1" d="M725.9,186.4c-2.2-0.9-4.4-1.8-6.6-2.8c0.3-1.5,0.3-3.2-0.2-4.7c-1.9-6-6.6-10.1-12.2-12.7
		c-5.1-2.4-12.4-1.7-16.9,1.8c-0.7,0.5-1.3,1.2-1.9,1.9c-1.2-0.7-2.4-1.4-3.6-2.2c-0.9-0.6-2.4-0.4-3.3-0.2c-0.2,0-2.4,0.6-1.8,1.1
		c2.3,1.5,4.6,2.8,7,4c-0.4,0.8-0.6,1.7-0.8,2.6c-0.5,3.3,2.2,5.9,4.4,7.9c4.6,4.2,11,7,17.3,7.1c3.1,0,6.7-0.4,9.2-2.4
		c0.6-0.5,1.1-1,1.5-1.6c1.1,0.4,2.1,0.9,3.2,1.3c1,0.4,2.6,0.2,3.7-0.1C725.5,187.3,727,186.8,725.9,186.4z M694.5,168.6
		c2.4-2.2,4.8-2.7,7.7-1.4c5.4,2.4,9.8,6.4,11.7,12.2c0.2,0.7,0.3,1.4,0.4,2.1c-3.1-1.3-6.2-2.6-9.3-3.9c-4.3-1.8-8.7-3.6-12.9-5.7
		C692.6,170.6,693.5,169.4,694.5,168.6z M712.2,187.3c-2.1,1.9-4.7,1.3-7.2,0.5c-3-1-5.8-2.5-8.3-4.5c-2.2-1.8-5.5-4.5-5.6-7.5
		c0-0.4,0-0.7,0-1.1c2.8,1.3,5.7,2.5,8.5,3.7c4.8,2,9.6,4,14.4,6.1C713.7,185.5,713.1,186.5,712.2,187.3z"/>
	<path class="st0" d="M768.8,56.4c-1.2,0-2.6,0.1-3.6,0.7c-2.6,1.4-4.8,4.5-7.7,5.3c-2.9,0.8-6.3-2.6-7.2-5.1
		c-0.1-0.3-0.2-0.6-0.2-0.9c0.9,0.2,1.9,0.2,2.9,0.1c2.3-0.2,6.3-1.2,5.9-4.3c-0.3-3.1-3.5-3.8-6.1-3.6c-3,0.2-6.3,1.3-7.8,4.1
		c-2.9,5.1,2.1,10.3,7,11.3c2.5,0.5,5.3,0.4,7.9-0.2c-5.4,7.1-10.6,14.4-15.6,21.8c-0.5,0.8,1.8,0.8,2.1,0.8c0.8,0,3,0,3.5-0.9
		c6.5-9.7,13.3-19.1,20.6-28.2C771.2,56.5,769,56.4,768.8,56.4z"/>
	<path class="st1" d="M48.3,105.8c-6.4-2.3-14.2,0.7-19.6,5C31.8,93.9,34.9,77,38,60.1c0.3-1.4-8.2,0.9-8.7,3.2
		c-4.5,24.3-8.9,48.6-13.4,72.9c-0.4,2.1-0.8,4.2-1.1,6.2c-0.2,1.4,8.3-0.9,8.7-3.2c0-0.2,0.1-0.4,0.1-0.6c0.1,0,0.1,0,0.2,0
		c9.3-1.1,19-5.3,25.6-12.1C55,120.8,57.9,109.2,48.3,105.8z M24,136c0-0.2,0.1-0.3,0.1-0.5c1.5-7.5,3.7-15.9,9.1-21.7
		c1.2-1.2,2.4-2.1,4-1.3c1.4,0.7,2.7,2,3.3,3.4c1.8,4.1-0.6,9.7-2.9,13.1c-2.1,3-5,4.4-8.5,5.1C28.3,134.5,24.2,135,24,136z"/>
	<g>
		<path class="st0" d="M524.2,150.5c-7.1,1.8-11.2,9.7-9.6,16.7c0.8,3.6,4.2,7.5,8.1,7.6c4,0.1,5.7-3.3,6.1-6.8
			c0.4-3.6-1.1-7.9-5.4-7.9c-3.2,0-5.4,2.5-6.5,5.2c-0.5-0.8-0.8-1.7-0.9-2.6c-0.2-2.7,3.1-5.2,5.3-6.3c6-2.9,13.2-0.6,17.4,4.4
			c4.7,5.6,5.4,13.1,2.8,19.8c-0.4,1.1-0.8,2.5-0.5,3.7c0.2,0.8,0.6,1.2,1,0.1c2.9-7.5,4.1-16.4,0.7-23.9
			C539.5,153.4,532.1,148.5,524.2,150.5z"/>
		<path class="st0" d="M537.8,146.9c0.3-0.2,0.5-0.7,0.6-1.1c0.3-0.9,0.5-1.9,0.5-2.9c0-0.9-0.3-1.7-1-2.3c-0.4-0.3-0.9-0.6-1.4-0.5
			c-0.3,0-0.5,0.2-0.7,0.3c-0.5-0.3-1,1.5-1,1.8c-0.1,0.7-0.2,1.3-0.2,2c0,0.4,0,1,0.2,1.2c0,0,0,0.1,0.1,0.1c0,0.1,0.1,0.2,0.1,0.2
			c0.3,0.3,0.6,0.6,1,0.8C536.7,146.9,537.3,147.2,537.8,146.9z"/>
		<path class="st0" d="M548.3,148.4c-0.5-0.3-1.4-0.9-2-0.5c-0.4,0.2-0.6,0.7-0.7,1.1c-0.3,0.9-0.5,1.9-0.5,2.9
			c0,1.1,0.4,1.9,1.2,2.5c0.3,0.3,0.7,0.5,1.1,0.7c0.2,0.2,0.4,0.3,0.6,0.4c0.8,0.5,1.3-0.3,1.6-1.1c0.5-1.2,0.7-3,0.3-4.3
			C549.7,149.3,549,148.8,548.3,148.4z"/>
	</g>
	<path class="st1" d="M727.1,72.9c-3.4-6.5-10.8-8.7-17.6-8.8c-8-0.1-16.1,2-22.4,7.1c-7.6,6.1-10.9,15.5-14.4,24.3
		c-3.8,9.7-7.6,19.4-11.4,29.1c-18.3-2.1-36.5-4.2-54.8-6.3c-0.5-0.1-1-0.1-1.5-0.1c4.1-13.8,8.3-27.7,12.4-41.5
		c8.9,1.5,18.3,0.6,26.6-2.2c9.3-3.1,22.7-14.1,11.7-23.7c-8.3-7.3-23.4-5.8-32.9-2.1c-10.4,4-18.4,12.9-19.4,24.2
		c0,0.2,0.1,0.3,0.2,0.5c-6.4,21.4-12.8,42.8-19.1,64.2c-0.7,2.3,10.7,0.9,11.6,0.7c3-0.8,8.3,2.4,11,3.6c3.8,1.7,7.5,3.6,11.3,5.2
		c8.5,3.5,17.6,5.2,26.7,5.5c6.7,0.2,17.6,0.8,21.8-5.7c2.3-3.6,3.4-8.4,5-12.3c1.9-5,3.9-9.9,5.8-14.9c2.8-7.2,5.6-14.5,8.5-21.7
		c11.4,3.3,25.6,0.8,34.3-6.1C726.2,87.4,730.7,79.7,727.1,72.9z M647.4,147.9c-11.1-1.2-20.2-6.7-30.4-10.7
		c-5.4-2.1-10.9-3.2-16.4-3.2c1.1-3.6,2.2-7.2,3.2-10.8c17.8,2,35.6,4.1,53.4,6.1c0.8,0.1,1.6,0.2,2.4,0.2c-1.7,4.3-3.3,8.6-5,12.8
		c-0.7,1.9-1.3,3.8-2.5,5.5c-0.3,0.4-0.3,0.6-0.2,0.7C650.5,148.4,648.3,148,647.4,147.9z"/>
	<path class="st1" d="M269.2,43.1c0.4-5.3-4.5-9.4-8.1-12.4c-2.1-1.8-4.3-3.5-6.1-5.6c-1.4-1.6-3.1-4.2-2.9-6.6
		c0.2-0.6,0.4-1.1,0.5-1.7c0.2-0.6-5-0.7-5.5,0.3c-0.3,0.6-0.5,1.3-0.6,1.9c-2.1,7-4.1,14-5.9,21c-0.9,3.5-1.6,7-2.5,10.4
		c-0.9-0.7-2-1.2-3.3-1.4c-3-0.4-6.7,0.3-8.6,2.8c-1.9,2.5-1.2,5.6,0.8,7.8c2.3,2.5,5.8,3.4,9.1,2.4c2-0.6,3.3-2.2,4.4-3.9
		c1.5-2.2,2.3-4.7,3.1-7.2c0.8-2.8,1.4-5.7,2.1-8.5c0-0.2,0.1-0.3,0.1-0.5c0.5-1.9,0.9-3.7,1.4-5.6c0.7,0.6,1.3,1.1,1.9,1.6
		c1.9,1.6,8.6,6.2,6.2,9c-0.6,0.7,1.8,0.8,2.1,0.7c0.9,0,2.7-0.1,3.4-0.9c2.5-3-2.6-6.5-4.5-8.3c-2.5-2.2-7.4-5-7.2-8.8
		c0-0.1,0-0.1-0.1-0.2c0.3-1.1,0.6-2.3,0.9-3.4c1.4,1.5,2.9,2.9,4.1,3.9c4,3.4,10.2,7.6,9.7,13.6C263.6,44.5,269.1,44.4,269.2,43.1z
		 M231.4,57.3c-0.8-1.4-1-3.1-0.3-4.7c0.1-0.2,0.8-1.1,1.3-1.7c0.1,0,0.2,0.1,0.2,0.1c0.4,0.2,0.7,0.5,1.1,0.8
		c1.1,1,1.9,2.3,2.8,3.5c-0.3,0.7-0.6,1.3-1,1.9c-0.4,0.7-1,1.8-1.7,2.6C232.7,59.3,231.8,58.1,231.4,57.3z"/>
	<path class="st0" d="M532.1,115.8c1-11.7-10-20.8-18-27.6c-4.7-3.9-9.5-7.8-13.5-12.5c-3-3.6-6.9-9.4-6.4-14.6
		c0.4-1.3,0.8-2.5,1.2-3.8c0.4-1.3-11-1.6-12.3,0.7c-0.8,1.4-1.2,2.8-1.3,4.2c-4.7,15.4-9.1,30.9-13,46.6
		c-1.9,7.7-3.5,15.4-5.6,23.1c-2-1.5-4.4-2.7-7.4-3.1c-6.6-0.9-14.9,0.6-19.1,6.2c-4.2,5.5-2.7,12.4,1.7,17.2c5,5.6,12.9,7.6,20,5.4
		c4.4-1.3,7.3-4.9,9.8-8.6c3.3-4.9,5.2-10.4,6.8-16c1.8-6.2,3.1-12.6,4.6-18.9c0.1-0.4,0.2-0.8,0.3-1.1c1-4.1,2-8.2,3.1-12.3
		c1.5,1.2,2.9,2.4,4.2,3.5c4.2,3.7,19.1,13.7,13.7,20c-1.3,1.6,4.1,1.7,4.5,1.7c2,0,6.1-0.1,7.5-1.9c5.6-6.6-5.7-14.5-9.9-18.3
		c-5.5-4.9-16.4-11.1-15.9-19.6c0-0.1-0.1-0.3-0.2-0.4c0.7-2.5,1.4-5,2.1-7.5c3.1,3.4,6.5,6.4,9.1,8.6c8.8,7.5,22.6,16.8,21.4,30
		C519.4,118.9,531.8,118.8,532.1,115.8z M448.1,147.3c-1.7-3.2-2.1-6.9-0.6-10.3c0.2-0.4,1.8-2.5,2.8-3.7c0.2,0.1,0.3,0.1,0.5,0.2
		c0.8,0.5,1.6,1.2,2.4,1.8c2.4,2.2,4.2,5.1,6.2,7.8c-0.6,1.5-1.4,2.9-2.2,4.3c-1,1.7-2.3,4-3.9,5.9
		C451.1,151.6,449.1,149.2,448.1,147.3z"/>
	<path class="st1" d="M429.5,191.3c-1.7-0.5-4.8-1-6.2,0.5c-0.6-2.3-0.8-4.7-1.4-7c-0.7-2.7-1.8-5.4-3.6-7.6c-3-3.6-7.9-6-12.6-5.8
		c-2.1,0.1-4.4,0.8-5.2,2.9c-0.8,2.2,0.9,3.8,2.8,4.5c1.8,0.7,4.8,1.4,5.8-0.9c0.8-1.9-0.4-3.4-1.9-4.5c0.3-0.1,0.7-0.2,1-0.3
		c1.6-0.3,2.8,0.4,4,1.4c2.4,2,3.9,4.9,4.9,7.8c1,3,1.1,6.3,2.1,9.3c1.6,4.7,8.4,7.6,12.5,4.1C434,193.7,431.8,192,429.5,191.3z
		 M405.2,178.1C405.2,178.1,405.2,178.1,405.2,178.1C405.2,178.1,405.2,178.1,405.2,178.1z"/>
	<path class="st0" d="M39.7,19.2c-0.8-4.4-1.5-8.8-2.3-13.3c-0.1-0.3-0.3-0.3-0.5-0.2c-6,1.1-12,2.6-17.7,4.8
		c-2.3,0.9-4.9,1.9-6.3,4.2c-1.2,2.1-0.3,5.6-0.1,7.9c0.4,3.3,1.1,6.7,1.4,10.2c-3,0.9-5.6,3.5-6.9,6.1c-0.8,1.7-1.1,4.3,0.4,5.7
		c1.4,1.3,3.5,0.8,4.9-0.1c4.8-2.7,5.7-7.5,5.4-12.6c-0.1-3-0.6-5.9-1-8.8c-0.1-0.4-0.1-0.8-0.2-1.2c5.8-2.3,11.6-4.5,17.4-6.8
		c0.1,0,0.1-0.1,0.2-0.1c0.2,1,0.4,2.1,0.5,3.1c0.3,1.5,0.5,2.9,0.8,4.4c0.1,0.5,0.7,2.3,0.7,3.3c-2.3,1.8-4.7,3.7-5.8,6.5
		c-1.1,2.7-0.1,6.8,3.5,6.5c2.8-0.3,5.4-3.3,6.2-5.8c1.1-3.6,0.4-8-0.3-11.6c0-0.1,0-0.1-0.1-0.1C40,20.5,39.8,19.8,39.7,19.2z
		 M14.3,40c-0.1,0.6-0.2,1.3-0.5,1.9c0,0,0,0,0,0c-0.3,0-0.5,0.1-0.8,0c-1.4-0.2-2.2-1.4-2.4-2.7c-0.3-2.7,0.9-3.5,3.4-3
		c0.1,0,0.3,0,0.4,0C14.6,37.4,14.5,38.7,14.3,40z M37.2,30.6c0,1,0,2.1,0,3.1c0,0.4-0.2,0.9-0.4,1.4c-0.3,0-0.6,0-1.1-0.3
		c-0.6-0.4-1.1-1-1.4-1.6c-1-2.3,0.6-4.3,2.3-5.6c0.1-0.1,0.2-0.1,0.3-0.2C37.1,28.4,37.2,29.5,37.2,30.6z M33.7,9.2
		c0.1,0.8,0.3,1.6,0.4,2.4c-1.1-0.2-2-0.9-2.9-1.4c-0.2-0.1-0.5-0.2-0.7-0.3C31.5,9.7,32.6,9.4,33.7,9.2z M24.3,12.1
		c0.4,0.3,0.9,0.6,1.3,0.7c0.9,0.3,1.7,0.7,2.5,1.2c0.4,0.3,0.8,0.5,1.3,0.7c-0.3,0.1-3.1,1.6-3.4,1.3c-0.8-0.8-1.8-0.9-2.8-1.4
		c-0.6-0.3-1.2-0.6-1.7-1c-0.2-0.1-1.4-1-1.6-0.9c0.9-0.3,2.2-1,3.2-1C23.5,11.7,23.9,11.8,24.3,12.1z M16.8,19.8
		c0-0.3-0.1-0.6-0.1-0.9c-0.1-0.8-0.1-1.7-0.1-2.6c1.2,0.7,2.4,1.4,3.6,2c-0.8,0.3-1.5,0.6-2.3,0.9C17.5,19.4,17.1,19.6,16.8,19.8z
		 M34.2,12.9c0,0,0.1-0.1,0.1-0.1c0,0,0,0.1,0,0.1C34.3,12.9,34.2,12.9,34.2,12.9z"/>
	<g>
		<circle class="st0" cx="191" cy="103.3" r="4.2"/>
		<circle class="st0" cx="198.1" cy="89.1" r="3.3"/>
		<circle class="st0" cx="181.3" cy="80.7" r="2"/>
	</g>
	<g>
		<circle class="st0" cx="690.5" cy="227.9" r="4.9"/>
		<circle class="st0" cx="698.7" cy="211.4" r="3.8"/>
		<circle class="st0" cx="679.1" cy="201.6" r="2.4"/>
	</g>
	<g>
		<circle class="st0" cx="912.6" cy="217.3" r="4.9"/>
		<circle class="st0" cx="928.2" cy="207.6" r="3.8"/>
		<circle class="st0" cx="916.7" cy="188.9" r="2.4"/>
	</g>
	<g>
		<circle class="st0" cx="381.5" cy="202.4" r="4.9"/>
		<circle class="st0" cx="369.8" cy="188.1" r="3.8"/>
		<circle class="st0" cx="352.8" cy="202" r="2.4"/>
	</g>
</g>
</svg>
